<?xml version="1.0" encoding="utf-8"?>
<!-- Generator: Adobe Illustrator 19.0.0, SVG Export Plug-In . SVG Version: 6.00 Build 0)  -->
<!DOCTYPE svg PUBLIC "-//W3C//DTD SVG 1.1//EN" "http://www.w3.org/Graphics/SVG/1.1/DTD/svg11.dtd">
<svg version="1.1" id="Layer_1" xmlns="http://www.w3.org/2000/svg" xmlns:xlink="http://www.w3.org/1999/xlink" x="0px" y="0px"
	 viewBox="165 74.5 630.4 152.5" style="enable-background:new 165 74.5 630.4 152.5;" xml:space="preserve">
<style type="text/css">
	.st0{enable-background:new    ;}
	.st1{fill:#FFFFFF;}
	.st2{fill:#E8505E;}
</style>
<g id="XMLID_1_">
	<g class="st0">
		<path class="st1" d="M509.2,100.7c0.4,1.2,0.8,2.3,1,3.7c0.3,2.9-0.5,5.9-1,8.3c-0.6,3.9-1.8,6.9-2.6,11.4
			c-0.1,0.8-0.8,3.5-0.1,3.9c0.5,0.3,1.5-0.4,2.3-0.6c3.5-1.4,9.3-1.6,10.5,2.1c0.6,1.9-0.3,5.3-0.4,7.3c-0.2,1.2-0.1,2.2-0.3,3.3
			c-0.4,2.9-1.3,5.5-2.1,8.3c-0.7,2.9-1,5.9-1.5,8.9c-0.1,1-0.4,2.1-0.4,3c-0.1,1.8,0,4.9,1.1,4.7c2.8-0.8,7.1-7.2,8.6-10
			c0.8-1.4,2.6-6.1,4.6-4.7c1.1,0.7,1.2,2.1,0.6,3.3c-0.5,1.3-1.8,3.9-2.5,4.9c-3.9,4.9-5.7,10.1-11.4,10.9
			c-3.6,0.3-6.6-3.1-7.3-5.5c-0.9-3.1,0.1-7,0.9-10c1.6-5.5,2.6-9,4.2-14.9c0.4-1.2,0.6-2.3,0.7-4c0.1-1.1,0.3-3.3-0.9-3.7
			c-1.4-0.4-2.5,1.1-3.2,1.8c-0.7,0.7-2,1.7-2.7,2.6c-0.7,1.2-1.5,2.9-2.1,4.6c-0.5,1.5-1.4,3.3-1.9,4.8c-0.4,1.3-0.4,2.8-0.7,4.2
			c-0.2,1.4-0.5,2.7-0.7,4c-0.4,2.4-1.3,6.1-3,6.8c-1.6,0.6-4.7,0.9-7,0.4c-2.1-0.4-4.9-1.4-5.7-2.9c-0.9-1.9-0.1-6,0.4-8.6
			c1.5-8.2,3.5-16.1,5.5-23.6c1.3-4.8,2.7-9.7,4.4-15.1c0.7-2.4,1.5-4.8,2.1-7.5c0.7-3.3,0.9-7.3,4.4-7.5c0.1-0.1,0.1,0,0.2,0
			C506.9,95,508.2,97.9,509.2,100.7z"/>
		<path class="st1" d="M581.1,110.8c0.8,0,1.8,0.3,1.8,1.7c0,2.9-0.7,5-0.7,7.3c0,3.3,0.7,6.1,3.5,7.2c2.7,1.1,7.5,1.1,9.5,4.6
			c1.5,2.7,1.4,9.9,1.4,14.2c0,3.1-0.9,6.1-0.9,9.4c0,1.3,0.4,2.3,1.5,2.3c2.8,0,5-5.7,7.8-8.6c3.1-3,5.1-0.8,3,2.9
			c-2.9,3.6-1.6,2.9-6.1,7.5c-2.8,3-6.3,5.3-11.1,5.3c-7.3,0-8.6-3.8-8.6-12.9c0-2.6,4.3-18.4-0.5-18.4c-2.1,0-3.8,4.6-5.1,8.5
			c-2.3,6.6-9.7,21.5-15.8,24.1c-1.1,0.5-2.7,0.9-4.3,0.9c-4.7,0-8.7-3.1-10.4-7.2c-0.5-1.2-0.9-3.3-1.8-3.3c-2.5,0-4.5,4.5-9.3,4.5
			c-2.3,0-6.6-1.6-7.8-3.9c-0.6-1.6-0.7-4.8-0.7-7c0-8.1,4.1-18.9,8-23c2.1-2.1,3.6-3.7,7.3-4.3c5.2-2.2,8.9,1.5,10.9,1.5
			c2.7,0,0.1-5.2,5.5-5.2c4.2,0,5.1,4.6,5.1,8.6c0,9.9-2.8,16.5-5.5,25.2c-0.7,2-2.3,8.5,1,8.5c4.1,0,11.6-16.9,13.4-20.7
			c2.1-4.4,4.4-9.9,4.4-11.7c0-2.2-3-2.6-3-6.8c0-5.5,3.3-11.4,7.2-11.4H581.1z M531,150c0,4.1,1.6,5.5,5.3,5.5
			c3.5,0,7.9-5.2,9.3-8.5c1.4-3.6,1.6-4.6,3.3-8.9c0.4-1.1,1.3-5.2,1.3-6.5c0-3-4-4.6-6.4-3.8c-2.1,0.6-5.5,3-7.1,5.4
			C533.2,138.4,531,144,531,150z"/>
		<path class="st1" d="M616.4,110.8c0.8,0,1.8,0.3,1.8,1.7c0,2.9-0.7,5-0.7,7.3c0,3.3,0.7,6.1,3.5,7.2c2.7,1.1,7.5,1.1,9.5,4.6
			c1.5,2.7,1.4,9.9,1.4,14.2c0,3.1-0.9,6.1-0.9,9.4c0,1.3,0.4,2.3,1.5,2.3c2.8,0,5-5.7,7.8-8.6c3.1-3,5.1-0.8,3,2.9
			c-2.9,3.6-1.6,2.9-6.1,7.5c-2.8,3-6.3,5.3-11.1,5.3c-7.3,0-8.6-3.8-8.6-12.9c0-2.6,4.3-18.4-0.5-18.4c-3,0-4.2,9.3-7.6,12
			c-2.2,1.8-4.4-1-3-2.6c1.7-2.6,5.5-11.6,5.5-13.8c0-2.2-3-2.6-3-6.8c0-5.5,3.3-11.4,7.2-11.4H616.4z"/>
		<path class="st1" d="M668.8,146.1c-0.6,1.2-1.3,2-1.8,2.8c-2.3,3.6-4.7,8-8,10.7c-2.4,2-5.5,3.9-9.8,3c-3-0.7-6.3-2.3-7.7-4.9
			c-1.4-2.4-1.9-6.3-1.3-10.1c0.3-1.8,0.6-3.2,1.1-4.8c0.4-1.7,0.7-3.3,1.2-4.7l2.9-9c0.4-1.7,1.3-4.7,2.1-6.7
			c0.5-1.4,0.4-2.3,2.1-2.6c3.1-0.5,5.6,1.5,6.8,3.4c1.3,2,3.4,4.5,3,7.6c-0.4,4.3-2.3,9.2-2.9,13.7c-0.2,1.1-2.1,9.3-0.4,10.1
			c2.3,1.2,5.9-6,7.7-8.7c0.9-1.3,2.5-4.4,4.2-4.5C670.7,141.2,669.6,144.5,668.8,146.1z M650.7,108.4c-0.1-1.3,0.4-2.7,0.6-3.8
			c0.4-1.7,1-3,3-3.2c1.6-0.2,3.8,0.3,5,1.7c1.1,1.3,2.2,4.2,2.1,6.8c-0.1,1.7-0.6,3.9-1.9,4.5c-1.9,0.7-3.6-0.5-5-1.3
			C652.7,112,650.8,110.8,650.7,108.4z"/>
		<path class="st1" d="M683.4,115.4c1.7-0.1,4.1,0,4.4,1.9c0.4,2.5-2.2,3.2-1.9,6.2c0.3,2.1,2.3,3.8,3.6,5.6
			c3.8,5.5,7.8,10.9,7.2,20.6c-0.1,1.7-0.3,3.6-0.7,5.2c-2.1,6.8-6.7,8.9-13.7,8.9c-6.7-0.4-14.2-4.3-13.4-11.4
			c0.3-2.3,3.4-2.6,3.8-1.6c0.7,0.5,1.2,1.8,2.4,2c2.1,0.3,2.9-2.4,3.4-4c0.5-1.9,1-3.8,0.9-6.4c-0.2-3.2-0.9-6.3-1.9-9.1
			c-0.4-0.8-0.6-2.1-1.5-2.1c-1,0-2,1.9-2.5,2.8c-0.7,1.1-1.3,2.3-2.9,2.2c-3.5-0.2,0.5-4.8,1.3-5.8c0.9-1.4,2.5-3.2,2.9-4.6
			c0.5-1.5,0.1-3.2,0.5-4.7c0.3-0.6,0.9-1.3,1.4-2c0.6-0.5,1-1.3,1.6-1.9c1.2-1,2.7-1.9,4.9-1.8H683.4z"/>
		<path class="st1" d="M737.6,140.7c0.6-0.7,1.1-1.5,2.1-1.5c1.4,0,2.5,0.7,2,2.1c-2,5.3-9.7,10.4-13.1,9.7c-1.9,3.6-2.6,5.6-5.2,8
			c-1.9,1.9-5.4,3.2-8.6,3.7c-4.7,0.7-9.2-1.4-12.1-3.7c-2.1-1.6-4-4.6-4.6-7.5c-0.7-3.8-0.2-8.1,0.5-11.6c0.4-1.5,0.8-3.3,1.5-4.8
			c0.6-1.4,1.6-2.7,2.4-3.8c1.9-2.6,3.5-4.6,5.9-6.7c1.1-1,2.2-1.9,3.5-2.8c1.2-0.9,2.4-2.1,3.8-2.7c1.2-0.4,3.3,0.4,4.7,0.8
			c2.5,0.9,5.1,2.1,6.1,4.3c0.4,0.6,0.4,1.8,0.7,2.6c0.6,1.3,2.1,1.8,3,3.1c2.1,3.2,2.9,10.3,1.4,15.9
			C734.1,145.5,736.1,142.1,737.6,140.7z M710.9,151.6c-0.2,3.9,1.1,6.9,5.1,6.4c1.5-0.2,3.8-1.3,5.2-2.2c1.2-0.8,3.8-4.6,3.6-6.2
			c-3-2-4.7-4.9-5.5-9.4c-0.2-1.3-0.4-3.5-1.8-3.1c-1.2,0.4-2.1,2.9-2.7,3.9C713,143.8,711.2,147.7,710.9,151.6z M725.8,135.2
			c-1.8,1-1.8,9.4,1.5,9.4C728.3,143.6,728,135,725.8,135.2z"/>
		<path class="st1" d="M756,125.1c0.2,1.1,0.2,2.6,0.9,2.8c0.5,0.2,1.4-0.6,1.9-1c2-1.6,5.8-4.4,9.4-2.4c4.6,2.3,4.8,9.6,2.6,17.2
			c-0.5,1.7-4.5,16.8-2.5,16.5c3.8-0.4,6-8.2,7.9-8.7c3.8-1.3,4.6,0.5,3.4,2.4c-3.2,4.9-8,10.3-10.8,11.5c-1.2,0.5-2.7,0.1-4.1-0.2
			c-1.9-0.4-2.8-1.7-3-3.9c-0.4-3.8,0.6-7.1,1.8-10.6c0.7-2.2,5.1-18.2,0.4-19.1c-2.1-0.2-6.3,2.3-8.4,7.5
			c-2.5,5.7-2.7,21.2-6.7,23.1c-2.7,2.2-6.5,3.8-9.6,2.2c-2.5-1.3-2-7.2-1.5-10.7c0.4-3.6,1.2-6.8,1.7-11c0.7-5.5,1.9-10.6,2.8-16.3
			c0.3-1.8,0.6-4,1.7-4.8c0.5-0.4,1.5-0.4,2.1-0.4C751.9,119,755.1,120.3,756,125.1z"/>
	</g>
</g>
<g class="st0">
	<path class="st1" d="M268.5,189.9c2.5-1.1,5-2.4,7.3-4c2.3-1.5,4.6-3.2,6.7-5c0.7-1.3,1.5-2.6,2.3-3.9c0.8-1.3,1.6-2.6,2.4-3.9
		c1.4-2.3,3-4.6,4.8-6.9c0.7-0.9,1.5-1.9,2.4-2.9c0.9-1,2-1.7,3.1-2c0.5-0.1,0.9-0.1,1.4,0c0.5,0.1,0.8,0.4,1.1,0.8
		c0.3,0.5,0.3,0.9,0.2,1.4c-0.1,0.5-0.3,1-0.5,1.5c-0.3,0.5-0.5,0.9-0.9,1.4c-0.3,0.4-0.6,0.8-0.9,1.2c-2.2,2.6-4.5,5.1-6.8,7.5
		c-2.3,2.4-4.7,4.7-7.3,6.8l-1.5,3.4c-0.2,0.4-0.4,1-0.8,1.9c-0.4,0.9-0.7,1.9-1,2.9c-0.3,1-0.5,2-0.5,2.9c-0.1,0.9,0.2,1.4,0.7,1.6
		c1.1,0,2.1-0.3,3.1-0.9s1.7-1.3,2.4-2.1c0-0.1,0.2-0.2,0.3-0.4c0.2-0.2,0.3-0.4,0.5-0.6c-0.4-0.9-0.5-1.9-0.3-3.1
		c0.2-1.1,0.6-2.1,1.3-2.8c0.6-0.8,1.3-1.2,2.1-1c0.8,0.1,1.2,0.8,1.2,1.9c0,0.9-0.2,1.7-0.6,2.6c-0.4,0.9-0.9,1.7-1.4,2.5
		c0.1,0.1,0.2,0.2,0.3,0.3c0.1,0.1,0.2,0.1,0.4,0.2c0.6,0.3,1.2,0.4,1.8,0.3c0.6,0,1.2-0.1,1.8-0.3c0.6-0.2,1.3-0.5,2.1-1
		c0.8-0.5,1.5-0.7,2.1-0.7c0.5,0,0.8,0.2,0.9,0.7c0.1,0.5-0.1,0.8-0.5,1c-1.2,0.6-2.4,1-3.5,1.4c-1.1,0.4-2.2,0.5-3.4,0.6
		c-1.2,0-2.2-0.3-3.1-1c-0.8,1-1.7,1.9-2.7,2.9c-1,0.9-2.1,1.6-3.3,2c-0.9,0.3-1.7,0.3-2.5,0c-0.8-0.2-1.4-0.8-1.8-1.7
		c-0.4-1.2-0.4-2.4,0-3.7c0.4-1.3,0.9-2.5,1.3-3.5c0.3-0.6,0.5-1.2,0.8-1.9c0.3-0.7,0.6-1.3,0.9-2c-1,0.7-2.1,1.4-3.1,2.1
		c-1.1,0.7-2.1,1.4-3.1,2.1l-4.7,2.6c-0.3,0.1-0.5,0.2-0.7,0.3c-0.2,0.1-0.5,0.1-0.7-0.1c-0.3-0.2-0.4-0.5-0.4-0.8
		C268,190.3,268.2,190,268.5,189.9z M293,170.8c0.8-1,1.6-2,2.4-3c0.8-1,1.4-2.2,1.8-3.4c-0.4,0.3-0.8,0.6-1.2,1
		c-0.4,0.4-0.8,0.7-1.1,1c-0.9,0.9-1.7,1.8-2.5,2.7c-0.8,0.9-1.5,1.9-2.3,2.8c-0.8,1-1.5,2-2.1,3.1c-0.6,1-1.3,2.1-1.9,3.1
		c1.2-1.1,2.3-2.3,3.5-3.5C290.7,173.2,291.9,172,293,170.8z"/>
	<path class="st1" d="M296.8,189.9c0.9-0.5,1.9-1,2.9-1.5c1-0.6,2-1,3-1.5c0.7-1.2,1.6-2.1,2.8-2.9c1.2-0.7,2.5-1.2,3.9-1.5
		c0.7-0.1,1.5-0.1,2.5,0c0.9,0.1,1.7,0.5,2.2,1.1c0.4,0.4,0.4,0.8,0.3,1.3c-0.2,0.5-0.5,0.9-0.9,1.3c-0.4,0.4-0.9,0.8-1.4,1.1
		c-0.5,0.3-0.9,0.6-1.2,0.7c-0.9,0.6-1.9,1-3,1.3c-1.1,0.3-2.2,0.4-3.3,0.3h-0.3c0.2,1.1,0.7,2,1.4,2.6c0.7,0.6,1.6,1.1,2.5,1.3
		c1,0.3,2,0.4,3,0.3c1-0.1,2-0.2,2.9-0.3c1.2-0.3,2.4-0.6,3.6-1c1.2-0.4,2.3-0.8,3.4-1.3c0.5-0.3,1-0.5,1.6-0.7
		c0.5-0.2,1-0.5,1.5-0.7c0.4-0.1,0.7,0,1.1,0.2c0.4,0.2,0.4,0.5,0.1,1c-0.3,0.4-0.6,0.7-1.1,0.8c-0.5,0.2-0.9,0.3-1.2,0.5l-3.8,1.7
		c-2.3,0.9-4.7,1.7-6.9,2.3c-1,0.2-2,0.3-3.1,0.2c-1-0.1-2-0.3-2.9-0.7c-0.9-0.4-1.7-0.9-2.4-1.6c-0.7-0.7-1.2-1.6-1.5-2.7
		c-0.1-0.4-0.2-0.8-0.3-1.2c-0.1-0.4-0.1-0.8,0-1.1c-0.6,0.3-1.1,0.5-1.6,0.9s-1,0.6-1.4,0.9c-0.3,0.1-0.6,0.3-1,0.6
		c-0.4,0.3-0.8,0.3-1.2,0c-0.3-0.2-0.4-0.5-0.4-0.8C296.3,190.2,296.5,190,296.8,189.9z M304.6,187.7c1.2-0.1,2.4-0.4,3.5-0.9
		c1.1-0.6,2.1-1.3,3-2.1c-0.7-0.3-1.4-0.3-2.1-0.2c-0.7,0.1-1.3,0.3-1.9,0.6c-0.6,0.3-1.1,0.7-1.6,1.2
		C305.1,186.7,304.8,187.2,304.6,187.7z"/>
	<path class="st1" d="M346.1,190c0.6-0.3,1.4-0.7,2.3-1.2c0.9-0.5,1.9-1,3-1.4c1.1-0.5,2.1-0.9,3.1-1.3c1-0.4,1.8-0.7,2.5-1
		c0.4-0.2,1-0.4,1.9-0.7c0.9-0.3,1.9-0.6,2.9-0.8c1-0.3,2-0.4,2.9-0.5c0.9-0.1,1.5,0,1.9,0.2c0.6,0.6,0.7,1.1,0.3,1.5
		c-0.4,0.5-0.9,0.7-1.4,0.8l-3.4,0.4c-0.7,0.2-1.3,0.4-1.8,0.7c-0.5,0.3-1,0.6-1.6,1c-0.3,0.2-0.7,0.6-1.3,1.3
		c-0.6,0.6-1.3,1.3-1.9,2.1s-1.1,1.4-1.4,2.1c-0.4,0.7-0.4,1.2,0,1.5c0.3,0.3,0.8,0.3,1.5,0.2c0.7-0.2,1.4-0.4,2.1-0.7
		c0.7-0.3,1.4-0.6,2-1c0.6-0.3,1-0.6,1.2-0.7c1.5-0.9,2.7-1.9,3.6-2.9c0.5-0.5,1-0.6,1.5-0.2c0.5,0.4,0.7,0.9,0.5,1.6
		c-0.1,0.4-0.3,0.7-0.5,0.9c-0.3,0.3-0.5,0.5-0.7,0.7c-0.2,0.2-0.4,0.5-0.6,1c-0.2,0.4-0.3,0.6-0.2,0.8c0.1,0.2,0.3,0.3,0.5,0.3
		c0.7,0.1,1.6,0.1,2.7-0.2c1.1-0.2,2.2-0.5,3.3-0.8c1.1-0.4,2.3-0.8,3.4-1.3c1.1-0.5,2.1-0.9,2.9-1.3c0.2-0.1,0.5-0.2,0.8-0.4
		c0.4-0.2,0.7-0.4,1.1-0.6s0.8-0.2,1.1-0.2c0.4,0,0.6,0.2,0.8,0.5c0.2,0.3,0.2,0.6,0,0.8c-0.2,0.3-0.5,0.5-1,0.6
		c-0.4,0.2-0.8,0.3-1.2,0.5c-0.4,0.2-0.7,0.3-0.9,0.4c-0.9,0.4-1.7,0.8-2.6,1.2c-0.9,0.4-1.8,0.8-2.7,1.2c-0.6,0.3-1.3,0.6-2,0.9
		c-0.7,0.4-1.4,0.7-2.2,0.9c-0.8,0.3-1.5,0.4-2.3,0.5c-0.8,0.1-1.5,0-2.2-0.2c-0.9-0.4-1.4-0.9-1.5-1.5c-0.2-0.6-0.1-1.3,0.1-2
		l-2.1,1.2c-0.9,0.5-1.8,1-2.7,1.6c-0.9,0.5-1.9,0.9-2.9,1c-0.9,0-1.7-0.2-2.4-0.6c-0.7-0.5-1.1-1.2-1.1-2.1c0-0.5,0.2-1.2,0.6-1.9
		c0.4-0.8,0.9-1.6,1.6-2.4c0.6-0.8,1.3-1.6,2.1-2.3c0.8-0.7,1.5-1.2,2.1-1.6c-0.4,0.1-0.9,0.3-1.7,0.7c-0.8,0.4-1.7,0.8-2.7,1.3
		c-1,0.5-2,1-3.1,1.6c-1.1,0.5-2.1,1-3,1.5c-0.3,0.2-0.5,0.2-0.8,0.1c-0.3-0.1-0.4-0.2-0.6-0.4c-0.1-0.2-0.2-0.4-0.2-0.6
		C345.6,190.3,345.8,190.1,346.1,190z"/>
	<path class="st1" d="M379.7,189.9c1-0.4,1.9-0.8,2.9-1.3c0.9-0.4,1.9-0.9,2.9-1.3c1-0.4,2-0.8,3.1-1.1c1.1-0.4,2-0.9,2.9-1.5
		c0.4-0.3,0.9-0.5,1.6-0.5c0.7,0,1.1,0.3,1.3,1c0.1,0.7-0.2,1.2-0.8,1.7c-0.6,0.5-1.2,0.9-1.6,1.3c-0.6,0.6-1.2,1.2-1.8,1.8
		s-1.2,1.3-1.7,2c-0.2,0.4-0.5,0.9-1,1.5c-0.4,0.6-0.7,1.2-0.8,1.8c1.9-0.1,3.8-0.7,5.7-1.8c1.9-1.1,3.5-2.4,4.8-3.9
		c0.2-0.4,0.3-0.7,0.6-1.1c0.2-0.4,0.5-0.8,0.8-1.2c0.3-0.4,0.6-0.7,1-1c0.4-0.3,0.7-0.4,1.1-0.4c0.6,0,1,0.3,1.3,0.8
		c0.2,0.6,0.1,1-0.3,1.4c-0.4,0.6-0.8,1.1-1.3,1.5s-1.1,0.9-1.6,1.4c-0.1,0.6-0.1,1.1-0.1,1.8c0,0.6,0.4,0.9,1,1
		c0.9,0.1,1.8-0.1,2.7-0.5c0.9-0.5,1.9-1.1,3.1-1.9c-0.3-1-0.2-2,0.3-3c0.4-0.8,1.1-1.6,1.9-2.4c0.9-0.8,1.8-1.2,2.9-1.1
		c0.4,0,0.7,0.1,1,0.4c0.3,0.3,0.5,0.5,0.6,0.8c0.1,0.3-0.1,0.7-0.5,1.3c-0.4,0.5-0.8,1.1-1.3,1.7c-0.5,0.6-1,1.1-1.5,1.6
		c-0.5,0.5-0.8,0.8-1,1c0.4,0.4,1,0.6,1.7,0.6c0.7,0,1.4,0,1.9-0.2c1.3-0.1,2.6-0.3,4-0.7c1.3-0.4,2.6-0.9,3.7-1.4
		c0.3-0.2,0.5-0.2,0.7-0.1c0.2,0.1,0.4,0.3,0.5,0.5c0.1,0.2,0.1,0.4,0.1,0.6c0,0.2-0.2,0.4-0.4,0.6c-0.6,0.4-1.3,0.6-1.9,0.8
		c-0.7,0.2-1.4,0.4-2,0.6c-1.2,0.4-2.5,0.7-3.9,0.9c-1.3,0.2-2.7,0.2-4-0.1c-0.6,0-1.1-0.3-1.6-0.8c-1.1,1-2.2,1.9-3.3,2.6
		c-1.1,0.7-2.3,1.1-3.5,1c-1.1-0.1-1.9-0.5-2.2-1.4c-0.4-0.9-0.5-1.8-0.5-2.8l-1.7,1.2c-1.1,0.8-2.3,1.5-3.4,2.3s-2.4,1.4-3.8,1.8
		c-0.5,0.2-0.9,0.2-1.4,0.2c-0.5,0-1-0.1-1.4-0.3c-0.4-0.2-0.7-0.5-1-0.9c-0.2-0.4-0.3-0.9-0.1-1.6c0.3-0.8,0.6-1.6,1.2-2.3
		s1.1-1.4,1.6-2c0.4-0.5,0.9-1.1,1.4-1.7c0.5-0.6,1-1.2,1.4-1.8c-0.6,0.2-1.2,0.4-1.9,0.6c-0.7,0.2-1.2,0.5-1.8,0.7
		c-0.9,0.4-1.7,0.8-2.5,1.2c-0.8,0.4-1.6,0.8-2.4,1.3c-0.3,0.1-0.6,0.2-1,0.3c-0.4,0.1-0.7,0-0.9-0.5
		C379.1,190.5,379.2,190.1,379.7,189.9z"/>
	<path class="st1" d="M419.3,189.9c0.9-0.5,1.9-1,2.9-1.5c1-0.6,2-1,3-1.5c0.7-1.2,1.6-2.1,2.8-2.9c1.2-0.7,2.5-1.2,3.9-1.5
		c0.7-0.1,1.5-0.1,2.5,0c0.9,0.1,1.7,0.5,2.2,1.1c0.4,0.4,0.4,0.8,0.3,1.3c-0.2,0.5-0.5,0.9-0.9,1.3c-0.4,0.4-0.9,0.8-1.4,1.1
		c-0.5,0.3-0.9,0.6-1.2,0.7c-0.9,0.6-1.9,1-3,1.3c-1.1,0.3-2.2,0.4-3.3,0.3h-0.3c0.2,1.1,0.7,2,1.4,2.6c0.7,0.6,1.6,1.1,2.5,1.3
		c1,0.3,2,0.4,3,0.3c1-0.1,2-0.2,2.9-0.3c1.2-0.3,2.4-0.6,3.6-1c1.2-0.4,2.3-0.8,3.4-1.3c0.5-0.3,1-0.5,1.6-0.7
		c0.5-0.2,1-0.5,1.5-0.7c0.4-0.1,0.7,0,1.1,0.2c0.4,0.2,0.4,0.5,0.1,1c-0.3,0.4-0.6,0.7-1.1,0.8s-0.9,0.3-1.2,0.5l-3.8,1.7
		c-2.3,0.9-4.7,1.7-6.9,2.3c-1,0.2-2,0.3-3.1,0.2c-1-0.1-2-0.3-2.9-0.7c-0.9-0.4-1.7-0.9-2.4-1.6c-0.7-0.7-1.2-1.6-1.5-2.7
		c-0.1-0.4-0.2-0.8-0.3-1.2c-0.1-0.4-0.1-0.8,0-1.1c-0.6,0.3-1.1,0.5-1.6,0.9c-0.5,0.3-1,0.6-1.4,0.9c-0.3,0.1-0.6,0.3-1,0.6
		c-0.4,0.3-0.8,0.3-1.2,0c-0.3-0.2-0.4-0.5-0.4-0.8C418.9,190.2,419,190,419.3,189.9z M427.1,187.7c1.2-0.1,2.4-0.4,3.5-0.9
		c1.1-0.6,2.1-1.3,3-2.1c-0.7-0.3-1.4-0.3-2.1-0.2c-0.7,0.1-1.3,0.3-1.9,0.6s-1.1,0.7-1.6,1.2C427.6,186.7,427.3,187.2,427.1,187.7z
		"/>
	<path class="st1" d="M446.1,190c0.4-0.2,1-0.6,1.9-1.1c0.9-0.5,2-1.1,3.1-1.6c1.1-0.6,2.3-1.1,3.5-1.6c1.2-0.5,2.2-0.8,3.1-0.8
		c0.3-0.1,0.6-0.1,1,0c0.3,0.1,0.6,0.3,0.7,0.5c0.3,0.5,0.3,0.9,0.1,1.2c-0.3,0.3-0.6,0.5-1,0.7c-0.4,0.2-0.9,0.4-1.3,0.5
		c-0.5,0.1-0.8,0.3-1,0.5c-0.3,0.3-0.2,0.6,0.2,0.8c0.4,0.3,0.9,0.5,1.4,0.6c0.6,0.2,1.1,0.3,1.7,0.4c0.6,0.1,0.9,0.2,1.1,0.3
		c1,0.6,1.6,1.2,1.8,1.8c0.2,0.6,0.1,1.3-0.3,1.9l2.1-1.1l6.1-3.2c0.4-0.2,0.7-0.2,1,0c0.3,0.2,0.4,0.5,0.4,0.9
		c0,0.4-0.2,0.7-0.6,0.9c-0.4,0.2-0.8,0.3-1.2,0.5c-1.2,0.6-2.5,1.2-3.7,1.8c-1.2,0.6-2.5,1.3-3.7,1.9c-1.5,0.7-2.9,1.3-4.2,1.9
		c-1.3,0.6-2.7,0.8-4.2,0.8c-1,0-1.9-0.4-2.7-1.1c-0.8-0.7-1.2-1.5-1.2-2.4c-0.1-0.5,0-0.8,0.3-1.1c0.3-0.3,0.6-0.5,0.9-0.5
		c0.4-0.1,0.7,0,1,0.2c0.3,0.2,0.4,0.5,0.5,1c0.1,1,0.5,1.6,1.3,1.8c0.8,0.2,1.7,0.1,2.8-0.1c0.7-0.3,1.4-0.6,1.9-1
		c0.6-0.4,1-0.8,1.3-1.1c0.7-0.7,0.8-1.3,0.5-1.7c-0.3-0.4-0.8-0.7-1.6-1c-0.7-0.3-1.5-0.5-2.3-0.6c-0.8-0.2-1.4-0.4-1.7-0.6
		c-0.5-0.4-0.7-0.8-0.8-1.2c-0.1-0.4-0.1-0.8,0-1.2c-0.8,0.3-1.5,0.6-2.3,1c-0.7,0.3-1.4,0.6-2,0.9c-0.5,0.3-1,0.6-1.6,1.1
		c-0.6,0.5-1.2,0.7-1.7,0.7c-0.3,0.1-0.5,0-0.6-0.1c-0.2-0.1-0.3-0.3-0.3-0.5c0-0.2,0-0.4,0.1-0.6
		C445.8,190.2,445.9,190.1,446.1,190z"/>
	<path class="st1" d="M478.3,186.4c1-0.4,2.1-0.8,3.2-1.1c1.1-0.3,2.1-0.6,3.2-0.9c0.7-0.4,1.4-0.6,2.2-0.8c0.8-0.2,1.6-0.1,2.2,0.3
		c0.4,0.3,0.6,0.7,0.5,1.2c0.4,0,0.7,0.1,1.1,0.3c0.7,0.7,0.9,1.4,0.7,2.4c-0.2,0.9-0.6,1.8-1.1,2.7c0.2,0.3,0.5,0.5,0.9,0.8
		c0.8,0.5,1.7,0.7,2.7,0.7c1,0,1.9-0.2,2.7-0.5c0.3,0,0.6-0.2,1.1-0.5c0.5-0.3,1-0.5,1.6-0.7c0.5-0.2,1-0.4,1.5-0.5
		c0.5-0.1,0.8,0,0.9,0.3c0.2,0.4,0.2,0.8-0.1,1c-0.3,0.3-0.6,0.5-1,0.7c-0.4,0.2-0.9,0.3-1.3,0.5c-0.5,0.2-0.8,0.3-0.9,0.3
		c-0.8,0.3-1.6,0.5-2.4,0.6c-0.8,0.2-1.7,0.2-2.5,0.2s-1.6-0.1-2.4-0.3c-0.8-0.2-1.4-0.6-2-1.2l-1.7,1.8c-0.6,0.6-1.3,1.1-2.1,1.7
		c-0.8,0.6-1.6,1-2.4,1.4c-0.8,0.4-1.7,0.6-2.6,0.7c-0.9,0.1-1.8,0-2.6-0.4c-1-0.5-1.6-1.1-1.8-1.8c-0.2-0.7-0.1-1.5,0.2-2.3
		c0.3-0.8,0.7-1.6,1.3-2.4c0.6-0.8,1.1-1.4,1.6-1.9l1.5-1.5c-1.2,0.4-2.3,0.9-3.4,1.4c-1.1,0.5-2.2,1-3.4,1.6
		c-0.2,0.1-0.5,0.2-0.8,0.4c-0.3,0.2-0.6,0.3-0.9,0.5c-0.3,0.2-0.6,0.3-0.9,0.3c-0.3,0.1-0.5,0-0.7-0.1c-0.4-0.2-0.5-0.5-0.5-0.8
		c0.1-0.4,0.2-0.6,0.5-0.8L478.3,186.4z M480.9,189.1c-0.2,0.2-0.6,0.6-1.1,1.1c-0.5,0.6-1,1.1-1.4,1.8c-0.4,0.6-0.6,1.2-0.7,1.7
		s0.2,0.9,1,1c1.3,0.2,2.6,0.2,3.8-0.2c1.2-0.3,2.3-0.9,3.2-1.8c0.4-0.4,0.8-0.8,1.1-1.1c0.4-0.4,0.7-0.8,0.9-1.2
		c-0.3-0.7-0.4-1.4-0.4-2.1c0-0.8,0.2-1.4,0.6-2c-1.4,0.1-2.7,0.4-3.9,0.9C482.9,187.7,481.8,188.3,480.9,189.1z"/>
	<path class="st1" d="M500.1,190c1.2-0.7,2.3-1.3,3.5-1.8c1.2-0.6,2.3-1.1,3.5-1.7c0.4-0.2,0.9-0.4,1.5-0.7c0.6-0.3,1.3-0.6,2-1
		c0.7-0.3,1.4-0.5,2.1-0.7c0.7-0.2,1.2-0.1,1.6,0.1c0.5,0.3,0.7,0.7,0.6,1.1c0,0.4-0.2,0.8-0.5,1.3c-0.3,0.5-0.6,0.9-1,1.3
		c-0.4,0.4-0.6,0.7-0.8,1c-0.3,0.4-0.5,0.8-0.7,1.3c-0.2,0.5-0.5,0.9-0.7,1.4c1.2-0.9,2.2-1.7,3.1-2.4c0.9-0.7,1.7-1.3,2.4-1.8
		c0.7-0.5,1.4-0.9,2-1.3c0.6-0.4,1.3-0.7,1.9-0.9c0.8-0.3,1.5-0.3,2.2,0c0.7,0.3,1,0.9,0.8,1.9c-0.1,0.7-0.3,1.4-0.5,2
		c-0.3,0.6-0.6,1.3-0.9,1.9c1.1-0.7,2.2-1.3,3.4-2c1.1-0.7,2.3-1.4,3.4-2.1c1-0.6,2-1.2,3.1-1.9c1.1-0.7,2.2-1.1,3.4-1.2
		c0.8-0.1,1.4,0,1.8,0.3c0.5,0.3,0.8,0.7,0.9,1.1c0.2,0.5,0.2,1,0.1,1.6c-0.1,0.6-0.3,1.1-0.6,1.6c-0.7,1.1-1.3,2.1-2,3
		c-0.7,0.9-1.3,1.9-1.8,2.9c0.8,0.2,1.8,0.1,2.9-0.3c1.1-0.4,2-0.7,2.6-1c0.7-0.3,1.4-0.5,2-0.8c0.6-0.3,1.2-0.6,1.9-0.9
		c0.2-0.1,0.4-0.3,0.7-0.5c0.3-0.2,0.6-0.4,0.9-0.6c0.3-0.2,0.6-0.3,1-0.4c0.3-0.1,0.6-0.1,0.8,0c0.5,0.3,0.6,0.6,0.4,0.9
		c-0.3,0.4-0.6,0.7-1.2,1c-0.5,0.3-1.1,0.6-1.7,0.9c-0.6,0.3-1,0.4-1.2,0.5c-0.7,0.4-1.4,0.8-2.1,1.1c-0.7,0.3-1.4,0.6-2.1,0.9
		c-1,0.4-2,0.8-3.2,1.3c-1.2,0.5-2.3,0.5-3.3,0c-0.6-0.3-0.9-0.6-1.1-1c-0.2-0.4-0.2-0.8-0.1-1.3c0.1-0.4,0.3-0.9,0.5-1.3
		c0.3-0.5,0.6-0.8,0.9-1.1c0.3-0.4,0.7-0.7,1.1-1.1c0.4-0.4,0.8-0.8,1.2-1.3c0.4-0.5,0.7-0.9,0.9-1.4c0.2-0.5,0.3-1,0.2-1.6
		c-0.5-0.3-1.1-0.2-1.9,0.1c-0.7,0.3-1.3,0.6-1.7,0.8c-1.5,0.6-3,1.3-4.4,2.2c-1.4,0.9-2.8,1.8-4.1,2.7c-0.2,0.2-0.6,0.4-1.1,0.9
		c-0.5,0.4-1,0.8-1.6,1.2c-0.6,0.4-1.1,0.6-1.6,0.7c-0.5,0.1-0.9-0.1-1.1-0.7c-0.1-0.3-0.1-0.6,0.1-0.9c0.2-0.4,0.4-0.7,0.6-1.1
		c0.3-0.4,0.5-0.8,0.8-1.1c0.3-0.4,0.4-0.7,0.5-0.9c0.1-0.3,0.2-0.6,0.4-1.1c0.2-0.5,0.3-0.9,0.4-1.4c-1.2,0.4-2.3,0.8-3.3,1.4
		c-1,0.6-2,1.2-2.9,1.9c-0.9,0.7-1.9,1.4-2.8,2.2c-0.9,0.8-1.9,1.5-2.8,2.3c-0.3,0.3-0.6,0.5-0.9,0.6c-0.4,0.2-0.7,0.1-1.1-0.1
		c-0.5-0.2-0.7-0.4-0.8-0.7c-0.1-0.3,0-0.6,0.2-0.8c0.2-0.3,0.4-0.5,0.6-0.8c0.3-0.3,0.5-0.5,0.6-0.6c1.4-1.8,2.6-3.9,3.4-6.1
		c-1.1,0.3-2.2,0.6-3.2,1c-1,0.4-2,0.9-3,1.3c-0.7,0.4-1.4,0.7-2.1,1c-0.7,0.3-1.4,0.7-2.1,1.2c-0.3,0.2-0.5,0.2-0.8,0.1
		c-0.3-0.1-0.4-0.2-0.5-0.4c-0.1-0.2-0.1-0.4-0.1-0.6C499.7,190.3,499.8,190.1,500.1,190z"/>
	<path class="st1" d="M545.9,189.9c0.9-0.5,1.9-1,2.9-1.5c1-0.6,2-1,3-1.5c0.7-1.2,1.6-2.1,2.8-2.9c1.2-0.7,2.5-1.2,3.9-1.5
		c0.7-0.1,1.5-0.1,2.5,0c0.9,0.1,1.7,0.5,2.2,1.1c0.4,0.4,0.4,0.8,0.3,1.3c-0.2,0.5-0.5,0.9-0.9,1.3c-0.4,0.4-0.9,0.8-1.4,1.1
		c-0.5,0.3-0.9,0.6-1.2,0.7c-0.9,0.6-1.9,1-3,1.3c-1.1,0.3-2.2,0.4-3.3,0.3h-0.3c0.2,1.1,0.7,2,1.4,2.6c0.7,0.6,1.6,1.1,2.5,1.3
		c1,0.3,2,0.4,3,0.3c1-0.1,2-0.2,2.9-0.3c1.2-0.3,2.4-0.6,3.6-1c1.2-0.4,2.3-0.8,3.4-1.3c0.5-0.3,1-0.5,1.6-0.7
		c0.5-0.2,1-0.5,1.5-0.7c0.4-0.1,0.7,0,1.1,0.2c0.4,0.2,0.4,0.5,0.1,1c-0.3,0.4-0.6,0.7-1.1,0.8s-0.9,0.3-1.2,0.5l-3.8,1.7
		c-2.3,0.9-4.7,1.7-6.9,2.3c-1,0.2-2,0.3-3.1,0.2c-1-0.1-2-0.3-2.9-0.7c-0.9-0.4-1.7-0.9-2.4-1.6c-0.7-0.7-1.2-1.6-1.5-2.7
		c-0.1-0.4-0.2-0.8-0.3-1.2c-0.1-0.4-0.1-0.8,0-1.1c-0.6,0.3-1.1,0.5-1.6,0.9c-0.5,0.3-1,0.6-1.4,0.9c-0.3,0.1-0.6,0.3-1,0.6
		c-0.4,0.3-0.8,0.3-1.2,0c-0.3-0.2-0.4-0.5-0.4-0.8C545.4,190.2,545.6,190,545.9,189.9z M553.7,187.7c1.2-0.1,2.4-0.4,3.5-0.9
		c1.1-0.6,2.1-1.3,3-2.1c-0.7-0.3-1.4-0.3-2.1-0.2c-0.7,0.1-1.3,0.3-1.9,0.6s-1.1,0.7-1.6,1.2C554.2,186.7,553.9,187.2,553.7,187.7z
		"/>
</g>
<g class="st0">
	<path class="st1" d="M195,118.1c3.8,0.3,6.4,3.2,8.9,4.6c2.1,1.2,4.4,1.8,4.7,4.6c0.4,2.2-1.2,5.1-1.9,6.6
		c-0.4,0.9-1.1,1.8-1.5,2.7c-0.5,1.1-1,2-1.5,2.8c-1.4,2.1-4.4,4-6.9,4.2c-1.1,0.1-2.3-0.4-3.1-0.2c-1.2,0.4-1.6,2.7-2.1,4
		c-0.5,1.5-1.3,3-1.3,4.7c0.1,2.1,1.7,4.9,3.2,5.3c1.3,0.3,2.7-0.6,3.5-1c2.9-1.5,5.2-4,7.5-6.1c2.3-2.2,3.3-3,5.5-5.6
		c2.1-2.7,4.4-2.1,2.9,1.7c-1.2,3.8-4.6,6-6.8,8.9c-1.1,1.4-2.7,2.7-4.4,3.8c-3,1.8-6.4,3.8-10.9,2.1c-2.6-1-5.6-2.9-7.4-5.2
		c-1.1-1.3-1.9-3-2.8-4.6c-0.8-1.6-1.5-3.4-1.9-5.3c-0.6-4.2,0.4-8.5,1.7-12.4c1.9-5.5,5.2-8.9,8.9-12.5c1.1-1.1,3-3,4.3-3.1
		C193.9,118.1,194.6,118,195,118.1z M198.9,133.8c-0.6,0.8-1.2,1.5-1.9,2.3c-0.6,0.7-1.7,1.7-1.6,2.4c0.2,1,1.7,0.7,2.6,0.4
		c2.8-1,3.7-3.1,4.9-5.7c0.8-1.6,1.9-4,0.8-5.6c-0.9,0-1.4,0.5-1.9,1C200.8,130.1,200.3,131.7,198.9,133.8z"/>
	<path class="st1" d="M237.2,99.2c0,8.7-5.6,13.1-6.4,16c-0.8,2.9-0.9,7.1-1.6,9.9c-1.8,7.1-3.4,14.9-3.4,23.8
		c0,3.1,0.3,5.9,1.9,5.9c2.9,0,8.7-5.5,11.4-10.3c1.3-2.3,2.7-5.2,4.3-5.3c1.4-0.1,2.3,0.4,2.3,1.5c0,4.9-10.7,15.8-14.2,18.3
		c-1.7,1.3-4.2,1.9-6.8,1.9c-9.2,0-13.9-5-13.9-13.9c0-8.8,3-18,4.6-26.7c1.9-9.9,4.9-17.6,9.3-24.8c1.5-2.9,2.6-4,5.6-4.3
		C234.2,91.3,237.2,95,237.2,99.2z"/>
	<path class="st1" d="M268.4,144.2c-0.6,1.2-1.3,2-1.8,2.8c-2.3,3.6-4.7,8-8,10.7c-2.4,2-5.5,3.9-9.8,3c-3-0.7-6.3-2.3-7.7-4.9
		c-1.4-2.4-1.9-6.3-1.3-10.1c0.3-1.8,0.6-3.2,1.1-4.8c0.4-1.7,0.7-3.3,1.2-4.7l2.9-9c0.4-1.7,1.3-4.7,2.1-6.7
		c0.5-1.4,0.4-2.3,2.1-2.6c3.1-0.5,5.6,1.5,6.8,3.4c1.3,2,3.4,4.5,3,7.6c-0.4,4.3-2.3,9.2-2.9,13.7c-0.2,1.1-2.1,9.3-0.4,10.1
		c2.3,1.2,5.9-6,7.7-8.7c0.9-1.3,2.5-4.4,4.2-4.5C270.3,139.4,269.2,142.7,268.4,144.2z M250.4,106.5c-0.1-1.3,0.4-2.7,0.6-3.8
		c0.4-1.7,1-3,3-3.2c1.6-0.2,3.8,0.3,5,1.7c1.1,1.3,2.2,4.2,2.1,6.8c-0.1,1.7-0.6,3.9-1.9,4.5c-1.9,0.7-3.6-0.5-5-1.3
		C252.3,110.1,250.5,109,250.4,106.5z"/>
	<path class="st1" d="M284.6,118.5c5.8,0,8.4,2.8,8.4,8.2c0,2.1-2.2,5.4-3,7.5c-1.3,4-6.6,15.1-6.6,18.4c0,4.3,8.6,1.3,10.2,1.4
		c2.1,0.3,3,0.2,3,1.5c0,4.7-5.9,3.6-13.4,4.2c-4.5,0.4-9.1,2.1-12.2,0.6c-2.8-1.3-3.3-1.3-3.3-5.6c0-6,2.1-11,4.7-15.1
		c2-3,3.8-8.3,6-11.5c0.4-0.4,1.4-2.3,1.4-3.2c0-2.1-5.1-1.3-5.9-1c-1.5,0.7-2.9,1.2-4.7,1.2c-1,0-1.8-0.8-1.8-1.9
		c0-1.4,3.9-2.7,4.9-3c4.4-1,8.1-1.5,11.6-1.8H284.6z"/>
	<path class="st1" d="M331.9,164.1c-1.1,0.5-2.7,0.9-4.3,0.9c-4.7,0-8.7-3.1-10.4-7.2c-0.5-1.2-0.9-3.3-1.8-3.3
		c-2.5,0-4.5,4.5-9.3,4.5c-2.3,0-6.6-1.6-7.8-3.9c-0.6-1.6-0.7-4.8-0.7-7c0-8.1,4.1-18.9,8-23c2.1-2.1,3.6-3.7,7.3-4.3
		c5.2-2.2,8.9,1.5,10.9,1.5c2.7,0,0.1-5.2,5.5-5.2c4.2,0,5.1,4.6,5.1,8.6c0,9.9-2.8,16.5-5.5,25.2c-0.7,2-2.3,8.5,1,8.5
		c3.8,0,5.1-4.1,7.6-7.4c1.1-1.4,4.2-5.7,5.1-2.3C343.7,153.9,336.2,161.8,331.9,164.1z M302.2,148.1c0,4.1,1.6,5.5,5.3,5.5
		c3.5,0,7.9-5.2,9.3-8.5c1.4-3.6,1.6-4.6,3.3-8.9c0.4-1.1,1.3-5.2,1.3-6.5c0-3-4-4.6-6.4-3.8c-2.1,0.6-5.5,3-7.1,5.4
		C304.5,136.5,302.2,142.1,302.2,148.1z"/>
	<path class="st1" d="M369.2,124.9c1.3,0.9,2.1,2.3,2.1,4.2c0,1.3,0.4,2.1,0.3,3.5c-0.4,6.5-1.9,12.1-4.1,17
		c-1.3,2.9-3.7,6.6-5.5,8.8c-1.1,1.1-4.7,2.7-6.2,3.1c-3,1-6.2-0.3-7.8-2.2c-0.6-0.7-0.9-2.3-1.8-2.4c-0.7-0.1-1.2,0.9-1.8,1.5
		c-0.4,0.4-1.3,1.1-2.1,1.1c-2.3,0.1-3.4-4.2-3.8-6.7c-0.7-3.3-0.4-6.7,0.1-9.6c0.5-3.1,1.2-6.1,1.8-8.9c1.1-6,2.3-11.5,3.6-17.7
		c0.5-2.7,1.4-5.7,2.1-8.5c0.8-4.1,1.9-8.6,3.3-12.6c0.8-2.2,0.5-4.5,3-4.8c2.6-0.4,4.5,1.5,5.4,3.2c1.3,2.2,2,5.6,1.9,9
		c0,3.2-0.9,6.3-1.5,9.3c-0.3,1.4-0.7,3-1,4.4c-0.6,4.7-0.5,3.8-1.4,8.3C358.6,123,364.1,120.9,369.2,124.9z M351.9,145.3
		c-0.4,1.7-2.3,4.8-2.2,7c0,1.8,1.2,4.3,2.5,4.6c2,0.5,5.7-1.2,6.8-2.2c1.4-1.3,3.7-3.9,4.7-6.3c2-4.5,2.1-7.6,3.3-12.8
		c1.8-7.7-2.5-12-8.9-6.4C352.8,133.7,353.5,139,351.9,145.3z"/>
	<path class="st1" d="M389.4,118.1c3.8,0.3,6.4,3.2,8.9,4.6c2.1,1.2,4.4,1.8,4.7,4.6c0.4,2.2-1.2,5.1-1.9,6.6
		c-0.4,0.9-1.1,1.8-1.5,2.7c-0.5,1.1-1,2-1.5,2.8c-1.4,2.1-4.4,4-6.9,4.2c-1.1,0.1-2.3-0.4-3.1-0.2c-1.2,0.4-1.6,2.7-2.1,4
		c-0.5,1.5-1.3,3-1.3,4.7c0.1,2.1,1.7,4.9,3.2,5.3c1.3,0.3,2.7-0.6,3.5-1c2.9-1.5,5.2-4,7.5-6.1c2.3-2.2,3.3-3,5.5-5.6
		c2.1-2.7,4.4-2.1,2.9,1.7c-1.2,3.8-4.6,6-6.8,8.9c-1.1,1.4-2.7,2.7-4.4,3.8c-3,1.8-6.4,3.8-10.9,2.1c-2.6-1-5.6-2.9-7.4-5.2
		c-1.1-1.3-1.9-3-2.8-4.6c-0.8-1.6-1.5-3.4-1.9-5.3c-0.6-4.2,0.4-8.5,1.7-12.4c1.9-5.5,5.2-8.9,8.9-12.5c1.1-1.1,3-3,4.3-3.1
		C388.3,118.1,389,118,389.4,118.1z M393.3,133.8c-0.6,0.8-1.2,1.5-1.9,2.3c-0.6,0.7-1.7,1.7-1.6,2.4c0.2,1,1.7,0.7,2.6,0.4
		c2.8-1,3.7-3.1,4.9-5.7c0.8-1.6,1.9-4,0.8-5.6c-0.9,0-1.4,0.5-1.9,1C395.1,130.1,394.7,131.7,393.3,133.8z"/>
	<path class="st1" d="M427.6,115.9c-0.2,0.7-0.7,1.7-0.7,2.5c0,0.9,0.7,1.2,1.4,1.2c1.5,0,2.5-0.4,3.4-0.4c5.2,0,5.7,4.9,0.7,5.5
		c-1.8,0.2-5.5,0-6.9,0.9c-1.1,0.7-1.4,3.7-1.8,5.4c-0.4,2.1-1.2,3.9-1.4,5.6c-0.4,2.3-3.3,19.8-0.5,19.8c3.3,0,11.4-11.4,12.2-12.3
		c3.5-5.2,6.4-2.5,4,1.2c-4.2,6.3-11.4,16.3-19.5,16.3c-10.6,0-12.2-8.3-12.2-18.3c0-4.3,0.6-8.7,1.2-12.8c0.1-1,0.4-2.1,0.4-3
		c0-2.4-3.1-0.4-4.8-3.5c-1.3-1.6-0.7-3.7,1.6-3.7c1.2,0,1.3,0.5,2.4,0.5c2.6,0,2.3-2.8,3-5.2c1-3.2,2.6-13.7,5.5-15
		c5.9-3.5,13,4.9,13,10.3C428.7,112.4,428.2,113.9,427.6,115.9z"/>
	<path class="st1" d="M457.9,98.9c0.4,1.2,0.8,2.3,1,3.7c0.3,2.9-0.5,5.9-1,8.3c-0.6,3.9-1.8,6.9-2.6,11.4c-0.1,0.8-0.8,3.5-0.1,3.9
		c0.5,0.3,1.5-0.4,2.3-0.6c3.5-1.4,9.3-1.6,10.5,2.1c0.6,1.9-0.3,5.3-0.4,7.3c-0.2,1.2-0.1,2.2-0.3,3.3c-0.4,2.9-1.3,5.5-2.1,8.3
		c-0.7,2.9-1,5.9-1.5,8.9c-0.1,1-0.4,2.1-0.4,3c-0.1,1.8,0,4.9,1.1,4.7c2.8-0.8,7.1-7.2,8.6-10c0.8-1.4,2.6-6.1,4.6-4.7
		c1.1,0.7,1.2,2.1,0.6,3.3c-0.5,1.3-1.8,3.9-2.5,4.9c-3.9,4.9-5.7,10.1-11.4,10.9c-3.6,0.3-6.6-3.1-7.3-5.5c-0.9-3.1,0.1-7,0.9-10
		c1.6-5.5,2.6-9,4.2-14.9c0.4-1.2,0.6-2.3,0.7-4c0.1-1.1,0.3-3.3-0.9-3.7c-1.4-0.4-2.5,1.1-3.2,1.8c-0.7,0.7-2,1.7-2.7,2.6
		c-0.7,1.2-1.5,2.9-2.1,4.6c-0.5,1.5-1.4,3.3-1.9,4.8c-0.4,1.3-0.4,2.8-0.7,4.2c-0.2,1.4-0.5,2.7-0.7,4c-0.4,2.4-1.3,6.1-3,6.8
		c-1.6,0.6-4.7,0.9-7,0.4c-2.1-0.4-4.9-1.4-5.7-2.9c-0.9-1.9-0.1-6,0.4-8.6c1.5-8.2,3.5-16.1,5.5-23.6c1.3-4.8,2.7-9.7,4.4-15.1
		c0.7-2.4,1.5-4.8,2.1-7.5c0.7-3.3,0.9-7.3,4.4-7.5c0.1-0.1,0.1,0,0.2,0C455.6,93.1,456.9,96,457.9,98.9z"/>
</g>
<path id="XMLID_113_" class="st2" d="M660.4,182.6c0.9,1.3,3.3,1.9,5,2.5c1.2-0.7,4.4,0.6,5.6-0.9c3.3-0.8,6.2-2.3,9.9-2.2
	c-0.1-0.7-0.7-0.9-1.2-1.2c-5.7-2.9-12.1,0.5-16.9,1.8C662,182.5,661,182.2,660.4,182.6z M645.8,182.1c4.5,1.1,7.5-0.9,10.6-2.7
	c0.8,0.3,1.2-0.4,1.9-0.3c1.6-1.9,4.4-1.6,6.7-2.1c-0.7-0.4-1.5-1.4-2.3-1.4c-3.8,0-7.6,0.1-10.4,1.3c-2.9,1.2-5.8,4-9.3,4.6
	C643.5,182.4,644.8,182.2,645.8,182.1z M629.8,182.2c2.4-0.3,4.6-1.2,6.6-2.3c1.7-1,2.8-2.9,4.6-3.8c1.4-0.7,3.2-0.2,3.8-1.8
	c-1-0.6-2.5-1.7-3.5-1.6c-6.8,0.3-11.3,6-16.8,8.7C626.2,183,628.2,182.5,629.8,182.2z M676.3,188.8c0.6,1.1,1.9,2.2,3,2.6
	c0.5,0.2,1.1,0,1.5,0.2c0.4,0.2,0.7,0.6,1.1,0.7c1.5,0.4,3.4-0.6,5.1,0.7c2-0.3,3.8-1.1,6.3-0.5
	C689.9,186.9,681.2,188.5,676.3,188.8z M607.7,184.2c3.6,1.5,7.1-0.9,9.5-3.4c2.9-1,4.2-4.2,6.8-5.5c1.5-0.7,3.4,0,4.4-1.7
	c-2.3-2-5-0.2-7.3,0.1c-0.7,0.1-1.3-0.1-1.9,0c-3.7,0.7-7.6,4.3-10,7.6C608.5,182.4,607.4,183.4,607.7,184.2z M665,188.4
	c-1.4-0.3-2.8,0-4.2-0.1c-3.4-0.4-6.7-1.1-10-1.4c-6.7-0.7-12.9-0.7-19-0.4c-3.1,0.1-6.2,0.2-9.2,0.5c-5.6,0.6-11.5,1.8-17.6,2.2
	c-6.1,0.4-12.9,1.6-18.7,0.4c-1.8-0.4-4.1-1.2-5-2c-1.3-1.3-0.6-3.5-2.1-4.9c-1-0.1-1.9-0.1-2.8,0c-1,3.2,0.5,5.4,2.6,6.8
	c1.6,1.1,4.7,2.5,7.5,3.1c4.9,1.1,9.1,0.3,13.3,0.1c4.9-0.2,9.8-0.9,14.3-1.3c3.6-0.3,7.6-1.1,11-1.1c0.8,0,1.6,0.2,2.5,0.2
	c1.3,0,2.7-0.4,4-0.4c1.4-0.1,2.9,0.2,4.3,0.1c2.7,0,5.5-0.6,8.2-0.8c4.1-0.3,8.4,0.1,12.8,0.3c1.5,0.1,3.2-0.1,4.4,0.2
	c0.8,0.2,1.5,0.7,2.3,0.9c1.3,0.4,2.8,0.2,4,0.5c3,0.9,5.4,2.6,8.7,3.7c1.4,1.1,3.6,3.5,5.9,3c-0.6-1.2-1.9-2.1-3-3
	C675.8,192.4,670.3,189.5,665,188.4z M676.2,199.7c-0.2-0.1-0.4-0.1-0.6-0.2c-0.2-2.1-2.7-4.3-5.3-4.4c-0.1,0-0.2-0.1-0.3-0.1
	c0.4,2.6,1.7,4.9,3.9,6.6c0.7,2.1,3,3.3,5.4,4.5C678.9,203.7,676.9,202,676.2,199.7z M594.7,184c-0.2,0.7-1.4,0.4-1.2,1.2
	c2.1,1.7,4.9,0.3,6.5-0.7c3-1.8,5.8-5.3,8.4-7.2c1.1-0.4,2.5-0.2,2.8-1.6c-1.7-1.6-4-0.9-5.6-0.1c-4.8,0.5-8.6,2.9-11.5,7.3
	C594.1,183.3,594.5,183.7,594.7,184z M662.8,196.7c-1.9-1.6-3.2-4-6.5-4.3c0,3.3,3,7.1,6.6,7.4c-0.3,0.6,0.3,0.3,0.3,0.6
	c1.7,0.4,3.7,1.6,4.6,0.6C667.4,198.7,664.7,198.2,662.8,196.7z M653.2,198c-0.8-2.2-4.6-2.8-5.4-5c-2.6-1.1-4.8-1.6-6.8-1
	c0.2,0.1,0.3,0.2,0.2,0.4c-0.3,0.2-1-0.4-1.2,0.1c3.5,2.2,5,5.6,8.6,6.4c1.1,0.2,2.2-0.1,3.1,0.2c1.3,0.4,2.5,1.6,3.9,1
	C655.7,198.9,654.1,198.5,653.2,198z M636.2,196.8c-2.4-1.1-4.5-2.8-6.7-3.5c-2.5-0.9-4.3-0.1-6.6,1c2.3,2.2,5.8,4.7,9.3,5.5
	c1.9-0.7,4.1,0.5,6.2,0.6c0.7,0,1.4-0.3,2.2-0.2c1,0,2.1,0.8,3,0.1C642.3,197.6,638.8,198,636.2,196.8z M624.2,200.8
	c-1.3-0.5-1.9-1.5-3.1-2.3c-0.9-0.6-2.1-1.1-3-1.6c-0.9-0.6-1.4-1.3-2.3-1.7c-2.7-1.2-5.1-0.8-7.9-0.1c3.1,2.7,6.2,5.5,10.9,7.4
	c0.3,0.1-0.1-0.5,0.4-0.3c0.4,0.1-0.3,0.6,0.3,0.6c3.3,0.8,6.3,1.4,9-0.4C627.7,200.8,625.8,201.5,624.2,200.8z M610.6,203.4
	c-2.8-3.5-9.8-9.3-15.4-7.1c3.2,4.5,10.5,7.3,17.1,8.6C612.7,204,611.6,203.3,610.6,203.4z"/>
</svg>
