<?xml version="1.0" encoding="utf-8"?>
<!-- Generator: Adobe Illustrator 19.0.0, SVG Export Plug-In . SVG Version: 6.00 Build 0)  -->
<!DOCTYPE svg PUBLIC "-//W3C//DTD SVG 1.1//EN" "http://www.w3.org/Graphics/SVG/1.1/DTD/svg11.dtd">
<svg version="1.1" id="Layer_1" xmlns="http://www.w3.org/2000/svg" xmlns:xlink="http://www.w3.org/1999/xlink" x="0px" y="0px"
	 viewBox="0 0 628.3 163.2" style="enable-background:new 0 0 628.3 163.2;" xml:space="preserve">
<style type="text/css">
	.st0{fill:#242523;}
	.st1{font-family:'Fonstyle';}
	.st2{font-size:89.4122px;}
	.st3{font-family:'NoteraPersonalUseOnly';}
	.st4{font-size:76.3028px;}
	.st5{fill-rule:evenodd;clip-rule:evenodd;fill:#E8505E;}
</style>
<g id="XMLID_1_">
	<text id="XMLID_139_" transform="matrix(1 0 0 1 320.4164 88.7161)" class="st0 st1 st2">harrison</text>
</g>
<text id="XMLID_45_" transform="matrix(1 0 0 1 102.9979 123.8038)" class="st0 st3 st4">be awesome</text>
<text id="XMLID_46_" transform="matrix(1 0 0 1 13.2516 86.841)" class="st0 st1 st2">elizabeth </text>
<path id="XMLID_113_" class="st5" d="M495.1,110c0.9,1.3,3.3,1.9,5,2.5c1.2-0.7,4.4,0.6,5.6-0.9c3.3-0.8,6.2-2.3,9.9-2.2
	c-0.1-0.7-0.7-0.9-1.2-1.2c-5.7-2.9-12.1,0.5-16.9,1.8C496.6,109.9,495.7,109.5,495.1,110z M480.5,109.5c4.5,1.1,7.5-0.9,10.6-2.7
	c0.8,0.3,1.2-0.4,1.9-0.3c1.6-1.9,4.4-1.6,6.7-2.1c-0.7-0.4-1.5-1.4-2.3-1.4c-3.8,0-7.6,0.1-10.4,1.3c-2.9,1.2-5.8,4-9.3,4.6
	C478.1,109.8,479.5,109.6,480.5,109.5z M464.5,109.6c2.4-0.3,4.6-1.2,6.6-2.3c1.7-1,2.8-2.9,4.6-3.8c1.4-0.7,3.2-0.2,3.8-1.8
	c-1-0.6-2.5-1.7-3.5-1.6c-6.8,0.3-11.3,6-16.8,8.7C460.9,110.4,462.8,109.8,464.5,109.6z M511,116.1c0.6,1.1,1.9,2.2,3,2.6
	c0.5,0.2,1.1,0,1.5,0.2c0.4,0.2,0.7,0.6,1.1,0.7c1.5,0.4,3.4-0.6,5.1,0.7c2-0.3,3.8-1.1,6.3-0.5C524.6,114.3,515.8,115.9,511,116.1z
	 M442.4,111.6c3.6,1.5,7.1-0.9,9.5-3.4c2.9-1,4.2-4.2,6.8-5.5c1.5-0.7,3.4,0,4.4-1.7c-2.3-2-5-0.2-7.3,0.1c-0.7,0.1-1.3-0.1-1.9,0
	c-3.7,0.7-7.6,4.3-10,7.6C443.2,109.8,442.1,110.8,442.4,111.6z M499.6,115.7c-1.4-0.3-2.8,0-4.2-0.1c-3.4-0.4-6.7-1.1-10-1.4
	c-6.7-0.7-12.9-0.7-19-0.4c-3.1,0.1-6.2,0.2-9.2,0.5c-5.6,0.6-11.5,1.8-17.6,2.2c-6.1,0.4-12.9,1.6-18.7,0.4c-1.8-0.4-4.1-1.2-5-2
	c-1.3-1.3-0.6-3.5-2.1-4.9c-1-0.1-1.9-0.1-2.8,0c-1,3.2,0.5,5.4,2.6,6.8c1.6,1.1,4.7,2.5,7.5,3.1c4.9,1.1,9.1,0.3,13.3,0.1
	c4.9-0.2,9.8-0.9,14.3-1.3c3.6-0.3,7.6-1.1,11-1.1c0.8,0,1.6,0.2,2.5,0.2c1.3,0,2.7-0.4,4-0.4c1.4-0.1,2.9,0.2,4.3,0.1
	c2.7,0,5.5-0.6,8.2-0.8c4.1-0.3,8.4,0.1,12.8,0.3c1.5,0.1,3.2-0.1,4.4,0.2c0.8,0.2,1.5,0.7,2.3,0.9c1.3,0.4,2.8,0.2,4,0.5
	c3,0.9,5.4,2.6,8.7,3.7c1.4,1.1,3.6,3.5,5.9,3c-0.6-1.2-1.9-2.1-3-3C510.5,119.8,505,116.9,499.6,115.7z M510.8,127
	c-0.2-0.1-0.4-0.1-0.6-0.2c-0.2-2.1-2.7-4.3-5.3-4.4c-0.1,0-0.2-0.1-0.3-0.1c0.4,2.6,1.7,4.9,3.9,6.6c0.7,2.1,3,3.3,5.4,4.5
	C513.6,131.1,511.6,129.4,510.8,127z M429.4,111.4c-0.2,0.7-1.4,0.4-1.2,1.2c2.1,1.7,4.9,0.3,6.5-0.7c3-1.8,5.8-5.3,8.4-7.2
	c1.1-0.4,2.5-0.2,2.8-1.6c-1.7-1.6-4-0.9-5.6-0.1c-4.8,0.5-8.6,2.9-11.5,7.3C428.8,110.7,429.1,111,429.4,111.4z M497.5,124
	c-1.9-1.6-3.2-4-6.5-4.3c0,3.3,3,7.1,6.6,7.4c-0.3,0.6,0.3,0.3,0.3,0.6c1.7,0.4,3.7,1.6,4.6,0.6C502.1,126.1,499.3,125.6,497.5,124z
	 M487.9,125.3c-0.8-2.2-4.6-2.8-5.4-5c-2.6-1.1-4.8-1.6-6.8-1c0.2,0.1,0.3,0.2,0.2,0.4c-0.3,0.2-1-0.4-1.2,0.1
	c3.5,2.2,5,5.6,8.6,6.4c1.1,0.2,2.2-0.1,3.1,0.2c1.3,0.4,2.5,1.6,3.9,1C490.4,126.2,488.8,125.8,487.9,125.3z M470.9,124.2
	c-2.4-1.1-4.5-2.8-6.7-3.5c-2.5-0.9-4.3-0.1-6.6,1c2.3,2.2,5.8,4.7,9.3,5.5c1.9-0.7,4.1,0.5,6.2,0.6c0.7,0,1.4-0.3,2.2-0.2
	c1,0,2.1,0.8,3,0.1C477,125,473.5,125.4,470.9,124.2z M458.9,128.2c-1.3-0.5-1.9-1.5-3.1-2.3c-0.9-0.6-2.1-1.1-3-1.6
	c-0.9-0.6-1.4-1.3-2.3-1.7c-2.7-1.2-5.1-0.8-7.9-0.1c3.1,2.7,6.2,5.5,10.9,7.4c0.3,0.1-0.1-0.5,0.4-0.3c0.4,0.1-0.3,0.6,0.3,0.6
	c3.3,0.8,6.3,1.4,9-0.4C462.4,128.2,460.5,128.9,458.9,128.2z M445.3,130.7c-2.8-3.5-9.8-9.3-15.4-7.1c3.2,4.5,10.5,7.3,17.1,8.6
	C447.3,131.3,446.2,130.7,445.3,130.7z"/>
</svg>
