<?xml version="1.0" encoding="utf-8"?>
<!-- Generator: Adobe Illustrator 19.0.0, SVG Export Plug-In . SVG Version: 6.00 Build 0)  -->
<!DOCTYPE svg PUBLIC "-//W3C//DTD SVG 1.1//EN" "http://www.w3.org/Graphics/SVG/1.1/DTD/svg11.dtd">
<svg version="1.1" id="Layer_1" xmlns="http://www.w3.org/2000/svg" xmlns:xlink="http://www.w3.org/1999/xlink" x="0px" y="0px"
	 viewBox="164 69.8 628.3 163.2" style="enable-background:new 164 69.8 628.3 163.2;" xml:space="preserve">
<style type="text/css">
	.st0{enable-background:new    ;}
	.st1{fill:#242523;}
	.st2{fill:#E8505E;}
</style>
<g id="XMLID_1_">
	<g class="st0">
		<path class="st1" d="M508.1,101.8c0.4,1.2,0.8,2.3,1,3.7c0.3,2.9-0.5,5.9-1,8.3c-0.6,3.9-1.8,6.9-2.6,11.4
			c-0.1,0.8-0.8,3.5-0.1,3.9c0.5,0.3,1.5-0.4,2.3-0.6c3.5-1.4,9.3-1.6,10.5,2.1c0.6,1.9-0.3,5.3-0.4,7.3c-0.2,1.2-0.1,2.2-0.3,3.3
			c-0.4,2.9-1.3,5.5-2.1,8.3c-0.7,2.9-1,5.9-1.5,8.9c-0.1,1-0.4,2.1-0.4,3c-0.1,1.8,0,4.9,1.1,4.7c2.8-0.8,7.1-7.2,8.6-10
			c0.8-1.4,2.6-6.1,4.6-4.7c1.1,0.7,1.2,2.1,0.6,3.3c-0.5,1.3-1.8,3.9-2.5,4.9c-3.9,4.9-5.7,10.1-11.4,10.9
			c-3.6,0.3-6.6-3.1-7.3-5.5c-0.9-3.1,0.1-7,0.9-10c1.6-5.5,2.6-9,4.2-14.9c0.4-1.2,0.6-2.3,0.7-4c0.1-1.1,0.3-3.3-0.9-3.7
			c-1.4-0.4-2.5,1.1-3.2,1.8c-0.7,0.7-2,1.7-2.7,2.6c-0.7,1.2-1.5,2.9-2.1,4.6c-0.5,1.5-1.4,3.3-1.9,4.8c-0.4,1.3-0.4,2.8-0.7,4.2
			c-0.2,1.4-0.5,2.7-0.7,4c-0.4,2.4-1.3,6.1-3,6.8c-1.6,0.6-4.7,0.9-7,0.4c-2.1-0.4-4.9-1.4-5.7-2.9c-0.9-1.9-0.1-6,0.4-8.6
			c1.5-8.2,3.5-16.1,5.5-23.6c1.3-4.8,2.7-9.7,4.4-15.1c0.7-2.4,1.5-4.8,2.1-7.5c0.7-3.3,0.9-7.3,4.4-7.5c0.1-0.1,0.1,0,0.2,0
			C505.8,96.1,507.2,98.9,508.1,101.8z"/>
		<path class="st1" d="M580,111.9c0.8,0,1.8,0.3,1.8,1.7c0,2.9-0.7,5-0.7,7.3c0,3.3,0.7,6.1,3.5,7.2c2.7,1.1,7.5,1.1,9.5,4.6
			c1.5,2.7,1.4,9.9,1.4,14.2c0,3.1-0.9,6.1-0.9,9.4c0,1.3,0.4,2.3,1.5,2.3c2.8,0,5-5.7,7.8-8.6c3.1-3,5.1-0.8,3,2.9
			c-2.9,3.6-1.6,2.9-6.1,7.5c-2.8,3-6.3,5.3-11.1,5.3c-7.3,0-8.6-3.8-8.6-12.9c0-2.6,4.3-18.4-0.5-18.4c-2.1,0-3.8,4.6-5.1,8.5
			c-2.3,6.6-9.7,21.5-15.8,24.1c-1.1,0.5-2.7,0.9-4.3,0.9c-4.7,0-8.7-3.1-10.4-7.2c-0.5-1.2-0.9-3.3-1.8-3.3c-2.5,0-4.5,4.5-9.3,4.5
			c-2.3,0-6.6-1.6-7.8-3.9c-0.6-1.6-0.7-4.8-0.7-7c0-8.1,4.1-18.9,8-23c2.1-2.1,3.6-3.7,7.3-4.3c5.2-2.2,8.9,1.5,10.9,1.5
			c2.7,0,0.1-5.2,5.5-5.2c4.2,0,5.1,4.6,5.1,8.6c0,9.9-2.8,16.5-5.5,25.2c-0.7,2-2.3,8.5,1,8.5c4.1,0,11.6-16.9,13.4-20.7
			c2.1-4.4,4.4-9.9,4.4-11.7c0-2.2-3-2.6-3-6.8c0-5.5,3.3-11.4,7.2-11.4h0.3V111.9z M530,151.1c0,4.1,1.6,5.5,5.3,5.5
			c3.5,0,7.9-5.2,9.3-8.5c1.4-3.6,1.6-4.6,3.3-8.9c0.4-1.1,1.3-5.2,1.3-6.5c0-3-4-4.6-6.4-3.8c-2.1,0.6-5.5,3-7.1,5.4
			C532.2,139.4,530,145.1,530,151.1z"/>
		<path class="st1" d="M615.3,111.9c0.8,0,1.8,0.3,1.8,1.7c0,2.9-0.7,5-0.7,7.3c0,3.3,0.7,6.1,3.5,7.2c2.7,1.1,7.5,1.1,9.5,4.6
			c1.5,2.7,1.4,9.9,1.4,14.2c0,3.1-0.9,6.1-0.9,9.4c0,1.3,0.4,2.3,1.5,2.3c2.8,0,5-5.7,7.8-8.6c3.1-3,5.1-0.8,3,2.9
			c-2.9,3.6-1.6,2.9-6.1,7.5c-2.8,3-6.3,5.3-11.1,5.3c-7.3,0-8.6-3.8-8.6-12.9c0-2.6,4.3-18.4-0.5-18.4c-3,0-4.2,9.3-7.6,12
			c-2.2,1.8-4.4-1-3-2.6c1.7-2.6,5.5-11.6,5.5-13.8c0-2.2-3-2.6-3-6.8c0-5.5,3.3-11.4,7.2-11.4h0.3V111.9z"/>
		<path class="st1" d="M667.7,147.1c-0.6,1.2-1.3,2-1.8,2.8c-2.3,3.6-4.7,8-8,10.7c-2.4,2-5.5,3.9-9.8,3c-3-0.7-6.3-2.3-7.7-4.9
			c-1.4-2.4-1.9-6.3-1.3-10.1c0.3-1.8,0.6-3.2,1.1-4.8c0.4-1.7,0.7-3.3,1.2-4.7l2.9-9c0.4-1.7,1.3-4.7,2.1-6.7
			c0.5-1.4,0.4-2.3,2.1-2.6c3.1-0.5,5.6,1.5,6.8,3.4c1.3,2,3.4,4.5,3,7.6c-0.4,4.3-2.3,9.2-2.9,13.7c-0.2,1.1-2.1,9.3-0.4,10.1
			c2.3,1.2,5.9-6,7.7-8.7c0.9-1.3,2.5-4.4,4.2-4.5C669.6,142.3,668.5,145.6,667.7,147.1z M649.7,109.5c-0.1-1.3,0.4-2.7,0.6-3.8
			c0.4-1.7,1-3,3-3.2c1.6-0.2,3.8,0.3,5,1.7c1.1,1.3,2.2,4.2,2.1,6.8c-0.1,1.7-0.6,3.9-1.9,4.5c-1.9,0.7-3.6-0.5-5-1.3
			C651.6,113.1,649.8,111.9,649.7,109.5z"/>
		<path class="st1" d="M682.4,116.5c1.7-0.1,4.1,0,4.4,1.9c0.4,2.5-2.2,3.2-1.9,6.2c0.3,2.1,2.3,3.8,3.6,5.6
			c3.8,5.5,7.8,10.9,7.2,20.6c-0.1,1.7-0.3,3.6-0.7,5.2c-2.1,6.8-6.7,8.9-13.7,8.9c-6.7-0.4-14.2-4.3-13.4-11.4
			c0.3-2.3,3.4-2.6,3.8-1.6c0.7,0.5,1.2,1.8,2.4,2c2.1,0.3,2.9-2.4,3.4-4c0.5-1.9,1-3.8,0.9-6.4c-0.2-3.2-0.9-6.3-1.9-9.1
			c-0.4-0.8-0.6-2.1-1.5-2.1c-1,0-2,1.9-2.5,2.8c-0.7,1.1-1.3,2.3-2.9,2.2c-3.5-0.2,0.5-4.8,1.3-5.8c0.9-1.4,2.5-3.2,2.9-4.6
			c0.5-1.5,0.1-3.2,0.5-4.7c0.3-0.6,0.9-1.3,1.4-2c0.6-0.5,1-1.3,1.6-1.9c1.2-1,2.7-1.9,4.9-1.8L682.4,116.5L682.4,116.5z"/>
		<path class="st1" d="M736.6,141.8c0.6-0.7,1.1-1.5,2.1-1.5c1.4,0,2.5,0.7,2,2.1c-2,5.3-9.7,10.4-13.1,9.7c-1.9,3.6-2.6,5.6-5.2,8
			c-1.9,1.9-5.4,3.2-8.6,3.7c-4.7,0.7-9.2-1.4-12.1-3.7c-2.1-1.6-4-4.6-4.6-7.5c-0.7-3.8-0.2-8.1,0.5-11.6c0.4-1.5,0.8-3.3,1.5-4.8
			c0.6-1.4,1.6-2.7,2.4-3.8c1.9-2.6,3.5-4.6,5.9-6.7c1.1-1,2.2-1.9,3.5-2.8c1.2-0.9,2.4-2.1,3.8-2.7c1.2-0.4,3.3,0.4,4.7,0.8
			c2.5,0.9,5.1,2.1,6.1,4.3c0.4,0.6,0.4,1.8,0.7,2.6c0.6,1.3,2.1,1.8,3,3.1c2.1,3.2,2.9,10.3,1.4,15.9
			C733.1,146.6,735.1,143.2,736.6,141.8z M709.9,152.7c-0.2,3.9,1.1,6.9,5.1,6.4c1.5-0.2,3.8-1.3,5.2-2.2c1.2-0.8,3.8-4.6,3.6-6.2
			c-3-2-4.7-4.9-5.5-9.4c-0.2-1.3-0.4-3.5-1.8-3.1c-1.2,0.4-2.1,2.9-2.7,3.9C712,144.9,710.1,148.7,709.9,152.7z M724.8,136.2
			c-1.8,1-1.8,9.4,1.5,9.4C727.3,144.7,726.9,136,724.8,136.2z"/>
		<path class="st1" d="M755,126.2c0.2,1.1,0.2,2.6,0.9,2.8c0.5,0.2,1.4-0.6,1.9-1c2-1.6,5.8-4.4,9.4-2.4c4.6,2.3,4.8,9.6,2.6,17.2
			c-0.5,1.7-4.5,16.8-2.5,16.5c3.8-0.4,6-8.2,7.9-8.7c3.8-1.3,4.6,0.5,3.4,2.4c-3.2,4.9-8,10.3-10.8,11.5c-1.2,0.5-2.7,0.1-4.1-0.2
			c-1.9-0.4-2.8-1.7-3-3.9c-0.4-3.8,0.6-7.1,1.8-10.6c0.7-2.2,5.1-18.2,0.4-19.1c-2.1-0.2-6.3,2.3-8.4,7.5
			c-2.5,5.7-2.7,21.2-6.7,23.1c-2.7,2.2-6.5,3.8-9.6,2.2c-2.5-1.3-2-7.2-1.5-10.7c0.4-3.6,1.2-6.8,1.7-11c0.7-5.5,1.9-10.6,2.8-16.3
			c0.3-1.8,0.6-4,1.7-4.8c0.5-0.4,1.5-0.4,2.1-0.4C750.9,120,754.1,121.4,755,126.2z"/>
	</g>
</g>
<g class="st0">
	<path class="st1" d="M267.5,190.9c2.5-1.1,5-2.4,7.3-4c2.3-1.5,4.6-3.2,6.7-5c0.7-1.3,1.5-2.6,2.3-3.9c0.8-1.3,1.6-2.6,2.4-3.9
		c1.4-2.3,3-4.6,4.8-6.9c0.7-0.9,1.5-1.9,2.4-2.9s2-1.7,3.1-2c0.5-0.1,0.9-0.1,1.4,0s0.8,0.4,1.1,0.8c0.3,0.5,0.3,0.9,0.2,1.4
		c-0.1,0.5-0.3,1-0.5,1.5c-0.3,0.5-0.5,0.9-0.9,1.4c-0.3,0.4-0.6,0.8-0.9,1.2c-2.2,2.6-4.5,5.1-6.8,7.5s-4.7,4.7-7.3,6.8l-1.5,3.4
		c-0.2,0.4-0.4,1-0.8,1.9s-0.7,1.9-1,2.9s-0.5,2-0.5,2.9c-0.1,0.9,0.2,1.4,0.7,1.6c1.1,0,2.1-0.3,3.1-0.9c1-0.6,1.7-1.3,2.4-2.1
		c0-0.1,0.2-0.2,0.3-0.4c0.2-0.2,0.3-0.4,0.5-0.6c-0.4-0.9-0.5-1.9-0.3-3.1c0.2-1.1,0.6-2.1,1.3-2.8c0.6-0.8,1.3-1.2,2.1-1
		c0.8,0.1,1.2,0.8,1.2,1.9c0,0.9-0.2,1.7-0.6,2.6c-0.4,0.9-0.9,1.7-1.4,2.5c0.1,0.1,0.2,0.2,0.3,0.3c0.1,0.1,0.2,0.1,0.4,0.2
		c0.6,0.3,1.2,0.4,1.8,0.3c0.6,0,1.2-0.1,1.8-0.3c0.6-0.2,1.3-0.5,2.1-1c0.8-0.5,1.5-0.7,2.1-0.7c0.5,0,0.8,0.2,0.9,0.7
		s-0.1,0.8-0.5,1c-1.2,0.6-2.4,1-3.5,1.4s-2.2,0.5-3.4,0.6c-1.2,0-2.2-0.3-3.1-1c-0.8,1-1.7,1.9-2.7,2.9c-1,0.9-2.1,1.6-3.3,2
		c-0.9,0.3-1.7,0.3-2.5,0c-0.8-0.2-1.4-0.8-1.8-1.7c-0.4-1.2-0.4-2.4,0-3.7c0.4-1.3,0.9-2.5,1.3-3.5c0.3-0.6,0.5-1.2,0.8-1.9
		c0.3-0.7,0.6-1.3,0.9-2c-1,0.7-2.1,1.4-3.1,2.1c-1.1,0.7-2.1,1.4-3.1,2.1l-4.7,2.6c-0.3,0.1-0.5,0.2-0.7,0.3s-0.5,0.1-0.7-0.1
		c-0.3-0.2-0.4-0.5-0.4-0.8C267,191.3,267.1,191.1,267.5,190.9z M291.9,171.9c0.8-1,1.6-2,2.4-3s1.4-2.2,1.8-3.4
		c-0.4,0.3-0.8,0.6-1.2,1c-0.4,0.4-0.8,0.7-1.1,1c-0.9,0.9-1.7,1.8-2.5,2.7s-1.5,1.9-2.3,2.8c-0.8,1-1.5,2-2.1,3.1
		c-0.6,1-1.3,2.1-1.9,3.1c1.2-1.1,2.3-2.3,3.5-3.5C289.7,174.3,290.8,173.1,291.9,171.9z"/>
	<path class="st1" d="M295.8,190.9c0.9-0.5,1.9-1,2.9-1.5c1-0.6,2-1,3-1.5c0.7-1.2,1.6-2.1,2.8-2.9c1.2-0.7,2.5-1.2,3.9-1.5
		c0.7-0.1,1.5-0.1,2.5,0c0.9,0.1,1.7,0.5,2.2,1.1c0.4,0.4,0.4,0.8,0.3,1.3c-0.2,0.5-0.5,0.9-0.9,1.3c-0.4,0.4-0.9,0.8-1.4,1.1
		c-0.5,0.3-0.9,0.6-1.2,0.7c-0.9,0.6-1.9,1-3,1.3c-1.1,0.3-2.2,0.4-3.3,0.3h-0.3c0.2,1.1,0.7,2,1.4,2.6c0.7,0.6,1.6,1.1,2.5,1.3
		c1,0.3,2,0.4,3,0.3s2-0.2,2.9-0.3c1.2-0.3,2.4-0.6,3.6-1s2.3-0.8,3.4-1.3c0.5-0.3,1-0.5,1.6-0.7c0.5-0.2,1-0.5,1.5-0.7
		c0.4-0.1,0.7,0,1.1,0.2c0.4,0.2,0.4,0.5,0.1,1c-0.3,0.4-0.6,0.7-1.1,0.8c-0.5,0.2-0.9,0.3-1.2,0.5l-3.8,1.7
		c-2.3,0.9-4.7,1.7-6.9,2.3c-1,0.2-2,0.3-3.1,0.2c-1-0.1-2-0.3-2.9-0.7s-1.7-0.9-2.4-1.6c-0.7-0.7-1.2-1.6-1.5-2.7
		c-0.1-0.4-0.2-0.8-0.3-1.2c-0.1-0.4-0.1-0.8,0-1.1c-0.6,0.3-1.1,0.5-1.6,0.9s-1,0.6-1.4,0.9c-0.3,0.1-0.6,0.3-1,0.6
		c-0.4,0.3-0.8,0.3-1.2,0c-0.3-0.2-0.4-0.5-0.4-0.8C295.3,191.3,295.5,191,295.8,190.9z M303.5,188.8c1.2-0.1,2.4-0.4,3.5-0.9
		c1.1-0.6,2.1-1.3,3-2.1c-0.7-0.3-1.4-0.3-2.1-0.2s-1.3,0.3-1.9,0.6c-0.6,0.3-1.1,0.7-1.6,1.2C304.1,187.8,303.7,188.3,303.5,188.8z
		"/>
	<path class="st1" d="M345,191c0.6-0.3,1.4-0.7,2.3-1.2s1.9-1,3-1.4c1.1-0.5,2.1-0.9,3.1-1.3s1.8-0.7,2.5-1c0.4-0.2,1-0.4,1.9-0.7
		c0.9-0.3,1.9-0.6,2.9-0.8c1-0.3,2-0.4,2.9-0.5s1.5,0,1.9,0.2c0.6,0.6,0.7,1.1,0.3,1.5c-0.4,0.5-0.9,0.7-1.4,0.8L361,187
		c-0.7,0.2-1.3,0.4-1.8,0.7c-0.5,0.3-1,0.6-1.6,1c-0.3,0.2-0.7,0.6-1.3,1.3c-0.6,0.6-1.3,1.3-1.9,2.1c-0.6,0.8-1.1,1.4-1.4,2.1
		c-0.4,0.7-0.4,1.2,0,1.5c0.3,0.3,0.8,0.3,1.5,0.2c0.7-0.2,1.4-0.4,2.1-0.7c0.7-0.3,1.4-0.6,2-1c0.6-0.3,1-0.6,1.2-0.7
		c1.5-0.9,2.7-1.9,3.6-2.9c0.5-0.5,1-0.6,1.5-0.2c0.5,0.4,0.7,0.9,0.5,1.6c-0.1,0.4-0.3,0.7-0.5,0.9c-0.3,0.3-0.5,0.5-0.7,0.7
		c-0.2,0.2-0.4,0.5-0.6,1c-0.2,0.4-0.3,0.6-0.2,0.8c0.1,0.2,0.3,0.3,0.5,0.3c0.7,0.1,1.6,0.1,2.7-0.2c1.1-0.2,2.2-0.5,3.3-0.8
		c1.1-0.4,2.3-0.8,3.4-1.3s2.1-0.9,2.9-1.3c0.2-0.1,0.5-0.2,0.8-0.4c0.4-0.2,0.7-0.4,1.1-0.6s0.8-0.2,1.1-0.2c0.4,0,0.6,0.2,0.8,0.5
		c0.2,0.3,0.2,0.6,0,0.8c-0.2,0.3-0.5,0.5-1,0.6c-0.4,0.2-0.8,0.3-1.2,0.5c-0.4,0.2-0.7,0.3-0.9,0.4c-0.9,0.4-1.7,0.8-2.6,1.2
		s-1.8,0.8-2.7,1.2c-0.6,0.3-1.3,0.6-2,0.9c-0.7,0.4-1.4,0.7-2.2,0.9c-0.8,0.3-1.5,0.4-2.3,0.5s-1.5,0-2.2-0.2
		c-0.9-0.4-1.4-0.9-1.5-1.5c-0.2-0.6-0.1-1.3,0.1-2l-2.1,1.2c-0.9,0.5-1.8,1-2.7,1.6c-0.9,0.5-1.9,0.9-2.9,1c-0.9,0-1.7-0.2-2.4-0.6
		c-0.7-0.5-1.1-1.2-1.1-2.1c0-0.5,0.2-1.2,0.6-1.9c0.4-0.8,0.9-1.6,1.6-2.4c0.6-0.8,1.3-1.6,2.1-2.3c0.8-0.7,1.5-1.2,2.1-1.6
		c-0.4,0.1-0.9,0.3-1.7,0.7c-0.8,0.4-1.7,0.8-2.7,1.3s-2,1-3.1,1.6c-1.1,0.5-2.1,1-3,1.5c-0.3,0.2-0.5,0.2-0.8,0.1
		c-0.3-0.1-0.4-0.2-0.6-0.4c-0.1-0.2-0.2-0.4-0.2-0.6C344.6,191.4,344.7,191.2,345,191z"/>
	<path class="st1" d="M378.7,190.9c1-0.4,1.9-0.8,2.9-1.3c0.9-0.4,1.9-0.9,2.9-1.3s2-0.8,3.1-1.1c1.1-0.4,2-0.9,2.9-1.5
		c0.4-0.3,0.9-0.5,1.6-0.5s1.1,0.3,1.3,1c0.1,0.7-0.2,1.2-0.8,1.7c-0.6,0.5-1.2,0.9-1.6,1.3c-0.6,0.6-1.2,1.2-1.8,1.8
		s-1.2,1.3-1.7,2c-0.2,0.4-0.5,0.9-1,1.5c-0.4,0.6-0.7,1.2-0.8,1.8c1.9-0.1,3.8-0.7,5.7-1.8c1.9-1.1,3.5-2.4,4.8-3.9
		c0.2-0.4,0.3-0.7,0.6-1.1c0.2-0.4,0.5-0.8,0.8-1.2s0.6-0.7,1-1c0.4-0.3,0.7-0.4,1.1-0.4c0.6,0,1,0.3,1.3,0.8c0.2,0.6,0.1,1-0.3,1.4
		c-0.4,0.6-0.8,1.1-1.3,1.5s-1.1,0.9-1.6,1.4c-0.1,0.6-0.1,1.1-0.1,1.8c0,0.6,0.4,0.9,1,1c0.9,0.1,1.8-0.1,2.7-0.5
		c0.9-0.5,1.9-1.1,3.1-1.9c-0.3-1-0.2-2,0.3-3c0.4-0.8,1.1-1.6,1.9-2.4c0.9-0.8,1.8-1.2,2.9-1.1c0.4,0,0.7,0.1,1,0.4
		s0.5,0.5,0.6,0.8c0.1,0.3-0.1,0.7-0.5,1.3c-0.4,0.5-0.8,1.1-1.3,1.7c-0.5,0.6-1,1.1-1.5,1.6s-0.8,0.8-1,1c0.4,0.4,1,0.6,1.7,0.6
		s1.4,0,1.9-0.2c1.3-0.1,2.6-0.3,4-0.7c1.3-0.4,2.6-0.9,3.7-1.4c0.3-0.2,0.5-0.2,0.7-0.1c0.2,0.1,0.4,0.3,0.5,0.5
		c0.1,0.2,0.1,0.4,0.1,0.6s-0.2,0.4-0.4,0.6c-0.6,0.4-1.3,0.6-1.9,0.8c-0.7,0.2-1.4,0.4-2,0.6c-1.2,0.4-2.5,0.7-3.9,0.9
		c-1.3,0.2-2.7,0.2-4-0.1c-0.6,0-1.1-0.3-1.6-0.8c-1.1,1-2.2,1.9-3.3,2.6c-1.1,0.7-2.3,1.1-3.5,1c-1.1-0.1-1.9-0.5-2.2-1.4
		c-0.4-0.9-0.5-1.8-0.5-2.8l-1.7,1.2c-1.1,0.8-2.3,1.5-3.4,2.3c-1.1,0.8-2.4,1.4-3.8,1.8c-0.5,0.2-0.9,0.2-1.4,0.2s-1-0.1-1.4-0.3
		c-0.4-0.2-0.7-0.5-1-0.9c-0.2-0.4-0.3-0.9-0.1-1.6c0.3-0.8,0.6-1.6,1.2-2.3c0.6-0.7,1.1-1.4,1.6-2c0.4-0.5,0.9-1.1,1.4-1.7
		s1-1.2,1.4-1.8c-0.6,0.2-1.2,0.4-1.9,0.6c-0.7,0.2-1.2,0.5-1.8,0.7c-0.9,0.4-1.7,0.8-2.5,1.2s-1.6,0.8-2.4,1.3
		c-0.3,0.1-0.6,0.2-1,0.3s-0.7,0-0.9-0.5C378,191.6,378.2,191.2,378.7,190.9z"/>
	<path class="st1" d="M418.3,190.9c0.9-0.5,1.9-1,2.9-1.5c1-0.6,2-1,3-1.5c0.7-1.2,1.6-2.1,2.8-2.9c1.2-0.7,2.5-1.2,3.9-1.5
		c0.7-0.1,1.5-0.1,2.5,0c0.9,0.1,1.7,0.5,2.2,1.1c0.4,0.4,0.4,0.8,0.3,1.3c-0.2,0.5-0.5,0.9-0.9,1.3c-0.4,0.4-0.9,0.8-1.4,1.1
		c-0.5,0.3-0.9,0.6-1.2,0.7c-0.9,0.6-1.9,1-3,1.3c-1.1,0.3-2.2,0.4-3.3,0.3h-0.3c0.2,1.1,0.7,2,1.4,2.6c0.7,0.6,1.6,1.1,2.5,1.3
		c1,0.3,2,0.4,3,0.3s2-0.2,2.9-0.3c1.2-0.3,2.4-0.6,3.6-1s2.3-0.8,3.4-1.3c0.5-0.3,1-0.5,1.6-0.7c0.5-0.2,1-0.5,1.5-0.7
		c0.4-0.1,0.7,0,1.1,0.2c0.4,0.2,0.4,0.5,0.1,1c-0.3,0.4-0.6,0.7-1.1,0.8s-0.9,0.3-1.2,0.5l-3.8,1.7c-2.3,0.9-4.7,1.7-6.9,2.3
		c-1,0.2-2,0.3-3.1,0.2c-1-0.1-2-0.3-2.9-0.7s-1.7-0.9-2.4-1.6c-0.7-0.7-1.2-1.6-1.5-2.7c-0.1-0.4-0.2-0.8-0.3-1.2
		c-0.1-0.4-0.1-0.8,0-1.1c-0.6,0.3-1.1,0.5-1.6,0.9c-0.5,0.3-1,0.6-1.4,0.9c-0.3,0.1-0.6,0.3-1,0.6c-0.4,0.3-0.8,0.3-1.2,0
		c-0.3-0.2-0.4-0.5-0.4-0.8C417.8,191.3,418,191,418.3,190.9z M426.1,188.8c1.2-0.1,2.4-0.4,3.5-0.9c1.1-0.6,2.1-1.3,3-2.1
		c-0.7-0.3-1.4-0.3-2.1-0.2s-1.3,0.3-1.9,0.6c-0.6,0.3-1.1,0.7-1.6,1.2C426.6,187.8,426.3,188.3,426.1,188.8z"/>
	<path class="st1" d="M445.1,191c0.4-0.2,1-0.6,1.9-1.1s2-1.1,3.1-1.6c1.1-0.6,2.3-1.1,3.5-1.6s2.2-0.8,3.1-0.8c0.3-0.1,0.6-0.1,1,0
		c0.3,0.1,0.6,0.3,0.7,0.5c0.3,0.5,0.3,0.9,0.1,1.2c-0.3,0.3-0.6,0.5-1,0.7c-0.4,0.2-0.9,0.4-1.3,0.5c-0.5,0.1-0.8,0.3-1,0.5
		c-0.3,0.3-0.2,0.6,0.2,0.8c0.4,0.3,0.9,0.5,1.4,0.6c0.6,0.2,1.1,0.3,1.7,0.4s0.9,0.2,1.1,0.3c1,0.6,1.6,1.2,1.8,1.8
		c0.2,0.6,0.1,1.3-0.3,1.9l2.1-1.1l6.1-3.2c0.4-0.2,0.7-0.2,1,0c0.3,0.2,0.4,0.5,0.4,0.9s-0.2,0.7-0.6,0.9c-0.4,0.2-0.8,0.3-1.2,0.5
		c-1.2,0.6-2.5,1.2-3.7,1.8s-2.5,1.3-3.7,1.9c-1.5,0.7-2.9,1.3-4.2,1.9c-1.3,0.6-2.7,0.8-4.2,0.8c-1,0-1.9-0.4-2.7-1.1
		c-0.8-0.7-1.2-1.5-1.2-2.4c-0.1-0.5,0-0.8,0.3-1.1c0.3-0.3,0.6-0.5,0.9-0.5c0.4-0.1,0.7,0,1,0.2c0.3,0.2,0.4,0.5,0.5,1
		c0.1,1,0.5,1.6,1.3,1.8c0.8,0.2,1.7,0.1,2.8-0.1c0.7-0.3,1.4-0.6,1.9-1c0.6-0.4,1-0.8,1.3-1.1c0.7-0.7,0.8-1.3,0.5-1.7
		s-0.8-0.7-1.6-1c-0.7-0.3-1.5-0.5-2.3-0.6c-0.8-0.2-1.4-0.4-1.7-0.6c-0.5-0.4-0.7-0.8-0.8-1.2c-0.1-0.4-0.1-0.8,0-1.2
		c-0.8,0.3-1.5,0.6-2.3,1c-0.7,0.3-1.4,0.6-2,0.9c-0.5,0.3-1,0.6-1.6,1.1s-1.2,0.7-1.7,0.7c-0.3,0.1-0.5,0-0.6-0.1
		c-0.2-0.1-0.3-0.3-0.3-0.5c0-0.2,0-0.4,0.1-0.6C444.7,191.3,444.9,191.1,445.1,191z"/>
	<path class="st1" d="M477.3,187.5c1-0.4,2.1-0.8,3.2-1.1c1.1-0.3,2.1-0.6,3.2-0.9c0.7-0.4,1.4-0.6,2.2-0.8c0.8-0.2,1.6-0.1,2.2,0.3
		c0.4,0.3,0.6,0.7,0.5,1.2c0.4,0,0.7,0.1,1.1,0.3c0.7,0.7,0.9,1.4,0.7,2.4c-0.2,0.9-0.6,1.8-1.1,2.7c0.2,0.3,0.5,0.5,0.9,0.8
		c0.8,0.5,1.7,0.7,2.7,0.7s1.9-0.2,2.7-0.5c0.3,0,0.6-0.2,1.1-0.5c0.5-0.3,1-0.5,1.6-0.7c0.5-0.2,1-0.4,1.5-0.5s0.8,0,0.9,0.3
		c0.2,0.4,0.2,0.8-0.1,1c-0.3,0.3-0.6,0.5-1,0.7c-0.4,0.2-0.9,0.3-1.3,0.5c-0.5,0.2-0.8,0.3-0.9,0.3c-0.8,0.3-1.6,0.5-2.4,0.6
		c-0.8,0.2-1.7,0.2-2.5,0.2s-1.6-0.1-2.4-0.3c-0.8-0.2-1.4-0.6-2-1.2l-1.7,1.8c-0.6,0.6-1.3,1.1-2.1,1.7c-0.8,0.6-1.6,1-2.4,1.4
		s-1.7,0.6-2.6,0.7c-0.9,0.1-1.8,0-2.6-0.4c-1-0.5-1.6-1.1-1.8-1.8c-0.2-0.7-0.1-1.5,0.2-2.3c0.3-0.8,0.7-1.6,1.3-2.4
		c0.6-0.8,1.1-1.4,1.6-1.9l1.5-1.5c-1.2,0.4-2.3,0.9-3.4,1.4s-2.2,1-3.4,1.6c-0.2,0.1-0.5,0.2-0.8,0.4c-0.3,0.2-0.6,0.3-0.9,0.5
		c-0.3,0.2-0.6,0.3-0.9,0.3c-0.3,0.1-0.5,0-0.7-0.1c-0.4-0.2-0.5-0.5-0.5-0.8c0.1-0.4,0.2-0.6,0.5-0.8L477.3,187.5z M479.9,190.2
		c-0.2,0.2-0.6,0.6-1.1,1.1c-0.5,0.6-1,1.1-1.4,1.8c-0.4,0.6-0.6,1.2-0.7,1.7s0.2,0.9,1,1c1.3,0.2,2.6,0.2,3.8-0.2
		c1.2-0.3,2.3-0.9,3.2-1.8c0.4-0.4,0.8-0.8,1.1-1.1c0.4-0.4,0.7-0.8,0.9-1.2c-0.3-0.7-0.4-1.4-0.4-2.1c0-0.8,0.2-1.4,0.6-2
		c-1.4,0.1-2.7,0.4-3.9,0.9C481.8,188.8,480.8,189.4,479.9,190.2z"/>
	<path class="st1" d="M499.1,191c1.2-0.7,2.3-1.3,3.5-1.8c1.2-0.6,2.3-1.1,3.5-1.7c0.4-0.2,0.9-0.4,1.5-0.7c0.6-0.3,1.3-0.6,2-1
		c0.7-0.3,1.4-0.5,2.1-0.7c0.7-0.2,1.2-0.1,1.6,0.1c0.5,0.3,0.7,0.7,0.6,1.1c0,0.4-0.2,0.8-0.5,1.3s-0.6,0.9-1,1.3
		c-0.4,0.4-0.6,0.7-0.8,1c-0.3,0.4-0.5,0.8-0.7,1.3s-0.5,0.9-0.7,1.4c1.2-0.9,2.2-1.7,3.1-2.4c0.9-0.7,1.7-1.3,2.4-1.8
		s1.4-0.9,2-1.3c0.6-0.4,1.3-0.7,1.9-0.9c0.8-0.3,1.5-0.3,2.2,0c0.7,0.3,1,0.9,0.8,1.9c-0.1,0.7-0.3,1.4-0.5,2
		c-0.3,0.6-0.6,1.3-0.9,1.9c1.1-0.7,2.2-1.3,3.4-2c1.1-0.7,2.3-1.4,3.4-2.1c1-0.6,2-1.2,3.1-1.9c1.1-0.7,2.2-1.1,3.4-1.2
		c0.8-0.1,1.4,0,1.8,0.3c0.5,0.3,0.8,0.7,0.9,1.1c0.2,0.5,0.2,1,0.1,1.6c-0.1,0.6-0.3,1.1-0.6,1.6c-0.7,1.1-1.3,2.1-2,3
		s-1.3,1.9-1.8,2.9c0.8,0.2,1.8,0.1,2.9-0.3c1.1-0.4,2-0.7,2.6-1c0.7-0.3,1.4-0.5,2-0.8c0.6-0.3,1.2-0.6,1.9-0.9
		c0.2-0.1,0.4-0.3,0.7-0.5c0.3-0.2,0.6-0.4,0.9-0.6c0.3-0.2,0.6-0.3,1-0.4c0.3-0.1,0.6-0.1,0.8,0c0.5,0.3,0.6,0.6,0.4,0.9
		c-0.3,0.4-0.6,0.7-1.2,1c-0.5,0.3-1.1,0.6-1.7,0.9c-0.6,0.3-1,0.4-1.2,0.5c-0.7,0.4-1.4,0.8-2.1,1.1c-0.7,0.3-1.4,0.6-2.1,0.9
		c-1,0.4-2,0.8-3.2,1.3s-2.3,0.5-3.3,0c-0.6-0.3-0.9-0.6-1.1-1c-0.2-0.4-0.2-0.8-0.1-1.3c0.1-0.4,0.3-0.9,0.5-1.3
		c0.3-0.5,0.6-0.8,0.9-1.1c0.3-0.4,0.7-0.7,1.1-1.1c0.4-0.4,0.8-0.8,1.2-1.3s0.7-0.9,0.9-1.4s0.3-1,0.2-1.6
		c-0.5-0.3-1.1-0.2-1.9,0.1c-0.7,0.3-1.3,0.6-1.7,0.8c-1.5,0.6-3,1.3-4.4,2.2s-2.8,1.8-4.1,2.7c-0.2,0.2-0.6,0.4-1.1,0.9
		c-0.5,0.4-1,0.8-1.6,1.2s-1.1,0.6-1.6,0.7s-0.9-0.1-1.1-0.7c-0.1-0.3-0.1-0.6,0.1-0.9c0.2-0.4,0.4-0.7,0.6-1.1
		c0.3-0.4,0.5-0.8,0.8-1.1c0.3-0.4,0.4-0.7,0.5-0.9c0.1-0.3,0.2-0.6,0.4-1.1s0.3-0.9,0.4-1.4c-1.2,0.4-2.3,0.8-3.3,1.4
		c-1,0.6-2,1.2-2.9,1.9c-0.9,0.7-1.9,1.4-2.8,2.2c-0.9,0.8-1.9,1.5-2.8,2.3c-0.3,0.3-0.6,0.5-0.9,0.6c-0.4,0.2-0.7,0.1-1.1-0.1
		c-0.5-0.2-0.7-0.4-0.8-0.7c-0.1-0.3,0-0.6,0.2-0.8c0.2-0.3,0.4-0.5,0.6-0.8c0.3-0.3,0.5-0.5,0.6-0.6c1.4-1.8,2.6-3.9,3.4-6.1
		c-1.1,0.3-2.2,0.6-3.2,1s-2,0.9-3,1.3c-0.7,0.4-1.4,0.7-2.1,1c-0.7,0.3-1.4,0.7-2.1,1.2c-0.3,0.2-0.5,0.2-0.8,0.1
		c-0.3-0.1-0.4-0.2-0.5-0.4c-0.1-0.2-0.1-0.4-0.1-0.6C498.6,191.4,498.8,191.2,499.1,191z"/>
	<path class="st1" d="M544.9,190.9c0.9-0.5,1.9-1,2.9-1.5c1-0.6,2-1,3-1.5c0.7-1.2,1.6-2.1,2.8-2.9c1.2-0.7,2.5-1.2,3.9-1.5
		c0.7-0.1,1.5-0.1,2.5,0c0.9,0.1,1.7,0.5,2.2,1.1c0.4,0.4,0.4,0.8,0.3,1.3c-0.2,0.5-0.5,0.9-0.9,1.3c-0.4,0.4-0.9,0.8-1.4,1.1
		c-0.5,0.3-0.9,0.6-1.2,0.7c-0.9,0.6-1.9,1-3,1.3c-1.1,0.3-2.2,0.4-3.3,0.3h-0.3c0.2,1.1,0.7,2,1.4,2.6s1.6,1.1,2.5,1.3
		c1,0.3,2,0.4,3,0.3s2-0.2,2.9-0.3c1.2-0.3,2.4-0.6,3.6-1c1.2-0.4,2.3-0.8,3.4-1.3c0.5-0.3,1-0.5,1.6-0.7c0.5-0.2,1-0.5,1.5-0.7
		c0.4-0.1,0.7,0,1.1,0.2c0.4,0.2,0.4,0.5,0.1,1c-0.3,0.4-0.6,0.7-1.1,0.8s-0.9,0.3-1.2,0.5l-3.8,1.7c-2.3,0.9-4.7,1.7-6.9,2.3
		c-1,0.2-2,0.3-3.1,0.2c-1-0.1-2-0.3-2.9-0.7s-1.7-0.9-2.4-1.6c-0.7-0.7-1.2-1.6-1.5-2.7c-0.1-0.4-0.2-0.8-0.3-1.2s-0.1-0.8,0-1.1
		c-0.6,0.3-1.1,0.5-1.6,0.9c-0.5,0.3-1,0.6-1.4,0.9c-0.3,0.1-0.6,0.3-1,0.6c-0.4,0.3-0.8,0.3-1.2,0c-0.3-0.2-0.4-0.5-0.4-0.8
		C544.4,191.3,544.6,191,544.9,190.9z M552.7,188.8c1.2-0.1,2.4-0.4,3.5-0.9c1.1-0.6,2.1-1.3,3-2.1c-0.7-0.3-1.4-0.3-2.1-0.2
		c-0.7,0.1-1.3,0.3-1.9,0.6c-0.6,0.3-1.1,0.7-1.6,1.2C553.2,187.8,552.9,188.3,552.7,188.8z"/>
</g>
<g class="st0">
	<path class="st1" d="M194,119.1c3.8,0.3,6.4,3.2,8.9,4.6c2.1,1.2,4.4,1.8,4.7,4.6c0.4,2.2-1.2,5.1-1.9,6.6
		c-0.4,0.9-1.1,1.8-1.5,2.7c-0.5,1.1-1,2-1.5,2.8c-1.4,2.1-4.4,4-6.9,4.2c-1.1,0.1-2.3-0.4-3.1-0.2c-1.2,0.4-1.6,2.7-2.1,4
		c-0.5,1.5-1.3,3-1.3,4.7c0.1,2.1,1.7,4.9,3.2,5.3c1.3,0.3,2.7-0.6,3.5-1c2.9-1.5,5.2-4,7.5-6.1c2.3-2.2,3.3-3,5.5-5.6
		c2.1-2.7,4.4-2.1,2.9,1.7c-1.2,3.8-4.6,6-6.8,8.9c-1.1,1.4-2.7,2.7-4.4,3.8c-3,1.8-6.4,3.8-10.9,2.1c-2.6-1-5.6-2.9-7.4-5.2
		c-1.1-1.3-1.9-3-2.8-4.6c-0.8-1.6-1.5-3.4-1.9-5.3c-0.6-4.2,0.4-8.5,1.7-12.4c1.9-5.5,5.2-8.9,8.9-12.5c1.1-1.1,3-3,4.3-3.1
		C192.8,119.1,193.6,119.1,194,119.1z M197.8,134.9c-0.6,0.8-1.2,1.5-1.9,2.3c-0.6,0.7-1.7,1.7-1.6,2.4c0.2,1,1.7,0.7,2.6,0.4
		c2.8-1,3.7-3.1,4.9-5.7c0.8-1.6,1.9-4,0.8-5.6c-0.9,0-1.4,0.5-1.9,1C199.7,131.1,199.3,132.7,197.8,134.9z"/>
	<path class="st1" d="M236.2,100.3c0,8.7-5.6,13.1-6.4,16c-0.8,2.9-0.9,7.1-1.6,9.9c-1.8,7.1-3.4,14.9-3.4,23.8
		c0,3.1,0.3,5.9,1.9,5.9c2.9,0,8.7-5.5,11.4-10.3c1.3-2.3,2.7-5.2,4.3-5.3c1.4-0.1,2.3,0.4,2.3,1.5c0,4.9-10.7,15.8-14.2,18.3
		c-1.7,1.3-4.2,1.9-6.8,1.9c-9.2,0-13.9-5-13.9-13.9c0-8.8,3-18,4.6-26.7c1.9-9.9,4.9-17.6,9.3-24.8c1.5-2.9,2.6-4,5.6-4.3
		C233.2,92.4,236.2,96.1,236.2,100.3z"/>
	<path class="st1" d="M267.4,145.3c-0.6,1.2-1.3,2-1.8,2.8c-2.3,3.6-4.7,8-8,10.7c-2.4,2-5.5,3.9-9.8,3c-3-0.7-6.3-2.3-7.7-4.9
		c-1.4-2.4-1.9-6.3-1.3-10.1c0.3-1.8,0.6-3.2,1.1-4.8c0.4-1.7,0.7-3.3,1.2-4.7l2.9-9c0.4-1.7,1.3-4.7,2.1-6.7
		c0.5-1.4,0.4-2.3,2.1-2.6c3.1-0.5,5.6,1.5,6.8,3.4c1.3,2,3.4,4.5,3,7.6c-0.4,4.3-2.3,9.2-2.9,13.7c-0.2,1.1-2.1,9.3-0.4,10.1
		c2.3,1.2,5.9-6,7.7-8.7c0.9-1.3,2.5-4.4,4.2-4.5C269.3,140.4,268.2,143.7,267.4,145.3z M249.3,107.6c-0.1-1.3,0.4-2.7,0.6-3.8
		c0.4-1.7,1-3,3-3.2c1.6-0.2,3.8,0.3,5,1.7c1.1,1.3,2.2,4.2,2.1,6.8c-0.1,1.7-0.6,3.9-1.9,4.5c-1.9,0.7-3.6-0.5-5-1.3
		C251.3,111.2,249.4,110,249.3,107.6z"/>
	<path class="st1" d="M283.6,119.6c5.8,0,8.4,2.8,8.4,8.2c0,2.1-2.2,5.4-3,7.5c-1.3,4-6.6,15.1-6.6,18.4c0,4.3,8.6,1.3,10.2,1.4
		c2.1,0.3,3,0.2,3,1.5c0,4.7-5.9,3.6-13.4,4.2c-4.5,0.4-9.1,2.1-12.2,0.6c-2.8-1.3-3.3-1.3-3.3-5.6c0-6,2.1-11,4.7-15.1
		c2-3,3.8-8.3,6-11.5c0.4-0.4,1.4-2.3,1.4-3.2c0-2.1-5.1-1.3-5.9-1c-1.5,0.7-2.9,1.2-4.7,1.2c-1,0-1.8-0.8-1.8-1.9
		c0-1.4,3.9-2.7,4.9-3c4.4-1,8.1-1.5,11.6-1.8h0.7V119.6z"/>
	<path class="st1" d="M330.9,165.2c-1.1,0.5-2.7,0.9-4.3,0.9c-4.7,0-8.7-3.1-10.4-7.2c-0.5-1.2-0.9-3.3-1.8-3.3
		c-2.5,0-4.5,4.5-9.3,4.5c-2.3,0-6.6-1.6-7.8-3.9c-0.6-1.6-0.7-4.8-0.7-7c0-8.1,4.1-18.9,8-23c2.1-2.1,3.6-3.7,7.3-4.3
		c5.2-2.2,8.9,1.5,10.9,1.5c2.7,0,0.1-5.2,5.5-5.2c4.2,0,5.1,4.6,5.1,8.6c0,9.9-2.8,16.5-5.5,25.2c-0.7,2-2.3,8.5,1,8.5
		c3.8,0,5.1-4.1,7.6-7.4c1.1-1.4,4.2-5.7,5.1-2.3C342.7,155,335.2,162.9,330.9,165.2z M301.2,149.2c0,4.1,1.6,5.5,5.3,5.5
		c3.5,0,7.9-5.2,9.3-8.5c1.4-3.6,1.6-4.6,3.3-8.9c0.4-1.1,1.3-5.2,1.3-6.5c0-3-4-4.6-6.4-3.8c-2.1,0.6-5.5,3-7.1,5.4
		C303.4,137.6,301.2,143.2,301.2,149.2z"/>
	<path class="st1" d="M368.2,125.9c1.3,0.9,2.1,2.3,2.1,4.2c0,1.3,0.4,2.1,0.3,3.5c-0.4,6.5-1.9,12.1-4.1,17
		c-1.3,2.9-3.7,6.6-5.5,8.8c-1.1,1.1-4.7,2.7-6.2,3.1c-3,1-6.2-0.3-7.8-2.2c-0.6-0.7-0.9-2.3-1.8-2.4c-0.7-0.1-1.2,0.9-1.8,1.5
		c-0.4,0.4-1.3,1.1-2.1,1.1c-2.3,0.1-3.4-4.2-3.8-6.7c-0.7-3.3-0.4-6.7,0.1-9.6c0.5-3.1,1.2-6.1,1.8-8.9c1.1-6,2.3-11.5,3.6-17.7
		c0.5-2.7,1.4-5.7,2.1-8.5c0.8-4.1,1.9-8.6,3.3-12.6c0.8-2.2,0.5-4.5,3-4.8c2.6-0.4,4.5,1.5,5.4,3.2c1.3,2.2,2,5.6,1.9,9
		c0,3.2-0.9,6.3-1.5,9.3c-0.3,1.4-0.7,3-1,4.4c-0.6,4.7-0.5,3.8-1.4,8.3C357.5,124.1,363.1,122,368.2,125.9z M350.8,146.4
		c-0.4,1.7-2.3,4.8-2.2,7c0,1.8,1.2,4.3,2.5,4.6c2,0.5,5.7-1.2,6.8-2.2c1.4-1.3,3.7-3.9,4.7-6.3c2-4.5,2.1-7.6,3.3-12.8
		c1.8-7.7-2.5-12-8.9-6.4C351.8,134.8,352.4,140.1,350.8,146.4z"/>
	<path class="st1" d="M388.4,119.1c3.8,0.3,6.4,3.2,8.9,4.6c2.1,1.2,4.4,1.8,4.7,4.6c0.4,2.2-1.2,5.1-1.9,6.6
		c-0.4,0.9-1.1,1.8-1.5,2.7c-0.5,1.1-1,2-1.5,2.8c-1.4,2.1-4.4,4-6.9,4.2c-1.1,0.1-2.3-0.4-3.1-0.2c-1.2,0.4-1.6,2.7-2.1,4
		c-0.5,1.5-1.3,3-1.3,4.7c0.1,2.1,1.7,4.9,3.2,5.3c1.3,0.3,2.7-0.6,3.5-1c2.9-1.5,5.2-4,7.5-6.1c2.3-2.2,3.3-3,5.5-5.6
		c2.1-2.7,4.4-2.1,2.9,1.7c-1.2,3.8-4.6,6-6.8,8.9c-1.1,1.4-2.7,2.7-4.4,3.8c-3,1.8-6.4,3.8-10.9,2.1c-2.6-1-5.6-2.9-7.4-5.2
		c-1.1-1.3-1.9-3-2.8-4.6c-0.8-1.6-1.5-3.4-1.9-5.3c-0.6-4.2,0.4-8.5,1.7-12.4c1.9-5.5,5.2-8.9,8.9-12.5c1.1-1.1,3-3,4.3-3.1
		C387.2,119.1,387.9,119.1,388.4,119.1z M392.2,134.9c-0.6,0.8-1.2,1.5-1.9,2.3c-0.6,0.7-1.7,1.7-1.6,2.4c0.2,1,1.7,0.7,2.6,0.4
		c2.8-1,3.7-3.1,4.9-5.7c0.8-1.6,1.9-4,0.8-5.6c-0.9,0-1.4,0.5-1.9,1C394.1,131.1,393.7,132.7,392.2,134.9z"/>
	<path class="st1" d="M426.6,117c-0.2,0.7-0.7,1.7-0.7,2.5c0,0.9,0.7,1.2,1.4,1.2c1.5,0,2.5-0.4,3.4-0.4c5.2,0,5.7,4.9,0.7,5.5
		c-1.8,0.2-5.5,0-6.9,0.9c-1.1,0.7-1.4,3.7-1.8,5.4c-0.4,2.1-1.2,3.9-1.4,5.6c-0.4,2.3-3.3,19.8-0.5,19.8c3.3,0,11.4-11.4,12.2-12.3
		c3.5-5.2,6.4-2.5,4,1.2c-4.2,6.3-11.4,16.3-19.5,16.3c-10.6,0-12.2-8.3-12.2-18.3c0-4.3,0.6-8.7,1.2-12.8c0.1-1,0.4-2.1,0.4-3
		c0-2.4-3.1-0.4-4.8-3.5c-1.3-1.6-0.7-3.7,1.6-3.7c1.2,0,1.3,0.5,2.4,0.5c2.6,0,2.3-2.8,3-5.2c1-3.2,2.6-13.7,5.5-15
		c5.9-3.5,13,4.9,13,10.3C427.6,113.5,427.2,114.9,426.6,117z"/>
	<path class="st1" d="M456.9,99.9c0.4,1.2,0.8,2.3,1,3.7c0.3,2.9-0.5,5.9-1,8.3c-0.6,3.9-1.8,6.9-2.6,11.4c-0.1,0.8-0.8,3.5-0.1,3.9
		c0.5,0.3,1.5-0.4,2.3-0.6c3.5-1.4,9.3-1.6,10.5,2.1c0.6,1.9-0.3,5.3-0.4,7.3c-0.2,1.2-0.1,2.2-0.3,3.3c-0.4,2.9-1.3,5.5-2.1,8.3
		c-0.7,2.9-1,5.9-1.5,8.9c-0.1,1-0.4,2.1-0.4,3c-0.1,1.8,0,4.9,1.1,4.7c2.8-0.8,7.1-7.2,8.6-10c0.8-1.4,2.6-6.1,4.6-4.7
		c1.1,0.7,1.2,2.1,0.6,3.3c-0.5,1.3-1.8,3.9-2.5,4.9c-3.9,4.9-5.7,10.1-11.4,10.9c-3.6,0.3-6.6-3.1-7.3-5.5c-0.9-3.1,0.1-7,0.9-10
		c1.6-5.5,2.6-9,4.2-14.9c0.4-1.2,0.6-2.3,0.7-4c0.1-1.1,0.3-3.3-0.9-3.7c-1.4-0.4-2.5,1.1-3.2,1.8c-0.7,0.7-2,1.7-2.7,2.6
		c-0.7,1.2-1.5,2.9-2.1,4.6c-0.5,1.5-1.4,3.3-1.9,4.8c-0.4,1.3-0.4,2.8-0.7,4.2c-0.2,1.4-0.5,2.7-0.7,4c-0.4,2.4-1.3,6.1-3,6.8
		c-1.6,0.6-4.7,0.9-7,0.4c-2.1-0.4-4.9-1.4-5.7-2.9c-0.9-1.9-0.1-6,0.4-8.6c1.5-8.2,3.5-16.1,5.5-23.6c1.3-4.8,2.7-9.7,4.4-15.1
		c0.7-2.4,1.5-4.8,2.1-7.5c0.7-3.3,0.9-7.3,4.4-7.5c0.1-0.1,0.1,0,0.2,0C454.5,94.2,455.9,97.1,456.9,99.9z"/>
</g>
<path id="XMLID_113_" class="st2" d="M659.4,183.7c0.9,1.3,3.3,1.9,5,2.5c1.2-0.7,4.4,0.6,5.6-0.9c3.3-0.8,6.2-2.3,9.9-2.2
	c-0.1-0.7-0.7-0.9-1.2-1.2c-5.7-2.9-12.1,0.5-16.9,1.8C660.9,183.6,660,183.2,659.4,183.7z M644.8,183.2c4.5,1.1,7.5-0.9,10.6-2.7
	c0.8,0.3,1.2-0.4,1.9-0.3c1.6-1.9,4.4-1.6,6.7-2.1c-0.7-0.4-1.5-1.4-2.3-1.4c-3.8,0-7.6,0.1-10.4,1.3c-2.9,1.2-5.8,4-9.3,4.6
	C642.4,183.5,643.8,183.3,644.8,183.2z M628.8,183.3c2.4-0.3,4.6-1.2,6.6-2.3c1.7-1,2.8-2.9,4.6-3.8c1.4-0.7,3.2-0.2,3.8-1.8
	c-1-0.6-2.5-1.7-3.5-1.6c-6.8,0.3-11.3,6-16.8,8.7C625.2,184.1,627.1,183.5,628.8,183.3z M675.3,189.8c0.6,1.1,1.9,2.2,3,2.6
	c0.5,0.2,1.1,0,1.5,0.2c0.4,0.2,0.7,0.6,1.1,0.7c1.5,0.4,3.4-0.6,5.1,0.7c2-0.3,3.8-1.1,6.3-0.5C688.9,188,680.1,189.6,675.3,189.8z
	 M606.7,185.3c3.6,1.5,7.1-0.9,9.5-3.4c2.9-1,4.2-4.2,6.8-5.5c1.5-0.7,3.4,0,4.4-1.7c-2.3-2-5-0.2-7.3,0.1c-0.7,0.1-1.3-0.1-1.9,0
	c-3.7,0.7-7.6,4.3-10,7.6C607.5,183.5,606.4,184.5,606.7,185.3z M663.9,189.4c-1.4-0.3-2.8,0-4.2-0.1c-3.4-0.4-6.7-1.1-10-1.4
	c-6.7-0.7-12.9-0.7-19-0.4c-3.1,0.1-6.2,0.2-9.2,0.5c-5.6,0.6-11.5,1.8-17.6,2.2s-12.9,1.6-18.7,0.4c-1.8-0.4-4.1-1.2-5-2
	c-1.3-1.3-0.6-3.5-2.1-4.9c-1-0.1-1.9-0.1-2.8,0c-1,3.2,0.5,5.4,2.6,6.8c1.6,1.1,4.7,2.5,7.5,3.1c4.9,1.1,9.1,0.3,13.3,0.1
	c4.9-0.2,9.8-0.9,14.3-1.3c3.6-0.3,7.6-1.1,11-1.1c0.8,0,1.6,0.2,2.5,0.2c1.3,0,2.7-0.4,4-0.4c1.4-0.1,2.9,0.2,4.3,0.1
	c2.7,0,5.5-0.6,8.2-0.8c4.1-0.3,8.4,0.1,12.8,0.3c1.5,0.1,3.2-0.1,4.4,0.2c0.8,0.2,1.5,0.7,2.3,0.9c1.3,0.4,2.8,0.2,4,0.5
	c3,0.9,5.4,2.6,8.7,3.7c1.4,1.1,3.6,3.5,5.9,3c-0.6-1.2-1.9-2.1-3-3C674.8,193.5,669.3,190.6,663.9,189.4z M675.1,200.7
	c-0.2-0.1-0.4-0.1-0.6-0.2c-0.2-2.1-2.7-4.3-5.3-4.4c-0.1,0-0.2-0.1-0.3-0.1c0.4,2.6,1.7,4.9,3.9,6.6c0.7,2.1,3,3.3,5.4,4.5
	C677.9,204.8,675.9,203.1,675.1,200.7z M593.7,185.1c-0.2,0.7-1.4,0.4-1.2,1.2c2.1,1.7,4.9,0.3,6.5-0.7c3-1.8,5.8-5.3,8.4-7.2
	c1.1-0.4,2.5-0.2,2.8-1.6c-1.7-1.6-4-0.9-5.6-0.1c-4.8,0.5-8.6,2.9-11.5,7.3C593.1,184.4,593.4,184.7,593.7,185.1z M661.8,197.7
	c-1.9-1.6-3.2-4-6.5-4.3c0,3.3,3,7.1,6.6,7.4c-0.3,0.6,0.3,0.3,0.3,0.6c1.7,0.4,3.7,1.6,4.6,0.6
	C666.4,199.8,663.6,199.3,661.8,197.7z M652.2,199c-0.8-2.2-4.6-2.8-5.4-5c-2.6-1.1-4.8-1.6-6.8-1c0.2,0.1,0.3,0.2,0.2,0.4
	c-0.3,0.2-1-0.4-1.2,0.1c3.5,2.2,5,5.6,8.6,6.4c1.1,0.2,2.2-0.1,3.1,0.2c1.3,0.4,2.5,1.6,3.9,1C654.7,199.9,653.1,199.5,652.2,199z
	 M635.2,197.9c-2.4-1.1-4.5-2.8-6.7-3.5c-2.5-0.9-4.3-0.1-6.6,1c2.3,2.2,5.8,4.7,9.3,5.5c1.9-0.7,4.1,0.5,6.2,0.6
	c0.7,0,1.4-0.3,2.2-0.2c1,0,2.1,0.8,3,0.1C641.3,198.7,637.8,199.1,635.2,197.9z M623.2,201.9c-1.3-0.5-1.9-1.5-3.1-2.3
	c-0.9-0.6-2.1-1.1-3-1.6c-0.9-0.6-1.4-1.3-2.3-1.7c-2.7-1.2-5.1-0.8-7.9-0.1c3.1,2.7,6.2,5.5,10.9,7.4c0.3,0.1-0.1-0.5,0.4-0.3
	c0.4,0.1-0.3,0.6,0.3,0.6c3.3,0.8,6.3,1.4,9-0.4C626.7,201.9,624.8,202.6,623.2,201.9z M609.6,204.4c-2.8-3.5-9.8-9.3-15.4-7.1
	c3.2,4.5,10.5,7.3,17.1,8.6C611.6,205,610.5,204.4,609.6,204.4z"/>
</svg>
