<?xml version="1.0" encoding="utf-8"?>
<!-- Generator: Adobe Illustrator 19.0.0, SVG Export Plug-In . SVG Version: 6.00 Build 0)  -->
<!DOCTYPE svg PUBLIC "-//W3C//DTD SVG 1.1//EN" "http://www.w3.org/Graphics/SVG/1.1/DTD/svg11.dtd">
<svg version="1.1" id="Layer_1" xmlns="http://www.w3.org/2000/svg" xmlns:xlink="http://www.w3.org/1999/xlink" x="0px" y="0px"
	 viewBox="0 0 167 54.4" style="enable-background:new 0 0 167 54.4;" xml:space="preserve">
<style type="text/css">
	.st0{fill-rule:evenodd;clip-rule:evenodd;fill:#E8505E;}
	.st1{fill:#FFFFFF;}
	.st2{font-family:'Fonstyle';}
	.st3{font-size:47.558px;}
</style>
<path id="XMLID_113_" class="st0" d="M140.7,26c0.5,0.7,1.9,1.1,2.9,1.4c0.7-0.4,2.5,0.3,3.3-0.5c1.9-0.4,3.6-1.4,5.8-1.3
	c-0.1-0.4-0.4-0.6-0.7-0.7c-3.3-1.7-7.1,0.3-9.8,1C141.6,25.9,141,25.7,140.7,26z M132.2,25.7c2.6,0.6,4.4-0.5,6.2-1.6
	c0.5,0.2,0.7-0.2,1.1-0.2c0.9-1.1,2.5-0.9,3.9-1.2c-0.4-0.2-0.9-0.8-1.3-0.8c-2.2,0-4.4,0.1-6.1,0.8c-1.7,0.7-3.4,2.3-5.4,2.7
	C130.8,25.9,131.6,25.7,132.2,25.7z M122.8,25.7c1.4-0.2,2.7-0.7,3.8-1.3c1-0.6,1.6-1.7,2.7-2.2c0.8-0.4,1.8-0.1,2.2-1
	c-0.6-0.3-1.5-1-2-1c-4,0.2-6.6,3.5-9.8,5.1C120.7,26.2,121.9,25.9,122.8,25.7z M149.9,29.6c0.4,0.6,1.1,1.3,1.7,1.5
	c0.3,0.1,0.6,0,0.9,0.1c0.2,0.1,0.4,0.3,0.6,0.4c0.9,0.2,2-0.3,3,0.4c1.2-0.2,2.2-0.6,3.7-0.3C157.9,28.5,152.8,29.4,149.9,29.6z
	 M109.9,26.9c2.1,0.9,4.2-0.5,5.6-2c1.7-0.6,2.4-2.4,4-3.2c0.9-0.4,2,0,2.6-1c-1.3-1.2-2.9-0.1-4.3,0.1c-0.4,0-0.8-0.1-1.1,0
	c-2.1,0.4-4.4,2.5-5.8,4.4C110.4,25.9,109.8,26.4,109.9,26.9z M143.3,29.3c-0.8-0.2-1.6,0-2.4-0.1c-2-0.2-3.9-0.6-5.8-0.8
	c-3.9-0.4-7.5-0.4-11.1-0.2c-1.8,0.1-3.6,0.1-5.4,0.3c-3.3,0.3-6.7,1-10.3,1.3c-3.6,0.2-7.5,0.9-10.9,0.2c-1.1-0.2-2.4-0.7-2.9-1.2
	c-0.8-0.7-0.3-2.1-1.2-2.8c-0.6-0.1-1.1,0-1.6,0c-0.6,1.9,0.3,3.2,1.5,4c0.9,0.6,2.8,1.5,4.4,1.8c2.9,0.6,5.3,0.2,7.8,0.1
	c2.9-0.1,5.7-0.6,8.3-0.8c2.1-0.2,4.4-0.6,6.4-0.7c0.5,0,0.9,0.1,1.5,0.1c0.8,0,1.6-0.2,2.3-0.3c0.8,0,1.7,0.1,2.5,0.1
	c1.6,0,3.2-0.4,4.8-0.5c2.4-0.2,4.9,0,7.5,0.1c0.8,0,1.8,0,2.6,0.1c0.5,0.1,0.9,0.4,1.3,0.5c0.8,0.2,1.6,0.1,2.3,0.3
	c1.8,0.5,3.2,1.5,5.1,2.2c0.8,0.6,2.1,2,3.5,1.7c-0.4-0.7-1.1-1.2-1.8-1.7C149.7,31.7,146.4,30,143.3,29.3z M149.9,35.9
	c-0.1,0-0.2-0.1-0.3-0.1c-0.1-1.2-1.6-2.5-3.1-2.5c-0.1,0-0.1,0-0.2-0.1c0.2,1.5,1,2.8,2.3,3.9c0.4,1.2,1.7,2,3.2,2.7
	C151.5,38.3,150.3,37.3,149.9,35.9z M102.4,26.8c-0.1,0.4-0.8,0.2-0.7,0.7c1.2,1,2.8,0.2,3.8-0.4c1.8-1.1,3.4-3.1,4.9-4.2
	c0.7-0.2,1.5-0.1,1.6-1c-1-1-2.4-0.5-3.3-0.1c-2.8,0.3-5,1.7-6.7,4.2C102,26.4,102.2,26.6,102.4,26.8z M142.1,34.2
	c-1.1-0.9-1.8-2.4-3.8-2.5c0,1.9,1.7,4.2,3.8,4.3c-0.2,0.3,0.2,0.2,0.2,0.3c1,0.3,2.2,1,2.7,0.3C144.8,35.3,143.2,35.1,142.1,34.2z
	 M136.5,34.9c-0.5-1.3-2.7-1.7-3.2-2.9c-1.5-0.6-2.8-0.9-3.9-0.6c0.1,0,0.2,0.1,0.1,0.2c-0.2,0.1-0.6-0.2-0.7,0.1
	c2,1.3,2.9,3.3,5,3.8c0.6,0.1,1.3,0,1.8,0.1c0.8,0.3,1.5,0.9,2.3,0.6C137.9,35.4,137,35.2,136.5,34.9z M126.6,34.2
	c-1.4-0.7-2.7-1.6-3.9-2.1c-1.5-0.5-2.5-0.1-3.9,0.6c1.3,1.3,3.4,2.7,5.4,3.2c1.1-0.4,2.4,0.3,3.6,0.4c0.4,0,0.8-0.2,1.3-0.1
	c0.6,0,1.2,0.5,1.8,0C130.1,34.7,128.1,34.9,126.6,34.2z M119.6,36.6c-0.7-0.3-1.1-0.9-1.8-1.4c-0.6-0.4-1.2-0.6-1.7-1
	c-0.5-0.3-0.8-0.8-1.4-1c-1.6-0.7-3-0.5-4.6,0c1.8,1.6,3.6,3.2,6.4,4.3c0.2,0,0-0.3,0.3-0.2c0.2,0-0.2,0.4,0.2,0.3
	c1.9,0.5,3.7,0.8,5.2-0.2C121.6,36.6,120.5,37,119.6,36.6z M111.6,38.1c-1.7-2-5.7-5.4-9-4.1c1.9,2.6,6.1,4.3,10,5
	C112.8,38.4,112.2,38.1,111.6,38.1z"/>
<text id="XMLID_66_" transform="matrix(1 0 0 1 10.6792 44.2546)" class="st1 st2 st3">ECH</text>
</svg>
