<?xml version="1.0" encoding="utf-8"?>
<!-- Generator: Adobe Illustrator 19.0.0, SVG Export Plug-In . SVG Version: 6.00 Build 0)  -->
<!DOCTYPE svg PUBLIC "-//W3C//DTD SVG 1.1//EN" "http://www.w3.org/Graphics/SVG/1.1/DTD/svg11.dtd">
<svg version="1.1" id="Layer_1" xmlns="http://www.w3.org/2000/svg" xmlns:xlink="http://www.w3.org/1999/xlink" x="0px" y="0px"
	 viewBox="88 118.3 672 65.7" style="enable-background:new 88 118.3 672 65.7;" xml:space="preserve">
<style type="text/css">
	.st0{fill:#F7931E;}
	.st1{fill:#3793D0;}
	.st2{clip-path:url(#SVGID_2_);fill:#DC7927;}
	.st3{fill:#DC7927;}
	.st4{fill:#606872;}
	.st5{fill:#87929F;}
	.st6{fill:none;stroke:#A9B6C4;stroke-width:0.3;stroke-miterlimit:10;}
</style>
<path id="XMLID_182_" class="st0" d="M108.1,160.2c4.5,0,7-1.7,7.5-5l0.5-3.2c0.1-0.6,0.1-1.1,0.1-1.6c0-0.4,0-0.8,0-1.1
	c-0.2-1.5-1.6-2.3-4-2.3H106c-2.8,0-4.8-0.6-5.8-1.7c-0.9-1-1.4-2.2-1.4-3.5c0-0.3,0.1-1.2,0.2-2.5l0.5-3.1c0.6-3.5,1.8-5.8,3.8-6.9
	c1.6-0.9,3.7-1.4,6.2-1.4c1.9,0,4.1,0.1,6.8,0.4c2.7,0.3,4.3,0.5,4.9,0.6l-0.3,2.1l-11.2-0.4H109c-1.8,0-3.3,0.4-4.5,1.1
	c-1.1,0.7-1.9,2.3-2.2,4.6l-0.5,3.1c-0.2,1.3-0.2,2.2,0,2.7c0.2,0.5,0.3,0.8,0.4,1.1c0.1,0.3,0.3,0.5,0.6,0.6
	c0.3,0.2,0.5,0.3,0.8,0.4c0.2,0.1,0.5,0.1,0.9,0.2c0.6,0,1.3,0,2.2,0h6.1c1.4,0,2.6,0.2,3.6,0.7s1.6,1,2,1.8
	c0.6,1.1,0.8,2.1,0.8,3.1c0,0.9-0.1,1.7-0.2,2.3l-0.8,3c-0.3,2.3-1.1,4-2.3,5.1c-1.3,1.1-2.4,1.8-3.5,2c-1.7,0.3-3.2,0.5-4.7,0.5
	s-3.5-0.1-6-0.4c-2.5-0.2-4.3-0.4-5.3-0.6l0.3-2.1C98.9,160.1,102.7,160.2,108.1,160.2"/>
<polygon id="XMLID_181_" class="st0" points="125.9,130.9 126.3,128.2 150.6,128.2 150.2,130.9 139.3,130.9 134.2,162.6 
	131.6,162.6 136.5,130.9 "/>
<path id="XMLID_178_" class="st0" d="M143.1,162.6l18.2-34.4h2.8l6.7,34.4h-2.7l-2-10.3h-14.5l-5.5,10.3
	C146.1,162.6,143.1,162.6,143.1,162.6z M153,149.5h12.5l-3.3-17.7L153,149.5z"/>
<polygon id="XMLID_177_" class="st0" points="173.8,130.9 174.2,128.2 198.6,128.2 198.1,130.9 187.2,130.9 182.2,162.6 
	179.5,162.6 184.5,130.9 "/>
<polygon id="XMLID_176_" class="st1" points="215.8,163.5 223.9,128.2 229.8,128.2 234,156.1 246.7,128.2 252.8,128.2 250.1,163.5 
	245.7,163.5 248,136 235.4,163.5 230.6,163.5 226.5,136.1 220.2,163.5 "/>
<path id="XMLID_173_" class="st1" d="M274.1,128.2c3.5,0,6,1.1,7.5,3.2c1.5,2.1,2.4,4.5,2.6,7.2c0.1,0.8,0.1,1.6,0.1,2.2
	c0,1.8-0.2,3.6-0.5,5.4c-0.9,5.6-2.6,9.9-5,12.8c-2.4,3-5.8,4.4-10.1,4.4h-13.6l5.6-35.3C260.7,128.2,265.1,128.2,274.1,128.2
	 M269.1,159.1c1.8,0,3.5-0.6,5-1.9c2.7-2.3,4.5-6.1,5.4-11.3c0.3-2,0.5-3.9,0.5-5.7c0-5.2-2.2-7.8-6.7-7.8h-8.8l-4.2,26.8
	L269.1,159.1L269.1,159.1z"/>
<g id="XMLID_169_">
	<g id="XMLID_170_">
		<g>
			<defs>
				<rect id="SVGID_1_" x="194.9" y="141.8" width="14.6" height="14.6"/>
			</defs>
			<clipPath id="SVGID_2_">
				<use xlink:href="#SVGID_1_"  style="overflow:visible;"/>
			</clipPath>
			<path id="XMLID_172_" class="st2" d="M198.6,149.1c-3.6,0-3.6-3.6-3.6-3.6v-3.6c12.7,0,14.6,14.6,14.6,14.6h-7.3v-7.3
				L198.6,149.1L198.6,149.1z"/>
		</g>
	</g>
</g>
<polygon id="XMLID_168_" class="st3" points="202.2,156.3 202.2,156.3 202.2,149.1 "/>
<path id="XMLID_167_" class="st3" d="M209.5,156.3c0,0-1.8-14.6-14.6-14.6v3.6c0,0,0,1,0.5,2c0.5,0.9,1.4,1.7,3.1,1.7h3.6v7.3H209.5
	z"/>
<path id="XMLID_166_" class="st0" d="M217.4,141.8h-8v-7.3h-7.3v7.3h-7.3c12.7,0,14.6,14.6,14.6,14.6v-7.3h6.3L217.4,141.8z"/>
<path id="XMLID_165_" class="st4" d="M208.6,170.6c0,0.9-0.3,1.7-1,2.3c-0.6,0.6-1.4,1-2.3,1c-0.9,0-1.7-0.3-2.3-1
	c-0.6-0.6-1-1.4-1-2.3v-4c0-0.2,0.1-0.3,0.2-0.4c0.1-0.1,0.3-0.2,0.4-0.2c0.2,0,0.3,0.1,0.4,0.2c0.1,0.1,0.2,0.3,0.2,0.4v4
	c0,0.6,0.2,1,0.6,1.4c0.4,0.4,0.9,0.6,1.4,0.6s1-0.2,1.4-0.6s0.6-0.9,0.6-1.4v-4c0-0.2,0.1-0.3,0.2-0.4c0.1-0.1,0.3-0.2,0.4-0.2
	c0.2,0,0.3,0.1,0.4,0.2c0.1,0.1,0.2,0.3,0.2,0.4v4H208.6z"/>
<path id="XMLID_164_" class="st4" d="M212.3,168.9c0.2-0.2,0.4-0.4,0.7-0.5c0.3-0.1,0.6-0.2,0.8-0.2c0.3,0,0.4,0.1,0.6,0.2
	c0.1,0.1,0.2,0.3,0.2,0.4c0,0.2-0.1,0.3-0.2,0.4c-0.1,0.1-0.3,0.2-0.4,0.2c-0.7,0-1.3,0.6-1.7,1.7v2.2c0,0.2-0.1,0.3-0.2,0.4
	c-0.1,0.1-0.3,0.2-0.4,0.2c-0.2,0-0.3-0.1-0.4-0.2c-0.1-0.1-0.2-0.3-0.2-0.4v-4.5c0-0.2,0.1-0.3,0.2-0.4c0.1-0.1,0.3-0.2,0.4-0.2
	c0.2,0,0.3,0.1,0.4,0.2C212.3,168.5,212.3,168.7,212.3,168.9L212.3,168.9z"/>
<path id="XMLID_161_" class="st4" d="M216.5,173.1c-0.5-0.5-0.8-1.2-0.8-2c0-0.8,0.3-1.5,0.8-2c0.5-0.6,1.2-0.8,1.9-0.8
	c0.6,0,1.1,0.2,1.5,0.5c0-0.1,0.1-0.3,0.2-0.3c0.1-0.1,0.2-0.1,0.4-0.1s0.3,0.1,0.4,0.2c0.1,0.1,0.2,0.3,0.2,0.4v4.4
	c0,0.7-0.3,1.4-0.8,1.9s-1.2,0.8-1.9,0.8c-0.4,0-0.8-0.1-1.2-0.3c-0.2-0.1-0.3-0.2-0.3-0.3c-0.1-0.2,0-0.3,0-0.5
	c0.1-0.2,0.2-0.3,0.3-0.3c0.2-0.1,0.3,0,0.5,0c0.2,0.1,0.4,0.2,0.7,0.2s0.6-0.1,0.9-0.3c0.3-0.2,0.5-0.5,0.5-0.9
	c-0.4,0.3-0.9,0.5-1.5,0.5C217.7,174,217,173.7,216.5,173.1 M216.9,171.1c0,0.4,0.1,0.8,0.4,1.1c0.3,0.3,0.6,0.5,1.1,0.5
	c0.4,0,0.8-0.2,1.1-0.5s0.4-0.7,0.4-1.2s-0.1-0.9-0.4-1.2c-0.3-0.3-0.6-0.5-1.1-0.5c-0.4,0-0.8,0.2-1.1,0.5
	C217.1,170.3,216.9,170.7,216.9,171.1"/>
<path id="XMLID_158_" class="st4" d="M228.7,170.9c0,0.2-0.1,0.3-0.2,0.4c-0.1,0.1-0.3,0.2-0.4,0.2h-3.6c0.1,0.3,0.2,0.6,0.4,0.7
	c0.2,0.3,0.6,0.4,1.1,0.5c0.5,0.1,0.9,0,1.2-0.3c0.1-0.1,0.3-0.2,0.5-0.2s0.3,0,0.4,0.1c0.2,0.2,0.2,0.5,0,0.7
	c-0.5,0.5-1.2,0.7-2,0.7s-1.5-0.3-2-0.8c-0.5-0.6-0.8-1.2-0.8-2s0.3-1.4,0.8-2c0.5-0.6,1.2-0.8,1.9-0.8c0.8,0,1.4,0.2,1.9,0.7
	C228.3,169.5,228.6,170.1,228.7,170.9L228.7,170.9z M225.9,169.3c-0.4,0-0.8,0.2-1.1,0.4c-0.3,0.3-0.4,0.5-0.5,0.8h3.2
	c-0.1-0.3-0.3-0.5-0.6-0.8C226.8,169.5,226.4,169.4,225.9,169.3"/>
<path id="XMLID_157_" class="st4" d="M231.7,173.3c0,0.2-0.1,0.3-0.2,0.4c-0.1,0.1-0.3,0.2-0.4,0.2c-0.2,0-0.3-0.1-0.4-0.2
	c-0.1-0.1-0.2-0.3-0.2-0.4v-4.5c0-0.2,0.1-0.3,0.2-0.4c0.1-0.1,0.3-0.2,0.4-0.2c0.3,0,0.4,0.1,0.6,0.4c0.4-0.2,0.8-0.4,1.2-0.4
	c0.7,0,1.2,0.2,1.7,0.7s0.7,1,0.7,1.7v2.7c0,0.2-0.1,0.3-0.2,0.4c-0.1,0.1-0.3,0.2-0.4,0.2c-0.2,0-0.3-0.1-0.4-0.2
	c-0.1-0.1-0.2-0.3-0.2-0.4v-2.7c0-0.3-0.1-0.6-0.3-0.8s-0.5-0.3-0.8-0.3s-0.6,0.1-0.8,0.3s-0.3,0.5-0.3,0.8v2.7H231.7z"/>
<path id="XMLID_156_" class="st4" d="M239.3,168.3c0.2,0,0.3,0.1,0.4,0.2c0.1,0.1,0.2,0.3,0.2,0.4c0,0.2-0.1,0.3-0.2,0.4
	c-0.1,0.1-0.3,0.2-0.4,0.2H239v3.2c0.2,0,0.3,0.1,0.4,0.2c0.1,0.1,0.2,0.3,0.2,0.4c0,0.2-0.1,0.3-0.2,0.4c-0.1,0.1-0.3,0.2-0.4,0.2
	c-0.3,0-0.6-0.1-0.9-0.4c-0.2-0.2-0.4-0.5-0.4-0.9v-3.2h-0.3c-0.2,0-0.3-0.1-0.4-0.2c-0.1-0.1-0.2-0.3-0.2-0.4
	c0-0.2,0.1-0.3,0.2-0.4c0.1-0.1,0.3-0.2,0.4-0.2h0.3v-1.6c0-0.2,0.1-0.3,0.2-0.4c0.1-0.1,0.3-0.2,0.4-0.2c0.2,0,0.3,0.1,0.4,0.2
	c0.1,0.1,0.2,0.3,0.2,0.4v1.7H239.3z"/>
<path id="XMLID_155_" class="st4" d="M247.3,167.9c-0.6,0.6-0.8,1.2-0.8,2c0,0.8,0.3,1.4,0.8,2c0.6,0.5,1.2,0.8,2,0.8
	s1.4-0.2,1.9-0.6c0.1-0.1,0.3-0.1,0.5-0.1s0.3,0.1,0.4,0.2c0.1,0.1,0.1,0.3,0.1,0.5c0,0.2-0.1,0.3-0.2,0.4c-0.8,0.6-1.6,0.9-2.6,0.9
	c-1.1,0-2.1-0.4-2.9-1.2c-0.8-0.8-1.2-1.8-1.2-2.9c0-1.1,0.4-2.1,1.2-2.9c0.8-0.8,1.8-1.2,2.9-1.2c1,0,1.9,0.3,2.6,0.9
	c0.1,0.1,0.2,0.3,0.2,0.4c0,0.2,0,0.3-0.1,0.5c-0.1,0.1-0.3,0.2-0.4,0.2c-0.2,0-0.3,0-0.5-0.1c-0.5-0.4-1.1-0.6-1.9-0.6
	C248.5,167,247.8,167.3,247.3,167.9"/>
<path id="XMLID_152_" class="st4" d="M254.3,173.1c-0.5-0.6-0.8-1.2-0.8-2c0-0.8,0.3-1.5,0.8-2c0.5-0.6,1.2-0.8,1.9-0.8
	c0.5,0,1,0.2,1.5,0.5c0-0.1,0.1-0.3,0.2-0.4c0.1-0.1,0.2-0.1,0.4-0.1s0.3,0.1,0.4,0.2s0.2,0.3,0.2,0.4v4.4c0,0.2-0.1,0.3-0.2,0.4
	c-0.1,0.1-0.3,0.2-0.4,0.2c-0.2,0-0.3,0-0.4-0.1c-0.1-0.1-0.2-0.2-0.2-0.4c-0.5,0.3-1,0.5-1.5,0.5
	C255.5,173.9,254.8,173.6,254.3,173.1 M254.7,171.1c0,0.5,0.1,0.8,0.4,1.2c0.3,0.3,0.6,0.5,1.1,0.5c0.4,0,0.8-0.2,1.1-0.5
	c0.3-0.3,0.4-0.7,0.4-1.1c0-0.5-0.1-0.8-0.4-1.2c-0.3-0.3-0.6-0.5-1.1-0.5c-0.4,0-0.8,0.2-1.1,0.5
	C254.9,170.3,254.7,170.6,254.7,171.1"/>
<path id="XMLID_151_" class="st4" d="M262.4,168.9c0.2-0.2,0.4-0.4,0.7-0.5c0.3-0.1,0.6-0.2,0.8-0.2c0.3,0,0.4,0.1,0.6,0.2
	c0.1,0.1,0.2,0.3,0.2,0.4c0,0.2-0.1,0.3-0.2,0.4c-0.1,0.1-0.3,0.2-0.4,0.2c-0.7,0-1.3,0.6-1.7,1.7v2.2c0,0.2-0.1,0.3-0.2,0.4
	c-0.1,0.1-0.3,0.2-0.4,0.2c-0.2,0-0.3-0.1-0.4-0.2c-0.1-0.1-0.2-0.3-0.2-0.4v-4.5c0-0.2,0.1-0.3,0.2-0.4c0.1-0.1,0.3-0.2,0.4-0.2
	c0.2,0,0.3,0.1,0.4,0.2C262.3,168.5,262.4,168.7,262.4,168.9L262.4,168.9z"/>
<path id="XMLID_148_" class="st4" d="M271.2,170.9c0,0.2-0.1,0.3-0.2,0.4c-0.1,0.1-0.3,0.2-0.4,0.2H267c0.1,0.3,0.2,0.6,0.4,0.7
	c0.2,0.3,0.6,0.4,1.1,0.5c0.5,0.1,0.9,0,1.2-0.3c0.1-0.1,0.3-0.2,0.5-0.2c0.2,0,0.3,0,0.4,0.1c0.2,0.2,0.2,0.5,0,0.7
	c-0.5,0.5-1.2,0.7-2,0.7c-0.8,0-1.5-0.3-2-0.8c-0.5-0.6-0.8-1.2-0.8-2s0.3-1.4,0.8-2c0.5-0.6,1.2-0.8,1.9-0.8c0.8,0,1.4,0.2,1.9,0.7
	C270.9,169.5,271.2,170.1,271.2,170.9L271.2,170.9z M268.5,169.3c-0.4,0-0.8,0.2-1.1,0.4c-0.3,0.3-0.4,0.5-0.5,0.8h3.2
	c-0.1-0.3-0.3-0.5-0.6-0.8C269.3,169.5,268.9,169.4,268.5,169.3"/>
<path id="XMLID_147_" class="st5" d="M306.9,138.5c0.2,0,0.5,0,0.7,0c0.3,0,0.5,0,0.7,0c0.2,0,0.5,0,0.9,0s0.5,0,0.7,0l4.8,11.8
	l4.8-11.8c0.2,0,0.3,0,0.7,0s0.5,0,0.7,0c0.2,0,0.5,0,0.7,0c0.3,0,0.5,0,0.7,0l0.9,18.9c-0.2,0-0.3,0-0.7,0c-0.2,0-0.5,0-0.7,0
	s-0.5,0-0.7,0c-0.2,0-0.3,0-0.7,0l-0.7-14.7l-4.7,10.7c-0.3,0-0.7,0-1,0s-0.7,0-1,0l-4.5-10.9l-0.7,14.7c-0.2,0-0.3,0-0.5,0
	s-0.3,0-0.7,0c-0.2,0-0.5,0-0.7,0c-0.2,0-0.3,0-0.5,0L306.9,138.5z"/>
<path id="XMLID_144_" class="st5" d="M329.5,151.3c0,1.6,0.3,2.6,1.2,3.3c0.7,0.7,1.7,1,3.3,1c1.2,0,2.4-0.2,3.6-0.7
	c0.2,0.3,0.2,0.5,0.3,1c0,0.3,0.2,0.7,0.2,1c-0.5,0.2-1.2,0.3-1.9,0.5c-0.7,0.2-1.4,0.2-2.3,0.2c-1.2,0-2.3-0.2-3.1-0.5
	s-1.6-0.9-2.3-1.4c-0.5-0.7-1-1.4-1.2-2.3c-0.3-0.9-0.3-1.7-0.3-2.8c0-1,0.2-1.9,0.3-2.8c0.2-0.9,0.7-1.6,1.2-2.3
	c0.5-0.7,1.2-1.2,1.9-1.6c0.9-0.3,1.7-0.5,2.8-0.5c0.9,0,1.7,0.2,2.4,0.5c0.7,0.3,1.2,0.7,1.7,1.4c0.5,0.5,0.9,1.2,1,1.9
	c0.2,0.7,0.3,1.6,0.3,2.4c0,0.2,0,0.5,0,0.7c0,0.3,0,0.5,0,0.7C338.9,151.3,329.5,151.3,329.5,151.3z M336.3,149.3
	c0-0.5,0-1-0.2-1.4c-0.2-0.5-0.3-0.9-0.5-1.2c-0.2-0.3-0.5-0.5-1-0.9c-0.3-0.2-0.9-0.3-1.4-0.3c-1,0-1.9,0.3-2.4,1
	c-0.5,0.7-0.9,1.6-1,2.8H336.3z"/>
<path id="XMLID_141_" class="st5" d="M350.8,138.2c0.2,0,0.3,0,0.7,0c0.2,0,0.5,0,0.7,0c0.2,0,0.3,0,0.7,0c0.2,0,0.5,0,0.7,0v18.9
	c-0.7,0.2-1.4,0.3-2.3,0.5c-0.9,0.2-1.7,0.2-2.8,0.2c-0.9,0-1.9-0.2-2.8-0.3s-1.6-0.7-2.3-1.2s-1.2-1.2-1.6-2.1
	c-0.3-0.9-0.5-1.9-0.5-3.1c0-1,0.2-2.1,0.5-2.9c0.3-0.9,0.9-1.7,1.4-2.3c0.5-0.7,1.4-1.2,2.1-1.6c0.9-0.3,1.7-0.5,2.8-0.5
	c0.5,0,0.9,0,1.4,0.2c0.5,0,0.9,0.2,1.2,0.3L350.8,138.2L350.8,138.2z M350.8,146.2c-0.3-0.2-0.7-0.2-1.2-0.3
	c-0.3,0-0.9-0.2-1.4-0.2c-0.7,0-1.4,0.2-1.9,0.3c-0.5,0.3-1,0.7-1.4,1c-0.3,0.5-0.5,1-0.7,1.6c-0.2,0.7-0.2,1.4-0.2,2.1
	c0,1.7,0.3,2.8,1.2,3.6c0.7,0.7,1.9,1,3.1,1c0.5,0,0.9,0,1.2,0s0.7-0.2,1-0.2v-9H350.8z"/>
<path id="XMLID_138_" class="st5" d="M358.5,146h-1.7c0-0.2,0-0.3,0-0.5c0-0.2,0-0.3,0-0.5s0-0.3,0-0.5s0-0.3,0-0.5h4.3v13.5
	c-0.2,0-0.3,0-0.7,0c-0.2,0-0.5,0-0.7,0c-0.2,0-0.3,0-0.7,0c-0.2,0-0.5,0-0.7,0V146H358.5z M357.8,141c0-0.2,0-0.5,0-0.7
	s0-0.5,0-0.7s0-0.3,0-0.7c0-0.2,0-0.5,0-0.7c0.2,0,0.5,0,0.7,0c0.3,0,0.5,0,0.7,0s0.3,0,0.7,0s0.5,0,0.7,0c0,0.2,0,0.3,0,0.7
	c0,0.2,0,0.5,0,0.7s0,0.3,0,0.7c0,0.2,0,0.5,0,0.7c-0.2,0-0.5,0-0.7,0s-0.5,0-0.7,0c-0.2,0-0.5,0-0.7,0S358.1,141,357.8,141"/>
<path id="XMLID_137_" class="st5" d="M374.2,155c0.2,0.2,0.3,0.5,0.3,0.9c0.2,0.3,0.2,0.7,0.2,1.2c-1,0.3-2.3,0.5-3.6,0.5
	c-2.3,0-4-0.7-5-1.9c-1.2-1.2-1.7-2.9-1.7-5.2c0-1,0.2-1.9,0.3-2.8c0.3-0.9,0.7-1.6,1.2-2.3c0.5-0.7,1.2-1.2,2.1-1.6
	s1.7-0.5,2.9-0.5c0.7,0,1.4,0,1.9,0.2c0.5,0,1,0.2,1.6,0.3c0,0.3,0,0.7-0.2,1c0,0.3-0.2,0.7-0.3,1c-0.9-0.3-1.9-0.5-2.9-0.5
	c-1.4,0-2.4,0.5-2.9,1.4c-0.7,0.9-1,2.1-1,3.5c0,1.7,0.3,2.9,1.2,3.6c0.7,0.9,1.7,1.2,3.1,1.2c0.5,0,1,0,1.4-0.2
	C373.3,155.3,373.7,155.2,374.2,155"/>
<path id="XMLID_134_" class="st5" d="M384.9,148.6c0-1-0.3-1.7-0.9-2.1s-1.2-0.7-2.3-0.7c-0.7,0-1.2,0-1.7,0.2s-1,0.2-1.6,0.3
	c-0.3-0.5-0.5-1.2-0.5-2.1c0.5-0.2,1.2-0.3,1.9-0.5c0.7-0.2,1.4-0.2,2.1-0.2c1.7,0,3.1,0.3,4,1.2c0.9,0.9,1.4,2.1,1.4,3.8v8.5
	c-0.7,0.2-1.4,0.3-2.3,0.3c-0.9,0.2-1.7,0.2-2.6,0.2s-1.6,0-2.3-0.2c-0.7-0.2-1.2-0.3-1.7-0.7c-0.5-0.3-0.9-0.9-1-1.4
	c-0.3-0.5-0.3-1.2-0.3-1.9s0.2-1.4,0.5-1.9s0.7-1,1.2-1.4c0.5-0.3,1.2-0.7,1.7-0.9c0.7-0.2,1.4-0.3,2.1-0.3c0.5,0,1,0,1.4,0
	c0.3,0,0.7,0,0.9,0.2V148.6z M384.9,151c-0.3,0-0.5,0-1-0.2c-0.3,0-0.7,0-1,0c-1,0-1.9,0.2-2.4,0.5c-0.5,0.3-0.9,1-0.9,1.9
	c0,0.5,0.2,0.9,0.3,1.2s0.5,0.5,0.7,0.7c0.3,0.2,0.7,0.2,1,0.3c0.3,0,0.7,0,1,0c0.3,0,0.9,0,1.2,0c0.3,0,0.9-0.2,1.2-0.2V151H384.9z
	"/>
<path id="XMLID_133_" class="st5" d="M391.3,138.2c0.2,0,0.3,0,0.7,0c0.2,0,0.5,0,0.7,0c0.2,0,0.3,0,0.7,0c0.2,0,0.5,0,0.7,0v15.2
	c0,0.5,0,0.9,0.2,1.2c0.2,0.3,0.2,0.5,0.3,0.7c0.2,0.2,0.3,0.2,0.5,0.3c0.2,0,0.3,0,0.7,0c0.2,0,0.3,0,0.5,0c0.2,0,0.3,0,0.5,0
	c0.2,0.7,0.2,1.2,0.2,2.1c-0.2,0.2-0.5,0.2-0.9,0.2c-0.3,0-0.7,0-1,0c-0.5,0-1,0-1.4-0.2c-0.5-0.2-0.9-0.3-1.2-0.7
	c-0.3-0.3-0.5-0.7-0.9-1.2c-0.2-0.5-0.3-1-0.3-1.7L391.3,138.2L391.3,138.2z"/>
<path id="XMLID_132_" class="st5" d="M414.4,155c0.2,0.2,0.3,0.5,0.3,0.9c0.2,0.3,0.2,0.7,0.2,1.2c-1,0.3-2.3,0.5-3.6,0.5
	c-2.3,0-4-0.7-5-1.9c-1.2-1.2-1.7-2.9-1.7-5.2c0-1,0.2-1.9,0.3-2.8c0.3-0.9,0.7-1.6,1.2-2.3c0.5-0.7,1.2-1.2,2.1-1.6
	s1.7-0.5,2.9-0.5c0.7,0,1.4,0,1.9,0.2c0.5,0,1,0.2,1.6,0.3c0,0.3,0,0.7-0.2,1c0,0.3-0.2,0.7-0.3,1c-0.9-0.3-1.9-0.5-2.9-0.5
	c-1.4,0-2.4,0.5-2.9,1.4c-0.7,0.9-1,2.1-1,3.5c0,1.7,0.3,2.9,1.2,3.6c0.7,0.9,1.7,1.2,3.1,1.2c0.5,0,1,0,1.4-0.2
	C413.5,155.3,414,155.2,414.4,155"/>
<path id="XMLID_129_" class="st5" d="M425.1,148.6c0-1-0.3-1.7-0.9-2.1c-0.5-0.3-1.2-0.7-2.3-0.7c-0.7,0-1.2,0-1.7,0.2
	s-1,0.2-1.6,0.3c-0.3-0.5-0.5-1.2-0.5-2.1c0.5-0.2,1.2-0.3,1.9-0.5c0.7-0.2,1.4-0.2,2.1-0.2c1.7,0,3.1,0.3,4,1.2
	c0.9,0.9,1.4,2.1,1.4,3.8v8.5c-0.7,0.2-1.4,0.3-2.3,0.3c-0.9,0.2-1.7,0.2-2.6,0.2s-1.6,0-2.3-0.2c-0.7-0.2-1.2-0.3-1.7-0.7
	c-0.5-0.3-0.9-0.9-1-1.4c-0.3-0.5-0.3-1.2-0.3-1.9s0.2-1.4,0.5-1.9c0.3-0.5,0.7-1,1.2-1.4c0.5-0.3,1.2-0.7,1.7-0.9
	c0.7-0.2,1.4-0.3,2.1-0.3c0.5,0,1,0,1.4,0c0.3,0,0.7,0,0.9,0.2L425.1,148.6L425.1,148.6z M425.1,151c-0.3,0-0.5,0-1-0.2
	c-0.3,0-0.7,0-1,0c-1,0-1.9,0.2-2.4,0.5c-0.5,0.3-0.9,1-0.9,1.9c0,0.5,0.2,0.9,0.3,1.2s0.5,0.5,0.7,0.7c0.3,0.2,0.7,0.2,1,0.3
	c0.3,0,0.7,0,1,0c0.3,0,0.9,0,1.2,0s0.9-0.2,1.2-0.2V151H425.1z"/>
<path id="XMLID_128_" class="st5" d="M431.5,143.9c0.2,0,0.3,0,0.5,0c0.2,0,0.3,0,0.5,0c0.2,0,0.3,0,0.5,0c0.2,0,0.3,0,0.5,0
	c0,0.3,0.2,0.7,0.2,1s0,0.9,0,1c0.3-0.5,0.9-1,1.4-1.6c0.7-0.5,1.4-0.7,2.3-0.7c0.2,0,0.3,0,0.5,0c0.2,0,0.3,0,0.3,0
	c0,0.2,0,0.3,0,0.5s0,0.3,0,0.5s0,0.3,0,0.7c0,0.2,0,0.5-0.2,0.7c-0.2,0-0.3,0-0.3,0h-0.3c-0.5,0-0.9,0-1.4,0.2
	c-0.3,0.2-0.9,0.3-1.2,0.7c-0.3,0.3-0.7,0.9-0.9,1.4c-0.2,0.5-0.3,1.4-0.3,2.3v6.8c-0.2,0-0.3,0-0.7,0c-0.2,0-0.5,0-0.7,0
	s-0.3,0-0.7,0c-0.2,0-0.5,0-0.7,0v-13.5H431.5z"/>
<path id="XMLID_125_" class="st5" d="M442.9,151.3c0,1.6,0.3,2.6,1.2,3.3c0.7,0.7,1.7,1,3.3,1c1.2,0,2.4-0.2,3.6-0.7
	c0.2,0.3,0.2,0.5,0.3,1c0,0.3,0.2,0.7,0.2,1c-0.5,0.2-1.2,0.3-1.9,0.5c-0.7,0.2-1.4,0.2-2.3,0.2c-1.2,0-2.3-0.2-3.1-0.5
	s-1.6-0.9-2.3-1.4c-0.5-0.7-1-1.4-1.2-2.3c-0.3-0.9-0.3-1.7-0.3-2.8c0-1,0.2-1.9,0.3-2.8c0.2-0.9,0.7-1.6,1.2-2.3
	c0.5-0.7,1.2-1.2,1.9-1.6c0.9-0.3,1.7-0.5,2.8-0.5c0.9,0,1.7,0.2,2.4,0.5c0.7,0.3,1.2,0.7,1.7,1.4c0.5,0.5,0.9,1.2,1,1.9
	c0.2,0.7,0.3,1.6,0.3,2.4c0,0.2,0,0.5,0,0.7c0,0.3,0,0.5,0,0.7C452.3,151.3,442.9,151.3,442.9,151.3z M449.5,149.3
	c0-0.5,0-1-0.2-1.4c-0.2-0.5-0.3-0.9-0.5-1.2c-0.2-0.3-0.5-0.5-1-0.9c-0.3-0.2-0.9-0.3-1.4-0.3c-1,0-1.9,0.3-2.4,1
	c-0.5,0.7-0.9,1.6-1,2.8H449.5z"/>
<path id="XMLID_124_" class="st5" d="M462.3,146h-2.1l-0.2-0.3l4.5-5h0.2v3.3h3.5c0,0.3,0.2,0.7,0.2,1c0,0.2,0,0.3,0,0.5
	c0,0.2,0,0.3,0,0.5h-3.5v6.2c0,0.7,0,1.4,0.2,1.7c0,0.5,0.2,0.7,0.3,1c0.2,0.2,0.3,0.3,0.5,0.5c0.2,0,0.5,0.2,1,0.2
	c0.3,0,0.5,0,0.9,0c0.3,0,0.5-0.2,0.7-0.2c0.2,0.3,0.2,0.7,0.2,1s0,0.7,0,1c-0.3,0.2-0.7,0.2-1,0.2c-0.3,0-0.9,0-1.2,0
	c-1.2,0-2.3-0.3-2.9-0.9c-0.7-0.7-1-1.6-1-3.1V146H462.3z"/>
<path id="XMLID_123_" class="st5" d="M471.2,138.2c0.2,0,0.3,0,0.7,0c0.2,0,0.5,0,0.7,0s0.3,0,0.7,0c0.2,0,0.5,0,0.7,0v7.8
	c0.2-0.2,0.3-0.5,0.5-0.9c0.2-0.3,0.5-0.5,0.9-0.7s0.7-0.3,1.2-0.5c0.5-0.2,0.9-0.2,1.6-0.2c1.6,0,2.8,0.5,3.5,1.4
	c0.7,0.9,1,2.3,1,4v8.5c-0.2,0-0.3,0-0.7,0c-0.2,0-0.5,0-0.7,0s-0.3,0-0.7,0c-0.2,0-0.5,0-0.7,0v-7.8c0-1.2-0.2-2.1-0.7-2.8
	c-0.3-0.5-1-0.9-1.9-0.9c-0.5,0-0.9,0-1.4,0.2c-0.5,0.2-0.9,0.3-1.2,0.9c-0.3,0.3-0.5,0.9-0.9,1.4c-0.2,0.5-0.3,1.2-0.3,2.1v6.9
	c-0.2,0-0.3,0-0.7,0c-0.2,0-0.5,0-0.7,0s-0.3,0-0.7,0c-0.2,0-0.5,0-0.7,0v-19.4H471.2z"/>
<path id="XMLID_120_" class="st5" d="M488.3,151.3c0,1.6,0.3,2.6,1.2,3.3c0.7,0.7,1.7,1,3.3,1c1.2,0,2.4-0.2,3.6-0.7
	c0.2,0.3,0.2,0.5,0.3,1c0,0.3,0.2,0.7,0.2,1c-0.5,0.2-1.2,0.3-1.9,0.5c-0.7,0.2-1.4,0.2-2.3,0.2c-1.2,0-2.3-0.2-3.1-0.5
	s-1.6-0.9-2.3-1.4c-0.5-0.7-1-1.4-1.2-2.3c-0.3-0.9-0.3-1.7-0.3-2.8c0-1,0.2-1.9,0.3-2.8c0.2-0.9,0.7-1.6,1.2-2.3
	c0.5-0.7,1.2-1.2,1.9-1.6c0.9-0.3,1.7-0.5,2.8-0.5c0.9,0,1.7,0.2,2.4,0.5c0.7,0.3,1.2,0.7,1.7,1.4c0.5,0.5,0.9,1.2,1,1.9
	c0.2,0.7,0.3,1.6,0.3,2.4c0,0.2,0,0.5,0,0.7c0,0.3,0,0.5,0,0.7C497.6,151.3,488.3,151.3,488.3,151.3z M495,149.3c0-0.5,0-1-0.2-1.4
	c-0.2-0.5-0.3-0.9-0.5-1.2c-0.2-0.3-0.5-0.5-1-0.9c-0.3-0.2-0.9-0.3-1.4-0.3c-1,0-1.9,0.3-2.4,1s-0.9,1.6-1,2.8H495z"/>
<path id="XMLID_119_" class="st5" d="M507.3,143.9c0.2,0,0.3,0,0.5,0c0.2,0,0.3,0,0.5,0c0.2,0,0.3,0,0.5,0c0.2,0,0.3,0,0.5,0
	c0,0.3,0.2,0.7,0.2,1s0,0.9,0,1c0.3-0.5,0.9-1,1.4-1.6c0.7-0.5,1.4-0.7,2.3-0.7c0.2,0,0.3,0,0.5,0c0.2,0,0.3,0,0.3,0
	c0,0.2,0,0.3,0,0.5s0,0.3,0,0.5s0,0.3,0,0.7c0,0.2,0,0.5-0.2,0.7c-0.2,0-0.3,0-0.3,0h-0.3c-0.5,0-0.9,0-1.4,0.2
	c-0.3,0.2-0.9,0.3-1.2,0.7c-0.3,0.3-0.7,0.9-0.9,1.4s-0.3,1.4-0.3,2.3v6.8c-0.2,0-0.3,0-0.7,0c-0.2,0-0.5,0-0.7,0
	c-0.2,0-0.3,0-0.7,0c-0.2,0-0.5,0-0.7,0v-13.5H507.3z"/>
<path id="XMLID_116_" class="st5" d="M517.9,146h-1.7c0-0.2,0-0.3,0-0.5c0-0.2,0-0.3,0-0.5s0-0.3,0-0.5s0-0.3,0-0.5h4.3v13.5
	c-0.2,0-0.3,0-0.7,0c-0.2,0-0.5,0-0.7,0c-0.2,0-0.3,0-0.7,0c-0.2,0-0.5,0-0.7,0V146H517.9z M517.2,141c0-0.2,0-0.5,0-0.7
	s0-0.5,0-0.7s0-0.3,0-0.7c0-0.2,0-0.5,0-0.7c0.2,0,0.5,0,0.7,0c0.3,0,0.5,0,0.7,0c0.2,0,0.3,0,0.7,0s0.5,0,0.7,0c0,0.2,0,0.3,0,0.7
	c0,0.2,0,0.5,0,0.7s0,0.3,0,0.7c0,0.2,0,0.5,0,0.7c-0.2,0-0.5,0-0.7,0c-0.2,0-0.5,0-0.7,0c-0.2,0-0.5,0-0.7,0S517.6,141,517.2,141"
	/>
<path id="XMLID_112_" class="st5" d="M531.9,155.7c1.6,0,2.8,0.3,3.5,1c0.7,0.7,1,1.6,1,2.6c0,0.7-0.2,1.4-0.5,1.9
	c-0.3,0.5-0.9,1-1.6,1.6c-0.7,0.3-1.4,0.7-2.3,0.9c-0.9,0.2-1.9,0.3-2.9,0.3c-1.7,0-3.1-0.3-4.2-0.9c-0.9-0.5-1.4-1.4-1.4-2.6
	c0-0.7,0.2-1.4,0.5-1.9c0.3-0.5,0.9-1,1.6-1.4c-0.3-0.2-0.7-0.5-0.9-0.9s-0.3-0.7-0.3-1.2c0-0.7,0.2-1.2,0.5-1.7
	c0.3-0.5,0.7-0.9,1.2-1.2c-0.5-0.3-1-0.9-1.4-1.6c-0.3-0.7-0.5-1.4-0.5-2.3c0-0.7,0.2-1.2,0.3-1.9c0.2-0.5,0.5-1,1-1.6
	c0.5-0.3,1-0.7,1.7-1c0.7-0.2,1.4-0.3,2.4-0.3c0.9,0,1.6,0.2,2.1,0.3c0.7,0.2,1.2,0.5,1.6,0.9c0.3-0.3,0.9-0.5,1.4-0.7
	c0.5-0.2,1.2-0.3,1.9-0.3c0,0.3,0.2,0.7,0.2,1c0,0.2,0,0.3,0,0.5s0,0.3,0,0.7h-2.4c0.2,0.3,0.3,0.7,0.5,1c0.2,0.3,0.2,0.7,0.2,1.2
	c0,0.7-0.2,1.4-0.3,1.9c-0.3,0.5-0.7,1-1,1.6c-0.5,0.3-1,0.7-1.7,0.9c-0.7,0.2-1.4,0.3-2.3,0.3c-0.7,0-1.4,0-1.9-0.2
	c-0.2,0.2-0.5,0.3-0.7,0.7c-0.2,0.3-0.3,0.5-0.3,0.9s0.2,0.5,0.3,0.9c0.2,0.2,0.7,0.3,1.6,0.3L531.9,155.7z M528.3,157.8
	c-0.9,0-1.4,0.2-1.7,0.7c-0.3,0.5-0.5,1-0.5,1.6c0,0.3,0,0.7,0.2,0.9c0.2,0.2,0.3,0.5,0.7,0.5c0.3,0.2,0.7,0.2,1,0.3
	c0.3,0,0.9,0.2,1.4,0.2c1.4,0,2.4-0.2,3.3-0.7c0.9-0.5,1.2-1,1.2-1.7c0-0.5-0.2-0.9-0.5-1.2c-0.3-0.3-0.9-0.3-1.9-0.5H528.3z
	 M529.5,151.2c0.9,0,1.7-0.3,2.1-0.9c0.5-0.5,0.7-1.2,0.7-2.1c0-0.9-0.2-1.6-0.7-2.1s-1.2-0.9-2.1-0.9c-0.9,0-1.6,0.3-2.1,0.9
	c-0.5,0.5-0.7,1.2-0.7,2.1c0,0.9,0.2,1.6,0.7,2.1C527.9,150.8,528.6,151.2,529.5,151.2"/>
<path id="XMLID_111_" class="st5" d="M539.2,138.2c0.2,0,0.3,0,0.7,0c0.2,0,0.5,0,0.7,0c0.2,0,0.3,0,0.7,0c0.2,0,0.5,0,0.7,0v7.8
	c0.2-0.2,0.3-0.5,0.5-0.9s0.5-0.5,0.9-0.7s0.7-0.3,1.2-0.5c0.5-0.2,0.9-0.2,1.6-0.2c1.6,0,2.8,0.5,3.5,1.4c0.7,0.9,1,2.3,1,4v8.5
	c-0.2,0-0.3,0-0.7,0c-0.2,0-0.5,0-0.7,0s-0.3,0-0.7,0c-0.2,0-0.5,0-0.7,0v-7.8c0-1.2-0.2-2.1-0.7-2.8c-0.3-0.5-1-0.9-1.9-0.9
	c-0.5,0-0.9,0-1.4,0.2s-0.9,0.3-1.2,0.9c-0.3,0.3-0.5,0.9-0.9,1.4c-0.2,0.5-0.3,1.2-0.3,2.1v6.9c-0.2,0-0.3,0-0.7,0
	c-0.2,0-0.5,0-0.7,0s-0.3,0-0.7,0c-0.2,0-0.5,0-0.7,0v-19.4H539.2z"/>
<path id="XMLID_110_" class="st5" d="M554.8,146h-2.1l-0.2-0.3l4.5-5h0.2v3.3h3.5c0,0.3,0.2,0.7,0.2,1c0,0.2,0,0.3,0,0.5
	c0,0.2,0,0.3,0,0.5h-3.5v6.2c0,0.7,0,1.4,0.2,1.7c0,0.5,0.2,0.7,0.3,1c0.2,0.2,0.3,0.3,0.5,0.5c0.2,0,0.5,0.2,1,0.2
	c0.3,0,0.5,0,0.9,0c0.3,0,0.5-0.2,0.7-0.2c0.2,0.3,0.2,0.7,0.2,1s0,0.7,0,1c-0.3,0.2-0.7,0.2-1,0.2s-0.9,0-1.2,0
	c-1.2,0-2.3-0.3-2.9-0.9c-0.7-0.7-1-1.6-1-3.1V146H554.8z"/>
<path id="XMLID_109_" class="st5" d="M568.5,143.9c0.2,0,0.5,0,0.7,0c0.2,0,0.5,0,0.7,0s0.5,0,0.7,0c0.2,0,0.5,0,0.7,0l2.6,11.1
	l2.9-11.1c0.2,0,0.3,0,0.7,0c0.2,0,0.5,0,0.7,0c0.3,0,0.5,0,0.7,0c0.2,0,0.3,0,0.5,0l2.9,10.9l2.6-10.9c0.2,0,0.3,0,0.5,0
	c0.2,0,0.3,0,0.7,0c0.2,0,0.3,0,0.7,0c0.2,0,0.5,0,0.7,0l-4,13.5c-0.2,0-0.5,0-0.7,0c-0.2,0-0.5,0-0.7,0c-0.2,0-0.3,0-0.7,0
	c-0.2,0-0.5,0-0.7,0l-2.9-10.2l-2.9,10.2c-0.2,0-0.5,0-0.7,0c-0.2,0-0.5,0-0.7,0c-0.2,0-0.3,0-0.7,0c-0.2,0-0.5,0-0.7,0L568.5,143.9
	z"/>
<path id="XMLID_106_" class="st5" d="M597.5,148.6c0-1-0.3-1.7-0.9-2.1s-1.2-0.7-2.3-0.7c-0.7,0-1.2,0-1.7,0.2s-1,0.2-1.6,0.3
	c-0.3-0.5-0.5-1.2-0.5-2.1c0.5-0.2,1.2-0.3,1.9-0.5s1.4-0.2,2.1-0.2c1.7,0,3.1,0.3,4,1.2c0.9,0.9,1.4,2.1,1.4,3.8v8.5
	c-0.7,0.2-1.4,0.3-2.3,0.3c-0.9,0.2-1.7,0.2-2.6,0.2s-1.6,0-2.3-0.2s-1.2-0.3-1.7-0.7c-0.5-0.3-0.9-0.9-1-1.4
	c-0.3-0.5-0.3-1.2-0.3-1.9s0.2-1.4,0.5-1.9c0.3-0.5,0.7-1,1.2-1.4c0.5-0.3,1.2-0.7,1.7-0.9c0.7-0.2,1.4-0.3,2.1-0.3c0.5,0,1,0,1.4,0
	c0.3,0,0.7,0,0.9,0.2L597.5,148.6L597.5,148.6z M597.5,151c-0.3,0-0.5,0-1-0.2c-0.3,0-0.7,0-1,0c-1,0-1.9,0.2-2.4,0.5
	c-0.5,0.3-0.9,1-0.9,1.9c0,0.5,0.2,0.9,0.3,1.2s0.5,0.5,0.7,0.7c0.3,0.2,0.7,0.2,1,0.3c0.3,0,0.7,0,1,0c0.3,0,0.9,0,1.2,0
	c0.3,0,0.9-0.2,1.2-0.2V151H597.5z"/>
<path id="XMLID_105_" class="st5" d="M608.6,157.4c-0.2,0-0.3,0-0.5,0c-0.2,0-0.3,0-0.3,0c-0.2,0-0.3,0-0.5,0c-0.2,0-0.3,0-0.5,0
	l-4.5-13.5c0.2,0,0.5,0,0.7,0c0.2,0,0.5,0,0.7,0c0.2,0,0.5,0,0.7,0c0.3,0,0.5,0,0.7,0l3.8,12.5l3.8-12.5c0.3,0,0.9,0,1.2,0
	c0.2,0,0.3,0,0.7,0c0.2,0,0.5,0,0.7,0l-5.2,16.3c-0.2,0.7-0.5,1.4-0.7,1.7c-0.3,0.5-0.5,0.9-0.9,1.2c-0.3,0.3-0.7,0.5-1,0.7
	c-0.3,0.2-0.9,0.2-1.4,0.2c-0.3,0-0.9,0-1.2-0.2c-0.3,0-0.7-0.2-1-0.2c0-0.3,0-0.7,0.2-1c0-0.3,0.2-0.7,0.3-0.9
	c0.2,0,0.3,0.2,0.7,0.2s0.5,0.2,0.9,0.2c0.2,0,0.5,0,0.7,0s0.3-0.2,0.5-0.3c0.2-0.2,0.3-0.3,0.5-0.5c0.2-0.2,0.3-0.5,0.5-1
	L608.6,157.4z"/>
<path id="XMLID_104_" class="st5" d="M618.5,154.5c0.2,0,0.3,0,0.7-0.2c0.2,0,0.3,0,0.7,0c0.2,0,0.5,0,0.7,0s0.5,0,0.7,0.2l-2.6,5.9
	c-0.2,0-0.5,0-0.7,0s-0.3,0-0.7,0c-0.5,0-0.9,0-1.2-0.2L618.5,154.5z"/>
<path id="XMLID_36_" class="st5" d="M630.1,157.4c0.2-1,0.3-2.3,0.7-3.5c0.2-1.2,0.5-2.4,0.7-3.6c0.2-1.2,0.3-2.3,0.5-3.1
	c0.2-1,0.2-1.7,0.2-2.3c0-0.2,0-0.3,0-0.5c0-0.2,0-0.3,0-0.5c0.2,0,0.3,0,0.7,0c0.2,0,0.5,0,0.7,0c0.2,0,0.3,0,0.5,0
	c0.2,0,0.3,0,0.5,0c0,0.2,0,0.3,0,0.5c0,0.2,0,0.3,0,0.7s0,0.9,0,1.2c0.2-0.3,0.5-0.7,0.7-0.9c0.3-0.3,0.5-0.5,0.9-0.7
	c0.3-0.2,0.7-0.3,1-0.5c0.3-0.2,0.9-0.2,1.4-0.2c0.2,0,0.3,0,0.5,0c0.2,0,0.3,0,0.3,0c0,0.3,0,0.7-0.2,1.2c0,0.5-0.2,0.9-0.3,1.2
	c0,0-0.2,0-0.3,0c-0.2,0-0.3,0-0.5,0c-1.2,0-2.1,0.3-2.8,1.2c-0.7,0.9-1.2,2.1-1.6,3.8l-1,6.1c-0.3,0-0.7,0-1,0H631L630.1,157.4z"/>
<path id="XMLID_33_" class="st5" d="M642.2,146h-1.6c0-0.3,0-0.7,0-1s0.2-0.7,0.3-1h4.2l-2.4,13.5c-0.2,0-0.3,0-0.7,0
	c-0.2,0-0.5,0-0.7,0c-0.2,0-0.3,0-0.7,0c-0.2,0-0.3,0-0.7,0L642.2,146z M642.2,141.1c0-0.5,0-1,0.2-1.4c0.2-0.5,0.2-0.9,0.3-1.4
	c0.2,0,0.5,0,0.9,0c0.3,0,0.5,0,0.7,0c0.2,0,0.5,0,0.7,0c0.3,0,0.5,0,0.7,0c0,0.5,0,1-0.2,1.4c-0.2,0.5-0.2,0.9-0.3,1.4
	c-0.2,0-0.5,0-0.9,0c-0.3,0-0.5,0-0.7,0c-0.2,0-0.3,0-0.7,0C642.6,141.1,642.4,141.1,642.2,141.1"/>
<path id="XMLID_30_" class="st5" d="M655.5,154.3c-0.2,0.3-0.5,0.7-0.7,1.2c-0.3,0.3-0.7,0.7-1,1c-0.3,0.3-0.9,0.5-1.4,0.9
	c-0.5,0.2-1,0.3-1.7,0.3c-1.2,0-2.1-0.3-2.6-1.2c-0.5-0.7-0.9-1.7-0.9-3.1c0-1.2,0.2-2.4,0.5-3.6c0.3-1.2,1-2.3,1.7-3.1
	c0.7-0.9,1.7-1.7,2.8-2.3c1-0.5,2.4-0.9,4-0.9c0.7,0,1.2,0,1.9,0.2c0.7,0.2,1.2,0.2,1.7,0.3c-0.3,2.3-0.9,4.3-1.2,6.6
	c-0.3,2.3-0.7,4.3-1.2,6.6c-0.2,1.2-0.5,2.3-1,2.9c-0.5,0.9-1,1.6-1.7,2.1s-1.6,0.9-2.4,1.2c-0.9,0.2-1.9,0.3-2.9,0.3
	c-0.5,0-1.2,0-1.7-0.2c-0.5-0.2-1-0.2-1.6-0.3c0-0.7,0.2-1.4,0.5-2.1c0.3,0,0.7,0.2,1.2,0.3c0.5,0.2,1,0.2,1.6,0.2
	c0.9,0,1.6,0,2.1-0.2c0.7-0.2,1.2-0.3,1.6-0.9c0.5-0.3,0.9-0.9,1.2-1.4c0.3-0.5,0.5-1.4,0.7-2.3L655.5,154.3z M656.9,146
	c-0.3-0.2-0.9-0.2-1.4-0.2c-0.9,0-1.7,0.2-2.4,0.5s-1.2,0.9-1.7,1.6c-0.5,0.7-0.9,1.4-1.2,2.3c-0.3,0.9-0.3,1.7-0.3,2.6
	c0,0.9,0.2,1.6,0.5,1.9c0.3,0.5,0.7,0.7,1.4,0.7c0.5,0,1-0.2,1.6-0.5s1-0.9,1.4-1.4c0.3-0.7,0.7-1.4,1-2.3c0.3-0.9,0.5-1.7,0.7-2.8
	L656.9,146z"/>
<path id="XMLID_29_" class="st5" d="M664,143.6c0.2-1,0.3-1.9,0.3-2.6c0.2-0.7,0.2-1.4,0.2-1.9c0-0.2,0-0.3,0-0.5s0-0.3,0-0.5
	c0.2,0,0.3,0,0.7,0c0.3,0,0.5,0,0.7,0c0.2,0,0.3,0,0.5,0c0.2,0,0.3,0,0.5,0c0,0.3,0,0.7,0,1c0,0.2,0,0.3,0,0.7c0,0.3,0,0.5-0.2,0.9
	c0,0.3,0,0.7-0.2,0.9c0,0.3-0.2,0.7-0.2,0.9c-0.2,0.5-0.2,1.2-0.3,1.7c-0.2,0.5-0.2,1.2-0.3,1.7c0.5-0.7,1-1.2,1.9-1.7
	c0.7-0.5,1.7-0.7,2.6-0.7c1,0,1.9,0.3,2.6,0.9c0.5,0.5,0.9,1.4,0.9,2.6c0,0.3,0,0.5,0,0.9s0,0.7-0.2,0.9l-1.6,8.5
	c-0.2,0-0.3,0-0.7,0c-0.2,0-0.5,0-0.7,0c-0.2,0-0.3,0-0.7,0c-0.2,0-0.5,0-0.7,0c0.2-1.4,0.5-2.8,0.7-4c0.2-1.4,0.5-2.6,0.7-4
	l0.2-0.9c0-0.3,0-0.5,0-0.7c0-0.7-0.2-1.2-0.5-1.6s-0.9-0.5-1.4-0.5c-0.3,0-0.9,0.2-1.2,0.3s-0.9,0.5-1.2,0.9c-0.3,0.3-0.7,1-1,1.7
	c-0.3,0.7-0.5,1.6-0.7,2.8c-0.2,1-0.3,1.9-0.5,2.9c-0.2,1-0.3,1.9-0.5,2.9c-0.2,0-0.5,0-0.7,0c-0.3,0-0.5,0-0.7,0s-0.2,0-0.5,0
	c-0.2,0-0.3,0-0.5,0L664,143.6z"/>
<path id="XMLID_28_" class="st5" d="M678.9,146h-2.1c0-0.3,0-0.7,0-1s0.2-0.7,0.3-1h2.1c0.2-0.5,0.2-0.9,0.2-1.4s0.2-1,0.2-1.4v-0.3
	c0.3-0.2,0.7-0.3,1.2-0.3c0.5-0.2,0.9-0.2,1.2-0.2c0,0.2,0,0.3,0,0.5c0,0.2,0,0.3,0,0.5c0,0.5,0,1.2-0.2,2.1l-0.2,0.9h3.5
	c0,0.3,0,0.7,0,1s-0.2,0.7-0.3,1h-3.5l-1,5.7c0,0.3-0.2,0.9-0.2,1.2s-0.2,0.9-0.2,1.2c0,0.5,0.2,0.9,0.3,1c0.3,0.2,0.7,0.3,1,0.3
	c0.3,0,0.5,0,0.9,0c0.2,0,0.5-0.2,0.7-0.2c0,0.2,0.2,0.3,0.2,0.5c0,0.2,0,0.5,0,0.7v0.3c0,0.2,0,0.3,0,0.3c-0.2,0-0.5,0.2-0.9,0.2
	s-0.7,0.2-1.2,0.2c-0.5,0-1,0-1.6-0.2c-0.5,0-0.9-0.2-1.2-0.5c-0.3-0.2-0.5-0.5-0.7-0.9c-0.2-0.3-0.3-0.9-0.3-1.6c0-0.3,0-0.7,0.2-1
	c0-0.3,0.2-0.7,0.2-1.2L678.9,146z"/>
<path id="XMLID_25_" class="st5" d="M703,151.7c-0.2,1-0.3,1.9-0.5,2.8c-0.2,0.7-0.2,1.4-0.2,1.9c0,0.2,0,0.3,0,0.5s0,0.3,0,0.5
	c-0.2,0-0.3,0-0.7,0c-0.2,0-0.5,0-0.7,0c-0.2,0-0.3,0-0.5,0s-0.3,0-0.5,0c0-0.2,0-0.3,0-0.5s0-0.5,0-0.7s0-0.5,0-0.9
	s0.2-0.7,0.2-0.9c-0.2,0.3-0.5,0.7-0.7,1.2c-0.3,0.3-0.7,0.7-1,1c-0.3,0.3-0.9,0.5-1.4,0.9c-0.5,0.2-1,0.3-1.7,0.3
	c-1.2,0-2.1-0.3-2.6-1.2c-0.5-0.7-0.9-1.7-0.9-3.1c0-1.2,0.2-2.4,0.5-3.6c0.3-1.2,1-2.3,1.7-3.1c0.7-0.9,1.7-1.7,2.8-2.3
	c1-0.5,2.4-0.9,4-0.9c0.7,0,1.2,0,1.9,0.2s1.2,0.2,1.7,0.3L703,151.7z M701.4,145.8c-0.2,0-0.3-0.2-0.7-0.2c-0.2,0-0.5,0-0.7,0
	c-0.9,0-1.7,0.2-2.4,0.5c-0.7,0.3-1.2,0.9-1.7,1.6c-0.5,0.7-0.9,1.4-1.2,2.3s-0.3,1.7-0.3,2.6c0,0.9,0.2,1.6,0.5,1.9
	c0.3,0.5,0.7,0.7,1.4,0.7c0.5,0,1-0.2,1.6-0.5s1-0.9,1.4-1.4c0.3-0.7,0.9-1.4,1-2.3c0.3-0.9,0.5-1.7,0.7-2.6L701.4,145.8z"/>
<path id="XMLID_24_" class="st5" d="M706.8,143.9c0.2,0,0.5,0,0.7,0c0.2,0,0.5,0,0.7,0c0.5,0,1,0,1.4,0.2l1,10.4l4.2-10.4
	c0.2,0,0.3,0,0.7,0c0.2,0,0.5,0,0.7,0c0.2,0,0.5,0,0.7,0s0.3,0,0.7,0l1.2,10.6l3.3-8c0.2-0.5,0.3-1,0.3-1.4c0-0.3,0.2-0.7,0.2-0.9
	v-0.2c0.2,0,0.3,0,0.7,0c0.2,0,0.5,0,0.7,0c0.5,0,1,0,1.4,0.2v0.2c0,0.3,0,0.9-0.2,1.2c-0.2,0.3-0.3,1-0.7,1.6l-4.8,10.6
	c-0.2,0-0.5,0-0.7,0c-0.2,0-0.5,0-0.7,0c-0.2,0-0.3,0-0.7,0c-0.2,0-0.5,0-0.7,0l-1.4-9.7l-4,9.7c-0.2,0-0.5,0-0.7,0s-0.5,0-0.7,0
	c-0.2,0-0.5,0-0.7,0c-0.2,0-0.5,0-0.7,0L706.8,143.9z"/>
<path id="XMLID_21_" class="st5" d="M737.3,151.7c-0.2,1-0.3,1.9-0.5,2.8c-0.2,0.7-0.2,1.4-0.2,1.9c0,0.2,0,0.3,0,0.5s0,0.3,0,0.5
	c-0.2,0-0.3,0-0.7,0c-0.2,0-0.5,0-0.7,0s-0.3,0-0.5,0c-0.2,0-0.3,0-0.5,0c0-0.2,0-0.3,0-0.5s0-0.5,0-0.7s0-0.5,0-0.9
	s0.2-0.7,0.2-0.9c-0.2,0.3-0.5,0.7-0.7,1.2c-0.3,0.3-0.7,0.7-1,1c-0.3,0.3-0.9,0.5-1.4,0.9c-0.5,0.2-1,0.3-1.7,0.3
	c-1.2,0-2.1-0.3-2.6-1.2c-0.5-0.7-0.9-1.7-0.9-3.1c0-1.2,0.2-2.4,0.5-3.6c0.3-1.2,1-2.3,1.7-3.1c0.7-0.9,1.7-1.7,2.8-2.3
	c1-0.5,2.4-0.9,4-0.9c0.7,0,1.2,0,1.9,0.2c0.7,0.2,1.2,0.2,1.7,0.3L737.3,151.7z M735.9,145.8c-0.2,0-0.3-0.2-0.7-0.2
	c-0.2,0-0.5,0-0.7,0c-0.9,0-1.7,0.2-2.4,0.5c-0.7,0.3-1.2,0.9-1.7,1.6c-0.5,0.7-0.9,1.4-1.2,2.3c-0.3,0.9-0.3,1.7-0.3,2.6
	c0,0.9,0.2,1.6,0.5,1.9c0.3,0.5,0.7,0.7,1.4,0.7c0.5,0,1-0.2,1.6-0.5s1-0.9,1.4-1.4c0.3-0.7,0.9-1.4,1-2.3c0.3-0.9,0.5-1.7,0.7-2.6
	L735.9,145.8z"/>
<path id="XMLID_20_" class="st5" d="M745.2,156c0.5-1.2,1-2.3,1.6-3.3s0.9-1.9,1.2-2.8c0.3-0.9,0.7-1.6,1-2.3
	c0.3-0.7,0.5-1.4,0.9-2.1c0.2-0.3,0.2-0.5,0.2-0.9s0-0.5,0-0.7v-0.2v-0.2c0.3,0,0.7,0,1,0h1.7v0.2v0.2c0,0.3-0.2,0.9-0.3,1.4
	c-0.2,0.5-0.3,1-0.5,1.6c-0.9,1.7-1.6,3.5-2.6,5.5c-0.9,1.9-1.9,4.2-3.1,6.4c-0.5,1-1,1.9-1.4,2.4c-0.5,0.7-0.9,1-1.4,1.6
	c-0.5,0.3-0.9,0.5-1.4,0.7s-0.9,0.2-1.4,0.2c-0.7,0-1.2,0-1.7-0.3c0-0.3,0-0.7,0.2-1c0-0.3,0.2-0.7,0.3-0.9c0.2,0,0.3,0.2,0.5,0.2
	s0.5,0,0.7,0c0.3,0,0.5,0,0.9-0.2c0.3,0,0.5-0.3,0.9-0.5c0.3-0.3,0.7-0.7,1-1.4c0.3-0.5,0.7-1.4,1.2-2.4c-0.2,0-0.3,0-0.5,0h-0.5
	h-0.3c-0.2,0-0.3,0-0.3,0c-0.3-2.3-0.5-4.5-0.9-6.8c-0.3-2.3-0.5-4.5-0.9-6.8c0.2,0,0.5,0,0.7,0c0.2,0,0.3,0,0.7,0
	c0.2,0,0.5,0,0.7,0c0.2,0,0.5,0,0.7,0L745.2,156z"/>
<path id="XMLID_19_" class="st5" d="M707,157.8c0-0.3,0-0.7,0.2-1.2c0-0.3,0.2-0.7,0.3-1.2c0.2,0,0.3,0,0.5,0c0.2,0,0.3,0,0.5,0
	c0.2,0,0.3,0,0.5,0s0.3,0,0.5,0c0,0.3,0,0.9-0.2,1.2c0,0.3-0.2,0.7-0.3,1.2c-0.2,0-0.3,0-0.7,0c-0.2,0-0.3,0-0.5,0
	c-0.2,0-0.3,0-0.5,0C707.3,157.8,707.1,157.8,707,157.8"/>
<line class="st6" x1="292" y1="128.1" x2="292" y2="174"/>
</svg>
