<?xml version="1.0" encoding="utf-8"?>
<!-- Generator: Adobe Illustrator 19.0.0, SVG Export Plug-In . SVG Version: 6.00 Build 0)  -->
<!DOCTYPE svg PUBLIC "-//W3C//DTD SVG 1.1//EN" "http://www.w3.org/Graphics/SVG/1.1/DTD/svg11.dtd">
<svg version="1.1" id="Layer_1" xmlns="http://www.w3.org/2000/svg" xmlns:xlink="http://www.w3.org/1999/xlink" x="0px" y="0px"
	 viewBox="0 0 230.3 104.7" style="enable-background:new 0 0 230.3 104.7;" xml:space="preserve">
<style type="text/css">
	.st0{fill:#F7931E;}
	.st1{fill:#3793D0;}
	.st2{clip-path:url(#XMLID_259_);fill:#DC7927;}
	.st3{fill:#DC7927;}
	.st4{fill:#606872;}
	.st5{fill:#87929F;}
	.st6{fill:#A9B6C4;}
</style>
<path id="XMLID_182_" class="st0" d="M21.6,46c5,0,7.9-1.9,8.4-5.6l0.6-3.6c0.1-0.7,0.1-1.3,0.1-1.7c0-0.5,0-0.9-0.1-1.3
	c-0.2-1.7-1.8-2.6-4.6-2.6h-6.9c-3.2,0-5.4-0.6-6.6-1.9c-1.1-1.2-1.6-2.5-1.6-4c0-0.4,0.1-1.3,0.2-2.9l0.5-3.5
	c0.6-3.9,2.1-6.5,4.3-7.8c1.8-1.1,4.1-1.6,6.9-1.6c2.1,0,4.7,0.2,7.7,0.5c3,0.3,4.8,0.6,5.5,0.7l-0.4,2.3l-12.7-0.5h-0.8
	c-2.1,0-3.8,0.4-5,1.2c-1.3,0.8-2.1,2.6-2.5,5.2l-0.6,3.5c-0.2,1.5-0.2,2.5-0.1,3c0.2,0.5,0.3,0.9,0.4,1.2c0.1,0.3,0.3,0.5,0.7,0.7
	c0.3,0.2,0.6,0.3,0.8,0.4c0.2,0.1,0.6,0.2,1.1,0.2c0.7,0,1.5,0.1,2.4,0.1h6.9c1.6,0,3,0.3,4.1,0.8c1.1,0.5,1.8,1.2,2.3,2
	c0.6,1.2,1,2.4,1,3.4c0,1.1-0.1,1.9-0.2,2.6L33,40.5c-0.4,2.6-1.3,4.5-2.6,5.7c-1.4,1.3-2.7,2-4,2.3c-1.9,0.4-3.7,0.6-5.3,0.6
	s-4-0.1-6.8-0.4c-2.8-0.3-4.8-0.5-6-0.7l0.4-2.4C11.2,45.9,15.5,46,21.6,46"/>
<polygon id="XMLID_181_" class="st0" points="41.6,13 42.1,9.9 69.5,9.9 69.1,13 56.7,13 51.1,48.7 48.1,48.7 53.7,13 "/>
<path id="XMLID_178_" class="st0" d="M61.1,48.7L81.6,9.9h3.2l7.6,38.8h-3.1L87,37H70.6l-6.1,11.6H61.1z M72.2,33.9h14.1l-3.8-20
	L72.2,33.9z"/>
<polygon id="XMLID_177_" class="st0" points="95.7,13 96.1,9.9 123.6,9.9 123.1,13 110.7,13 105.1,48.7 102.1,48.7 107.7,13 "/>
<polygon id="XMLID_176_" class="st1" points="143,49.7 152.2,9.9 158.8,9.9 163.5,41.4 177.8,9.9 184.7,9.9 181.6,49.7 176.7,49.7 
	179.2,18.8 165.1,49.7 159.7,49.7 155.1,18.8 148,49.7 "/>
<path id="XMLID_173_" class="st1" d="M208.7,9.9c3.9,0,6.7,1.2,8.5,3.6c1.7,2.4,2.7,5.1,2.9,8.1c0.1,0.9,0.1,1.8,0.1,2.5
	c0,2.1-0.2,4.1-0.5,6.1c-1,6.3-2.9,11.1-5.7,14.5c-2.7,3.3-6.5,5-11.4,5h-15.3l6.3-39.7C193.6,9.9,198.6,9.9,208.7,9.9 M203.1,44.8
	c2.1,0,3.9-0.7,5.6-2.1c3-2.6,5.1-6.8,6-12.8c0.4-2.3,0.5-4.4,0.5-6.5c0-5.9-2.5-8.8-7.5-8.8h-9.9L193,44.8H203.1z"/>
<g id="XMLID_169_">
	<g id="XMLID_170_">
		<defs>
			<rect id="XMLID_171_" x="119.5" y="25.2" width="16.4" height="16.4"/>
		</defs>
		<clipPath id="XMLID_259_">
			<use xlink:href="#XMLID_171_"  style="overflow:visible;"/>
		</clipPath>
		<path id="XMLID_172_" class="st2" d="M123.6,33.4c-4.1,0-4.1-4.1-4.1-4.1v-4.1c14.4,0,16.4,16.4,16.4,16.4h-8.2v-8.2H123.6z"/>
	</g>
</g>
<polygon id="XMLID_168_" class="st3" points="127.7,41.6 127.7,41.6 127.7,33.4 "/>
<path id="XMLID_167_" class="st3" d="M135.9,41.6c0,0-2.1-16.4-16.4-16.4v4.1c0,0,0,1.1,0.6,2.2c0.5,1,1.6,1.9,3.5,1.9h4.1v8.2
	H135.9z"/>
<path id="XMLID_166_" class="st0" d="M144.8,25.2h-9V17h-8.2v8.2h-8.2c14.4,0,16.4,16.4,16.4,16.4v-8.2h7.1L144.8,25.2z"/>
<path id="XMLID_165_" class="st4" d="M134.8,57.8c0,1-0.4,1.9-1.1,2.6c-0.7,0.7-1.6,1.1-2.6,1.1s-1.9-0.4-2.6-1.1
	c-0.7-0.7-1.1-1.6-1.1-2.6v-4.6c0-0.2,0.1-0.4,0.2-0.5c0.1-0.1,0.3-0.2,0.5-0.2c0.2,0,0.4,0.1,0.5,0.2c0.1,0.1,0.2,0.3,0.2,0.5v4.6
	c0,0.6,0.2,1.2,0.7,1.6c0.4,0.4,1,0.7,1.6,0.7s1.2-0.2,1.6-0.7c0.4-0.4,0.7-1,0.7-1.6v-4.6c0-0.2,0.1-0.4,0.2-0.5
	c0.1-0.1,0.3-0.2,0.5-0.2c0.2,0,0.4,0.1,0.5,0.2c0.1,0.1,0.2,0.3,0.2,0.5V57.8z"/>
<path id="XMLID_164_" class="st4" d="M139.1,55.9c0.2-0.2,0.5-0.4,0.8-0.6c0.3-0.1,0.7-0.2,0.9-0.2c0.3,0,0.5,0.1,0.6,0.2
	c0.1,0.1,0.2,0.3,0.2,0.5c0,0.2-0.1,0.3-0.2,0.5c-0.1,0.1-0.3,0.2-0.5,0.2c-0.8,0-1.4,0.6-1.9,1.9v2.4c0,0.2-0.1,0.3-0.2,0.5
	c-0.1,0.1-0.3,0.2-0.5,0.2c-0.2,0-0.4-0.1-0.5-0.2s-0.2-0.3-0.2-0.5v-5c0-0.2,0.1-0.3,0.2-0.5c0.1-0.1,0.3-0.2,0.5-0.2
	c0.2,0,0.4,0.1,0.5,0.2C139,55.4,139.1,55.6,139.1,55.9L139.1,55.9z"/>
<path id="XMLID_161_" class="st4" d="M143.8,60.6c-0.6-0.6-0.9-1.4-0.9-2.2c0-0.9,0.3-1.6,0.9-2.3c0.6-0.6,1.3-1,2.2-1
	c0.6,0,1.2,0.2,1.7,0.5c0-0.2,0.1-0.3,0.2-0.4c0.1-0.1,0.3-0.2,0.5-0.2c0.2,0,0.3,0.1,0.5,0.2c0.1,0.1,0.2,0.3,0.2,0.5v4.9
	c0,0.8-0.3,1.6-0.9,2.2c-0.6,0.6-1.3,0.9-2.2,0.9c-0.5,0-0.9-0.1-1.3-0.3c-0.2-0.1-0.3-0.2-0.3-0.4c-0.1-0.2,0-0.4,0-0.5
	c0.1-0.2,0.2-0.3,0.4-0.3c0.2-0.1,0.4-0.1,0.5,0c0.2,0.1,0.5,0.2,0.8,0.2c0.3,0,0.7-0.1,1-0.4c0.3-0.3,0.5-0.6,0.6-1
	c-0.5,0.3-1.1,0.5-1.7,0.5C145.1,61.5,144.4,61.2,143.8,60.6 M144.3,58.3c0,0.5,0.2,0.9,0.5,1.3c0.3,0.4,0.7,0.5,1.2,0.5
	c0.5,0,0.9-0.2,1.2-0.5c0.3-0.3,0.5-0.8,0.5-1.3c0-0.5-0.2-1-0.5-1.3c-0.3-0.4-0.7-0.5-1.2-0.5s-0.9,0.2-1.2,0.6
	C144.4,57.4,144.3,57.8,144.3,58.3"/>
<path id="XMLID_158_" class="st4" d="M157.5,58.1c0,0.2-0.1,0.3-0.2,0.5c-0.1,0.1-0.3,0.2-0.5,0.2h-4.1c0.1,0.4,0.2,0.6,0.4,0.8
	c0.3,0.3,0.7,0.5,1.2,0.6c0.5,0.1,1,0,1.4-0.3c0.1-0.1,0.3-0.2,0.5-0.2c0.2,0,0.4,0.1,0.4,0.2c0.2,0.3,0.2,0.5,0,0.8
	c-0.6,0.6-1.4,0.8-2.3,0.8s-1.6-0.3-2.2-0.9c-0.6-0.6-0.9-1.4-0.9-2.3c0-0.9,0.3-1.6,0.9-2.3c0.6-0.6,1.3-0.9,2.2-0.9
	c0.9,0,1.6,0.3,2.2,0.8C157.1,56.5,157.4,57.2,157.5,58.1L157.5,58.1z M154.4,56.3c-0.5,0-0.9,0.2-1.2,0.5c-0.3,0.3-0.5,0.6-0.5,0.9
	h3.6c-0.1-0.3-0.3-0.6-0.6-0.9C155.3,56.5,154.9,56.3,154.4,56.3"/>
<path id="XMLID_157_" class="st4" d="M160.9,60.8c0,0.2-0.1,0.3-0.2,0.5c-0.1,0.1-0.3,0.2-0.5,0.2s-0.3-0.1-0.5-0.2
	c-0.1-0.1-0.2-0.3-0.2-0.5v-5c0-0.2,0.1-0.3,0.2-0.5c0.1-0.1,0.3-0.2,0.5-0.2c0.3,0,0.5,0.1,0.6,0.4c0.4-0.3,0.9-0.4,1.4-0.4
	c0.7,0,1.4,0.3,1.9,0.8c0.5,0.5,0.8,1.1,0.8,1.9v3.1c0,0.2-0.1,0.3-0.2,0.5c-0.1,0.1-0.3,0.2-0.5,0.2c-0.2,0-0.3-0.1-0.5-0.2
	c-0.1-0.1-0.2-0.3-0.2-0.5v-3.1c0-0.4-0.1-0.7-0.4-0.9c-0.3-0.3-0.6-0.4-0.9-0.4c-0.4,0-0.7,0.1-0.9,0.4c-0.2,0.3-0.4,0.6-0.4,0.9
	V60.8z"/>
<path id="XMLID_156_" class="st4" d="M169.5,55.1c0.2,0,0.4,0.1,0.5,0.2c0.1,0.1,0.2,0.3,0.2,0.5c0,0.2-0.1,0.4-0.2,0.5
	c-0.1,0.1-0.3,0.2-0.5,0.2h-0.3v3.6c0.2,0,0.4,0.1,0.5,0.2c0.1,0.1,0.2,0.3,0.2,0.5c0,0.2-0.1,0.4-0.2,0.5c-0.1,0.1-0.3,0.2-0.5,0.2
	c-0.4,0-0.7-0.1-1-0.4c-0.3-0.3-0.4-0.6-0.4-1v-3.6h-0.4c-0.2,0-0.4-0.1-0.5-0.2c-0.1-0.1-0.2-0.3-0.2-0.5c0-0.2,0.1-0.4,0.2-0.5
	c0.1-0.1,0.3-0.2,0.5-0.2h0.4v-1.9c0-0.2,0.1-0.4,0.2-0.5c0.1-0.1,0.3-0.2,0.5-0.2c0.2,0,0.4,0.1,0.5,0.2c0.1,0.1,0.2,0.3,0.2,0.5
	v1.9H169.5z"/>
<path id="XMLID_155_" class="st4" d="M178.5,54.7c-0.6,0.6-0.9,1.4-0.9,2.3c0,0.9,0.3,1.6,1,2.2c0.6,0.6,1.4,0.9,2.2,0.9
	s1.5-0.2,2.1-0.7c0.1-0.1,0.3-0.2,0.5-0.1c0.2,0,0.4,0.1,0.5,0.3c0.1,0.2,0.2,0.3,0.1,0.5c0,0.2-0.1,0.4-0.3,0.5c-0.9,0.7-1.8,1-3,1
	c-1.3,0-2.4-0.4-3.3-1.3c-0.9-0.9-1.4-2-1.4-3.3c0-1.3,0.5-2.3,1.4-3.2c0.9-0.9,2-1.4,3.3-1.4c1.1,0,2.1,0.3,3,1
	c0.2,0.1,0.2,0.3,0.3,0.5c0,0.2,0,0.4-0.1,0.5c-0.1,0.2-0.3,0.3-0.5,0.3c-0.2,0-0.4,0-0.5-0.1c-0.6-0.5-1.3-0.7-2.1-0.7
	C179.9,53.7,179.1,54,178.5,54.7"/>
<path id="XMLID_152_" class="st4" d="M186.4,60.5c-0.6-0.6-0.9-1.4-0.9-2.3c0-0.9,0.3-1.6,0.9-2.3c0.6-0.6,1.3-0.9,2.2-0.9
	c0.6,0,1.2,0.2,1.7,0.6c0-0.2,0.1-0.3,0.2-0.4c0.1-0.1,0.3-0.2,0.4-0.2c0.2,0,0.3,0.1,0.5,0.2c0.1,0.1,0.2,0.3,0.2,0.5v5
	c0,0.2-0.1,0.3-0.2,0.5c-0.1,0.1-0.3,0.2-0.5,0.2c-0.2,0-0.3-0.1-0.4-0.2c-0.1-0.1-0.2-0.2-0.2-0.4c-0.5,0.4-1.1,0.5-1.7,0.5
	C187.7,61.5,187,61.2,186.4,60.5 M186.9,58.3c0,0.5,0.2,0.9,0.5,1.3c0.3,0.4,0.7,0.5,1.2,0.5c0.5,0,0.9-0.2,1.2-0.5
	c0.3-0.3,0.5-0.8,0.5-1.3c0-0.5-0.2-0.9-0.5-1.3c-0.3-0.4-0.7-0.5-1.2-0.5s-0.9,0.2-1.2,0.5C187,57.3,186.9,57.8,186.9,58.3"/>
<path id="XMLID_151_" class="st4" d="M195.5,55.9c0.2-0.2,0.5-0.4,0.8-0.6c0.3-0.1,0.7-0.2,0.9-0.2c0.3,0,0.5,0.1,0.6,0.2
	c0.1,0.1,0.2,0.3,0.2,0.5c0,0.2-0.1,0.3-0.2,0.5c-0.1,0.1-0.3,0.2-0.5,0.2c-0.8,0-1.4,0.6-1.9,1.9v2.4c0,0.2-0.1,0.3-0.2,0.5
	c-0.1,0.1-0.3,0.2-0.5,0.2s-0.4-0.1-0.5-0.2c-0.1-0.1-0.2-0.3-0.2-0.5v-5c0-0.2,0.1-0.3,0.2-0.5c0.1-0.1,0.3-0.2,0.5-0.2
	s0.4,0.1,0.5,0.2C195.4,55.4,195.5,55.6,195.5,55.9L195.5,55.9z"/>
<path id="XMLID_148_" class="st4" d="M205.5,58.1c0,0.2-0.1,0.3-0.2,0.5c-0.1,0.1-0.3,0.2-0.5,0.2h-4.1c0.1,0.4,0.2,0.6,0.4,0.8
	c0.3,0.3,0.7,0.5,1.2,0.6c0.5,0.1,1,0,1.4-0.3c0.1-0.1,0.3-0.2,0.5-0.2c0.2,0,0.4,0.1,0.4,0.2c0.2,0.3,0.2,0.5,0,0.8
	c-0.6,0.6-1.4,0.8-2.3,0.8s-1.6-0.3-2.2-0.9c-0.6-0.6-0.9-1.4-0.9-2.3c0-0.9,0.3-1.6,0.9-2.3c0.6-0.6,1.3-0.9,2.2-0.9
	c0.9,0,1.6,0.3,2.2,0.8C205.1,56.5,205.4,57.2,205.5,58.1L205.5,58.1z M202.4,56.3c-0.5,0-0.9,0.2-1.2,0.5c-0.3,0.3-0.5,0.6-0.5,0.9
	h3.6c-0.1-0.3-0.3-0.6-0.6-0.9C203.3,56.5,202.9,56.3,202.4,56.3"/>
<path id="XMLID_147_" class="st5" d="M19.2,85.2c0.1,0,0.2,0,0.3,0c0.1,0,0.2,0,0.3,0c0.1,0,0.2,0,0.3,0c0.1,0,0.2,0,0.3,0l2,5
	l2.1-5c0.1,0,0.2,0,0.3,0c0.1,0,0.2,0,0.3,0c0.1,0,0.2,0,0.3,0c0.1,0,0.2,0,0.3,0l0.4,7.9c-0.1,0-0.2,0-0.3,0c-0.1,0-0.2,0-0.3,0
	c-0.1,0-0.2,0-0.3,0c-0.1,0-0.2,0-0.3,0L24.8,87l-1.9,4.5c-0.1,0-0.3,0-0.5,0c-0.1,0-0.3,0-0.4,0L20.1,87l-0.3,6.2
	c-0.1,0-0.2,0-0.3,0c-0.1,0-0.2,0-0.3,0c-0.1,0-0.2,0-0.3,0c-0.1,0-0.2,0-0.3,0L19.2,85.2z"/>
<path id="XMLID_144_" class="st5" d="M28.7,90.6c0,0.6,0.2,1.1,0.5,1.4c0.3,0.3,0.8,0.4,1.3,0.4c0.5,0,1-0.1,1.5-0.3
	c0.1,0.1,0.1,0.2,0.1,0.4c0,0.2,0.1,0.3,0.1,0.5c-0.2,0.1-0.5,0.2-0.8,0.2c-0.3,0.1-0.6,0.1-1,0.1c-0.5,0-1-0.1-1.3-0.2
	c-0.4-0.1-0.7-0.3-0.9-0.6c-0.2-0.3-0.4-0.6-0.5-0.9c-0.1-0.4-0.2-0.7-0.2-1.2c0-0.4,0.1-0.8,0.2-1.2c0.1-0.4,0.3-0.7,0.5-0.9
	c0.2-0.3,0.5-0.5,0.8-0.6c0.3-0.2,0.7-0.2,1.2-0.2c0.4,0,0.7,0.1,1,0.2c0.3,0.1,0.5,0.3,0.7,0.5c0.2,0.2,0.3,0.5,0.5,0.8
	c0.1,0.3,0.2,0.7,0.2,1c0,0.1,0,0.2,0,0.3c0,0.1,0,0.2,0,0.3H28.7z M31.5,89.8c0-0.2,0-0.4-0.1-0.6c-0.1-0.2-0.1-0.4-0.2-0.5
	c-0.1-0.1-0.2-0.3-0.4-0.3c-0.2-0.1-0.4-0.1-0.6-0.1c-0.4,0-0.8,0.1-1,0.4c-0.2,0.3-0.4,0.7-0.4,1.1H31.5z"/>
<path id="XMLID_141_" class="st5" d="M37.6,85.1c0.1,0,0.2,0,0.3,0c0.1,0,0.2,0,0.3,0c0.1,0,0.2,0,0.3,0c0.1,0,0.2,0,0.3,0V93
	c-0.3,0.1-0.6,0.1-0.9,0.2c-0.3,0.1-0.7,0.1-1.2,0.1c-0.4,0-0.8,0-1.1-0.1c-0.4-0.1-0.7-0.3-0.9-0.5c-0.3-0.2-0.5-0.5-0.6-0.9
	c-0.2-0.4-0.2-0.8-0.2-1.3c0-0.5,0.1-0.9,0.2-1.2c0.1-0.4,0.3-0.7,0.6-1c0.2-0.3,0.5-0.5,0.9-0.6c0.3-0.1,0.7-0.2,1.2-0.2
	c0.2,0,0.4,0,0.6,0c0.2,0,0.4,0.1,0.5,0.1V85.1z M37.6,88.5c-0.1-0.1-0.3-0.1-0.5-0.1c-0.2,0-0.4,0-0.5,0c-0.3,0-0.6,0.1-0.8,0.2
	c-0.2,0.1-0.4,0.3-0.5,0.5c-0.1,0.2-0.2,0.4-0.3,0.7c-0.1,0.3-0.1,0.5-0.1,0.9c0,0.7,0.2,1.2,0.5,1.5c0.3,0.3,0.8,0.5,1.3,0.5
	c0.2,0,0.4,0,0.5,0c0.2,0,0.3,0,0.4-0.1V88.5z"/>
<path id="XMLID_138_" class="st5" d="M40.8,88.4H40c0-0.1,0-0.1,0-0.2c0-0.1,0-0.2,0-0.2c0-0.1,0-0.2,0-0.2c0-0.1,0-0.1,0-0.2h1.8
	v5.7c-0.1,0-0.2,0-0.3,0c-0.1,0-0.2,0-0.3,0c-0.1,0-0.2,0-0.3,0c-0.1,0-0.2,0-0.3,0V88.4z M40.5,86.3c0-0.1,0-0.2,0-0.3
	c0-0.1,0-0.2,0-0.3c0-0.1,0-0.2,0-0.3c0-0.1,0-0.2,0-0.3c0.1,0,0.2,0,0.3,0c0.1,0,0.2,0,0.3,0c0.1,0,0.2,0,0.3,0c0.1,0,0.2,0,0.3,0
	c0,0.1,0,0.2,0,0.3c0,0.1,0,0.2,0,0.3c0,0.1,0,0.2,0,0.3c0,0.1,0,0.2,0,0.3c-0.1,0-0.2,0-0.3,0c-0.1,0-0.2,0-0.3,0
	c-0.1,0-0.2,0-0.3,0C40.7,86.3,40.6,86.3,40.5,86.3"/>
<path id="XMLID_137_" class="st5" d="M47.4,92.2c0.1,0.1,0.1,0.2,0.2,0.4c0,0.2,0.1,0.3,0.1,0.5c-0.4,0.2-0.9,0.3-1.5,0.3
	c-0.9,0-1.6-0.3-2.1-0.8c-0.5-0.5-0.7-1.2-0.7-2.2c0-0.4,0.1-0.8,0.2-1.2c0.1-0.4,0.3-0.7,0.5-0.9c0.2-0.3,0.5-0.5,0.9-0.6
	c0.3-0.2,0.7-0.2,1.2-0.2c0.3,0,0.6,0,0.8,0.1c0.2,0,0.5,0.1,0.7,0.2c0,0.1,0,0.3-0.1,0.4c0,0.2-0.1,0.3-0.1,0.4
	c-0.4-0.1-0.8-0.2-1.2-0.2c-0.6,0-1,0.2-1.3,0.6c-0.3,0.4-0.4,0.9-0.4,1.5c0,0.7,0.2,1.2,0.5,1.5c0.3,0.3,0.7,0.5,1.3,0.5
	c0.2,0,0.4,0,0.6,0C47,92.3,47.2,92.3,47.4,92.2"/>
<path id="XMLID_134_" class="st5" d="M51.9,89.4c0-0.4-0.1-0.7-0.3-0.9c-0.2-0.2-0.5-0.3-1-0.3c-0.3,0-0.5,0-0.7,0.1
	c-0.2,0-0.4,0.1-0.7,0.2C49,88.3,49,88,49,87.6c0.2-0.1,0.5-0.1,0.8-0.2c0.3,0,0.6-0.1,0.9-0.1c0.7,0,1.3,0.2,1.7,0.5
	c0.4,0.3,0.6,0.9,0.6,1.6V93c-0.3,0.1-0.6,0.1-0.9,0.2c-0.4,0.1-0.7,0.1-1.1,0.1c-0.4,0-0.7,0-1-0.1c-0.3-0.1-0.5-0.2-0.7-0.3
	s-0.4-0.3-0.5-0.6c-0.1-0.2-0.2-0.5-0.2-0.8c0-0.3,0.1-0.6,0.2-0.8c0.1-0.2,0.3-0.4,0.5-0.6s0.5-0.3,0.8-0.4
	c0.3-0.1,0.6-0.1,0.9-0.1c0.2,0,0.4,0,0.6,0c0.2,0,0.3,0,0.4,0V89.4z M51.9,90.5c-0.1,0-0.2,0-0.4,0c-0.2,0-0.3,0-0.4,0
	c-0.5,0-0.8,0.1-1,0.3c-0.2,0.2-0.4,0.4-0.4,0.8c0,0.2,0,0.4,0.1,0.5s0.2,0.2,0.3,0.3c0.1,0.1,0.3,0.1,0.4,0.1c0.1,0,0.3,0,0.4,0
	c0.2,0,0.3,0,0.5,0c0.2,0,0.3,0,0.5-0.1V90.5z"/>
<path id="XMLID_133_" class="st5" d="M54.5,85.1c0.1,0,0.2,0,0.3,0c0.1,0,0.2,0,0.3,0s0.2,0,0.3,0c0.1,0,0.2,0,0.3,0v6.4
	c0,0.2,0,0.4,0.1,0.5c0,0.1,0.1,0.2,0.1,0.3c0.1,0.1,0.1,0.1,0.2,0.1c0.1,0,0.2,0,0.3,0c0.1,0,0.1,0,0.2,0c0.1,0,0.2,0,0.2,0
	c0.1,0.3,0.1,0.5,0.1,0.8c-0.1,0-0.2,0.1-0.4,0.1c-0.1,0-0.3,0-0.4,0c-0.2,0-0.4,0-0.6-0.1c-0.2-0.1-0.3-0.1-0.5-0.3
	c-0.1-0.1-0.2-0.3-0.3-0.5c-0.1-0.2-0.1-0.4-0.1-0.7V85.1z"/>
<path id="XMLID_132_" class="st5" d="M64.2,92.2c0.1,0.1,0.1,0.2,0.2,0.4c0,0.2,0.1,0.3,0.1,0.5c-0.4,0.2-0.9,0.3-1.5,0.3
	c-0.9,0-1.6-0.3-2.1-0.8c-0.5-0.5-0.7-1.2-0.7-2.2c0-0.4,0.1-0.8,0.2-1.2c0.1-0.4,0.3-0.7,0.5-0.9c0.2-0.3,0.5-0.5,0.9-0.6
	c0.3-0.2,0.7-0.2,1.2-0.2c0.3,0,0.6,0,0.8,0.1c0.2,0,0.5,0.1,0.7,0.2c0,0.1,0,0.3-0.1,0.4c0,0.2-0.1,0.3-0.1,0.4
	c-0.4-0.1-0.8-0.2-1.2-0.2c-0.6,0-1,0.2-1.3,0.6c-0.3,0.4-0.4,0.9-0.4,1.5c0,0.7,0.2,1.2,0.5,1.5c0.3,0.3,0.7,0.5,1.3,0.5
	c0.2,0,0.4,0,0.6,0C63.8,92.3,64,92.3,64.2,92.2"/>
<path id="XMLID_129_" class="st5" d="M68.7,89.4c0-0.4-0.1-0.7-0.3-0.9c-0.2-0.2-0.5-0.3-1-0.3c-0.3,0-0.5,0-0.7,0.1
	c-0.2,0-0.4,0.1-0.7,0.2c-0.1-0.2-0.2-0.5-0.2-0.9c0.2-0.1,0.5-0.1,0.8-0.2c0.3,0,0.6-0.1,0.9-0.1c0.7,0,1.3,0.2,1.7,0.5
	c0.4,0.3,0.6,0.9,0.6,1.6V93c-0.3,0.1-0.6,0.1-0.9,0.2c-0.4,0.1-0.7,0.1-1.1,0.1c-0.4,0-0.7,0-1-0.1c-0.3-0.1-0.5-0.2-0.7-0.3
	s-0.4-0.3-0.5-0.6c-0.1-0.2-0.2-0.5-0.2-0.8c0-0.3,0.1-0.6,0.2-0.8c0.1-0.2,0.3-0.4,0.5-0.6s0.5-0.3,0.8-0.4
	c0.3-0.1,0.6-0.1,0.9-0.1c0.2,0,0.4,0,0.6,0c0.2,0,0.3,0,0.4,0V89.4z M68.7,90.5c-0.1,0-0.2,0-0.4,0c-0.2,0-0.3,0-0.4,0
	c-0.5,0-0.8,0.1-1,0.3c-0.2,0.2-0.4,0.4-0.4,0.8c0,0.2,0,0.4,0.1,0.5s0.2,0.2,0.3,0.3c0.1,0.1,0.3,0.1,0.4,0.1c0.1,0,0.3,0,0.4,0
	c0.2,0,0.3,0,0.5,0c0.2,0,0.3,0,0.5-0.1V90.5z"/>
<path id="XMLID_128_" class="st5" d="M71.4,87.5c0.1,0,0.2,0,0.2,0c0.1,0,0.2,0,0.2,0c0.1,0,0.2,0,0.2,0c0.1,0,0.2,0,0.2,0
	c0,0.1,0,0.3,0.1,0.4c0,0.2,0,0.3,0,0.5c0.2-0.2,0.4-0.5,0.6-0.6c0.3-0.2,0.6-0.3,1-0.3c0.1,0,0.1,0,0.2,0c0.1,0,0.1,0,0.2,0
	c0,0.1,0,0.1,0,0.2c0,0.1,0,0.2,0,0.2c0,0.1,0,0.2,0,0.3c0,0.1,0,0.2,0,0.3c-0.1,0-0.1,0-0.2,0H74c-0.2,0-0.4,0-0.6,0.1
	c-0.2,0.1-0.3,0.2-0.5,0.3s-0.3,0.3-0.3,0.6c-0.1,0.2-0.1,0.6-0.1,0.9v2.8c-0.1,0-0.2,0-0.3,0c-0.1,0-0.2,0-0.3,0
	c-0.1,0-0.2,0-0.3,0c-0.1,0-0.2,0-0.3,0V87.5z"/>
<path id="XMLID_125_" class="st5" d="M76.2,90.6c0,0.6,0.2,1.1,0.5,1.4c0.3,0.3,0.8,0.4,1.3,0.4c0.5,0,1-0.1,1.5-0.3
	c0.1,0.1,0.1,0.2,0.1,0.4c0,0.2,0.1,0.3,0.1,0.5c-0.2,0.1-0.5,0.2-0.8,0.2c-0.3,0.1-0.6,0.1-1,0.1c-0.5,0-1-0.1-1.3-0.2
	c-0.4-0.1-0.7-0.3-0.9-0.6c-0.2-0.3-0.4-0.6-0.5-0.9c-0.1-0.4-0.2-0.7-0.2-1.2c0-0.4,0.1-0.8,0.2-1.2c0.1-0.4,0.3-0.7,0.5-0.9
	c0.2-0.3,0.5-0.5,0.8-0.6c0.3-0.2,0.7-0.2,1.2-0.2c0.4,0,0.7,0.1,1,0.2c0.3,0.1,0.5,0.3,0.7,0.5c0.2,0.2,0.3,0.5,0.5,0.8
	c0.1,0.3,0.2,0.7,0.2,1c0,0.1,0,0.2,0,0.3c0,0.1,0,0.2,0,0.3H76.2z M79,89.8c0-0.2,0-0.4-0.1-0.6c-0.1-0.2-0.1-0.4-0.2-0.5
	c-0.1-0.1-0.2-0.3-0.4-0.3c-0.2-0.1-0.4-0.1-0.6-0.1c-0.4,0-0.8,0.1-1,0.4c-0.2,0.3-0.4,0.7-0.4,1.1H79z"/>
<path id="XMLID_124_" class="st5" d="M84.3,88.4h-0.9l0-0.2l1.9-2.1h0.1v1.4h1.4c0,0.1,0,0.3,0,0.4c0,0.1,0,0.2,0,0.2
	c0,0.1,0,0.1,0,0.2h-1.4V91c0,0.3,0,0.6,0,0.7c0,0.2,0.1,0.3,0.1,0.4c0.1,0.1,0.1,0.2,0.3,0.2c0.1,0,0.2,0,0.4,0c0.1,0,0.2,0,0.4,0
	c0.1,0,0.2,0,0.3-0.1c0.1,0.1,0.1,0.3,0.1,0.5c0,0.2,0,0.3,0,0.4c-0.1,0-0.3,0.1-0.5,0.1c-0.2,0-0.3,0-0.5,0c-0.5,0-0.9-0.1-1.2-0.4
	c-0.3-0.3-0.4-0.7-0.4-1.3V88.4z"/>
<path id="XMLID_123_" class="st5" d="M88,85.1c0.1,0,0.2,0,0.3,0c0.1,0,0.2,0,0.3,0s0.2,0,0.3,0c0.1,0,0.2,0,0.3,0v3.3
	c0.1-0.1,0.1-0.2,0.2-0.3c0.1-0.1,0.2-0.2,0.4-0.3c0.1-0.1,0.3-0.2,0.5-0.2c0.2-0.1,0.4-0.1,0.6-0.1c0.6,0,1.1,0.2,1.4,0.6
	c0.3,0.4,0.5,0.9,0.5,1.6v3.6c-0.1,0-0.2,0-0.3,0c-0.1,0-0.2,0-0.3,0c-0.1,0-0.2,0-0.3,0c-0.1,0-0.2,0-0.3,0v-3.3
	c0-0.5-0.1-0.9-0.3-1.2c-0.2-0.2-0.4-0.4-0.8-0.4c-0.2,0-0.4,0-0.6,0.1c-0.2,0.1-0.3,0.2-0.5,0.3c-0.1,0.1-0.2,0.3-0.3,0.6
	c-0.1,0.2-0.1,0.5-0.1,0.9v2.9c-0.1,0-0.2,0-0.3,0c-0.1,0-0.2,0-0.3,0c-0.1,0-0.2,0-0.3,0c-0.1,0-0.2,0-0.3,0V85.1z"/>
<path id="XMLID_120_" class="st5" d="M95.2,90.6c0,0.6,0.2,1.1,0.5,1.4c0.3,0.3,0.8,0.4,1.3,0.4c0.5,0,1-0.1,1.5-0.3
	c0.1,0.1,0.1,0.2,0.1,0.4c0,0.2,0.1,0.3,0.1,0.5c-0.2,0.1-0.5,0.2-0.8,0.2c-0.3,0.1-0.6,0.1-1,0.1c-0.5,0-1-0.1-1.3-0.2
	c-0.4-0.1-0.7-0.3-0.9-0.6c-0.2-0.3-0.4-0.6-0.5-0.9c-0.1-0.4-0.2-0.7-0.2-1.2c0-0.4,0.1-0.8,0.2-1.2c0.1-0.4,0.3-0.7,0.5-0.9
	c0.2-0.3,0.5-0.5,0.8-0.6c0.3-0.2,0.7-0.2,1.2-0.2c0.4,0,0.7,0.1,1,0.2c0.3,0.1,0.5,0.3,0.7,0.5c0.2,0.2,0.3,0.5,0.5,0.8
	c0.1,0.3,0.2,0.7,0.2,1c0,0.1,0,0.2,0,0.3c0,0.1,0,0.2,0,0.3H95.2z M98,89.8c0-0.2,0-0.4-0.1-0.6c-0.1-0.2-0.1-0.4-0.2-0.5
	c-0.1-0.1-0.2-0.3-0.4-0.3c-0.2-0.1-0.4-0.1-0.6-0.1c-0.4,0-0.8,0.1-1,0.4c-0.2,0.3-0.4,0.7-0.4,1.1H98z"/>
<path id="XMLID_119_" class="st5" d="M103.1,87.5c0.1,0,0.2,0,0.2,0c0.1,0,0.2,0,0.2,0c0.1,0,0.2,0,0.2,0c0.1,0,0.2,0,0.2,0
	c0,0.1,0,0.3,0.1,0.4c0,0.2,0,0.3,0,0.5c0.2-0.2,0.4-0.5,0.6-0.6c0.3-0.2,0.6-0.3,1-0.3c0.1,0,0.1,0,0.2,0c0.1,0,0.1,0,0.2,0
	c0,0.1,0,0.1,0,0.2c0,0.1,0,0.2,0,0.2c0,0.1,0,0.2,0,0.3c0,0.1,0,0.2,0,0.3c-0.1,0-0.1,0-0.2,0h-0.1c-0.2,0-0.4,0-0.6,0.1
	c-0.2,0.1-0.3,0.2-0.5,0.3s-0.3,0.3-0.3,0.6c-0.1,0.2-0.1,0.6-0.1,0.9v2.8c-0.1,0-0.2,0-0.3,0c-0.1,0-0.2,0-0.3,0
	c-0.1,0-0.2,0-0.3,0c-0.1,0-0.2,0-0.3,0V87.5z"/>
<path id="XMLID_116_" class="st5" d="M107.6,88.4h-0.7c0-0.1,0-0.1,0-0.2c0-0.1,0-0.2,0-0.2c0-0.1,0-0.2,0-0.2c0-0.1,0-0.1,0-0.2
	h1.8v5.7c-0.1,0-0.2,0-0.3,0c-0.1,0-0.2,0-0.3,0c-0.1,0-0.2,0-0.3,0c-0.1,0-0.2,0-0.3,0V88.4z M107.3,86.3c0-0.1,0-0.2,0-0.3
	c0-0.1,0-0.2,0-0.3c0-0.1,0-0.2,0-0.3c0-0.1,0-0.2,0-0.3c0.1,0,0.2,0,0.3,0c0.1,0,0.2,0,0.3,0c0.1,0,0.2,0,0.3,0c0.1,0,0.2,0,0.3,0
	c0,0.1,0,0.2,0,0.3c0,0.1,0,0.2,0,0.3c0,0.1,0,0.2,0,0.3c0,0.1,0,0.2,0,0.3c-0.1,0-0.2,0-0.3,0c-0.1,0-0.2,0-0.3,0
	c-0.1,0-0.2,0-0.3,0C107.5,86.3,107.4,86.3,107.3,86.3"/>
<path id="XMLID_112_" class="st5" d="M113.5,92.4c0.7,0,1.1,0.2,1.4,0.4c0.3,0.3,0.4,0.6,0.4,1.1c0,0.3-0.1,0.6-0.2,0.8
	c-0.2,0.2-0.4,0.4-0.6,0.6c-0.3,0.2-0.6,0.3-1,0.4c-0.4,0.1-0.8,0.1-1.2,0.1c-0.8,0-1.3-0.1-1.7-0.4c-0.4-0.2-0.6-0.6-0.6-1.1
	c0-0.3,0.1-0.6,0.2-0.8c0.2-0.2,0.4-0.4,0.6-0.6c-0.1-0.1-0.3-0.2-0.4-0.4c-0.1-0.1-0.1-0.3-0.1-0.5c0-0.3,0.1-0.5,0.2-0.7
	c0.1-0.2,0.3-0.4,0.5-0.5c-0.2-0.2-0.4-0.4-0.6-0.7c-0.1-0.3-0.2-0.6-0.2-0.9c0-0.3,0.1-0.5,0.2-0.8c0.1-0.2,0.3-0.5,0.4-0.6
	c0.2-0.2,0.4-0.3,0.7-0.4c0.3-0.1,0.6-0.2,1-0.2c0.3,0,0.6,0,0.9,0.1c0.3,0.1,0.5,0.2,0.7,0.4c0.1-0.1,0.3-0.2,0.6-0.3
	c0.2-0.1,0.5-0.1,0.8-0.1c0,0.1,0,0.3,0,0.5c0,0.1,0,0.2,0,0.3c0,0.1,0,0.2,0,0.3h-1c0.1,0.1,0.1,0.3,0.2,0.4c0,0.1,0.1,0.3,0.1,0.5
	c0,0.3-0.1,0.6-0.2,0.8c-0.1,0.2-0.3,0.5-0.5,0.6c-0.2,0.2-0.4,0.3-0.7,0.4c-0.3,0.1-0.6,0.1-0.9,0.1c-0.3,0-0.6,0-0.8-0.1
	c-0.1,0.1-0.2,0.1-0.3,0.3s-0.1,0.3-0.1,0.4c0,0.1,0,0.2,0.1,0.3c0.1,0.1,0.3,0.2,0.6,0.2L113.5,92.4z M112,93.3
	c-0.3,0-0.6,0.1-0.7,0.3c-0.2,0.2-0.2,0.4-0.2,0.7c0,0.2,0,0.3,0.1,0.4s0.2,0.2,0.3,0.2s0.3,0.1,0.4,0.1c0.2,0,0.3,0,0.5,0
	c0.6,0,1-0.1,1.4-0.3c0.3-0.2,0.5-0.4,0.5-0.7c0-0.2-0.1-0.4-0.2-0.5c-0.1-0.1-0.4-0.2-0.8-0.2L112,93.3z M112.5,90.6
	c0.4,0,0.7-0.1,0.9-0.3c0.2-0.2,0.3-0.5,0.3-0.8c0-0.4-0.1-0.6-0.3-0.9c-0.2-0.2-0.5-0.3-0.9-0.3c-0.4,0-0.7,0.1-0.9,0.3
	c-0.2,0.2-0.3,0.5-0.3,0.9c0,0.3,0.1,0.6,0.3,0.8C111.8,90.5,112.1,90.6,112.5,90.6"/>
<path id="XMLID_111_" class="st5" d="M116.5,85.1c0.1,0,0.2,0,0.3,0c0.1,0,0.2,0,0.3,0s0.2,0,0.3,0c0.1,0,0.2,0,0.3,0v3.3
	c0.1-0.1,0.1-0.2,0.2-0.3c0.1-0.1,0.2-0.2,0.4-0.3c0.1-0.1,0.3-0.2,0.5-0.2c0.2-0.1,0.4-0.1,0.6-0.1c0.6,0,1.1,0.2,1.4,0.6
	c0.3,0.4,0.5,0.9,0.5,1.6v3.6c-0.1,0-0.2,0-0.3,0c-0.1,0-0.2,0-0.3,0c-0.1,0-0.2,0-0.3,0c-0.1,0-0.2,0-0.3,0v-3.3
	c0-0.5-0.1-0.9-0.3-1.2c-0.2-0.2-0.4-0.4-0.8-0.4c-0.2,0-0.4,0-0.6,0.1c-0.2,0.1-0.3,0.2-0.5,0.3c-0.1,0.1-0.2,0.3-0.3,0.6
	c-0.1,0.2-0.1,0.5-0.1,0.9v2.9c-0.1,0-0.2,0-0.3,0c-0.1,0-0.2,0-0.3,0c-0.1,0-0.2,0-0.3,0c-0.1,0-0.2,0-0.3,0V85.1z"/>
<path id="XMLID_110_" class="st5" d="M123.1,88.4h-0.9l0-0.2l1.9-2.1h0.1v1.4h1.4c0,0.1,0,0.3,0,0.4c0,0.1,0,0.2,0,0.2
	c0,0.1,0,0.1,0,0.2h-1.4V91c0,0.3,0,0.6,0,0.7c0,0.2,0.1,0.3,0.1,0.4c0.1,0.1,0.1,0.2,0.3,0.2c0.1,0,0.2,0,0.4,0c0.1,0,0.2,0,0.4,0
	c0.1,0,0.2,0,0.3-0.1c0.1,0.1,0.1,0.3,0.1,0.5c0,0.2,0,0.3,0,0.4c-0.1,0-0.3,0.1-0.5,0.1c-0.2,0-0.3,0-0.5,0c-0.5,0-0.9-0.1-1.2-0.4
	c-0.3-0.3-0.4-0.7-0.4-1.3V88.4z"/>
<path id="XMLID_109_" class="st5" d="M128.8,87.5c0.1,0,0.2,0,0.3,0c0.1,0,0.2,0,0.3,0c0.1,0,0.2,0,0.3,0c0.1,0,0.2,0,0.3,0l1.1,4.6
	l1.2-4.6c0.1,0,0.2,0,0.3,0c0.1,0,0.2,0,0.3,0c0.1,0,0.2,0,0.3,0c0.1,0,0.2,0,0.2,0l1.2,4.5l1.1-4.5c0.1,0,0.2,0,0.2,0
	c0.1,0,0.2,0,0.3,0c0.1,0,0.2,0,0.3,0c0.1,0,0.2,0,0.3,0l-1.7,5.7c-0.1,0-0.2,0-0.3,0c-0.1,0-0.2,0-0.3,0c-0.1,0-0.2,0-0.3,0
	c-0.1,0-0.2,0-0.3,0l-1.2-4.3l-1.3,4.3c-0.1,0-0.2,0-0.3,0c-0.1,0-0.2,0-0.3,0s-0.2,0-0.3,0c-0.1,0-0.2,0-0.3,0L128.8,87.5z"/>
<path id="XMLID_106_" class="st5" d="M141,89.4c0-0.4-0.1-0.7-0.3-0.9c-0.2-0.2-0.5-0.3-1-0.3c-0.3,0-0.5,0-0.7,0.1
	c-0.2,0-0.4,0.1-0.7,0.2c-0.1-0.2-0.2-0.5-0.2-0.9c0.2-0.1,0.5-0.1,0.8-0.2c0.3,0,0.6-0.1,0.9-0.1c0.7,0,1.3,0.2,1.7,0.5
	c0.4,0.3,0.6,0.9,0.6,1.6V93c-0.3,0.1-0.6,0.1-0.9,0.2c-0.4,0.1-0.7,0.1-1.1,0.1c-0.4,0-0.7,0-1-0.1c-0.3-0.1-0.5-0.2-0.7-0.3
	s-0.4-0.3-0.5-0.6c-0.1-0.2-0.2-0.5-0.2-0.8c0-0.3,0.1-0.6,0.2-0.8c0.1-0.2,0.3-0.4,0.5-0.6s0.5-0.3,0.8-0.4
	c0.3-0.1,0.6-0.1,0.9-0.1c0.2,0,0.4,0,0.6,0c0.2,0,0.3,0,0.4,0V89.4z M141,90.5c-0.1,0-0.2,0-0.4,0c-0.2,0-0.3,0-0.4,0
	c-0.5,0-0.8,0.1-1,0.3c-0.2,0.2-0.4,0.4-0.4,0.8c0,0.2,0,0.4,0.1,0.5s0.2,0.2,0.3,0.3c0.1,0.1,0.3,0.1,0.4,0.1c0.1,0,0.3,0,0.4,0
	c0.2,0,0.3,0,0.5,0c0.2,0,0.3,0,0.5-0.1V90.5z"/>
<path id="XMLID_105_" class="st5" d="M145.6,93.2c-0.1,0-0.1,0-0.2,0c-0.1,0-0.1,0-0.2,0c-0.1,0-0.2,0-0.2,0c-0.1,0-0.1,0-0.2,0
	l-1.9-5.7c0.1,0,0.2,0,0.3,0c0.1,0,0.2,0,0.3,0c0.1,0,0.2,0,0.3,0c0.1,0,0.2,0,0.3,0l1.6,5.3l1.6-5.3c0.2,0,0.3,0,0.5,0
	c0.1,0,0.2,0,0.3,0c0.1,0,0.2,0,0.3,0l-2.2,6.8c-0.1,0.3-0.2,0.6-0.3,0.8c-0.1,0.2-0.2,0.4-0.4,0.5c-0.1,0.1-0.3,0.2-0.5,0.3
	c-0.2,0.1-0.4,0.1-0.6,0.1c-0.2,0-0.3,0-0.5,0c-0.2,0-0.3-0.1-0.4-0.1c0-0.2,0-0.3,0-0.5c0-0.1,0.1-0.3,0.1-0.4c0.1,0,0.2,0,0.3,0.1
	c0.1,0,0.2,0,0.4,0c0.1,0,0.2,0,0.3,0c0.1,0,0.2-0.1,0.2-0.1c0.1-0.1,0.1-0.1,0.2-0.2c0.1-0.1,0.1-0.2,0.2-0.4L145.6,93.2z"/>
<path id="XMLID_104_" class="st5" d="M149.8,92c0.1,0,0.2,0,0.3,0c0.1,0,0.2,0,0.3,0c0.1,0,0.2,0,0.3,0c0.1,0,0.2,0,0.3,0l-1.1,2.4
	c-0.1,0-0.2,0-0.3,0c-0.1,0-0.2,0-0.3,0c-0.2,0-0.4,0-0.5,0L149.8,92z"/>
<path id="XMLID_36_" class="st5" d="M154.6,93.2c0.1-0.5,0.2-1,0.3-1.5c0.1-0.5,0.2-1,0.3-1.5c0.1-0.5,0.2-0.9,0.2-1.3
	c0.1-0.4,0.1-0.7,0.1-1c0-0.1,0-0.2,0-0.2s0-0.1,0-0.2c0.1,0,0.2,0,0.3,0c0.1,0,0.2,0,0.3,0c0.1,0,0.2,0,0.2,0c0.1,0,0.2,0,0.2,0
	c0,0.1,0,0.1,0,0.2c0,0.1,0,0.2,0,0.3c0,0.2,0,0.3,0,0.5c0.1-0.1,0.2-0.3,0.3-0.4c0.1-0.1,0.2-0.2,0.4-0.3c0.1-0.1,0.3-0.2,0.5-0.2
	c0.2-0.1,0.4-0.1,0.6-0.1c0.1,0,0.1,0,0.2,0c0.1,0,0.1,0,0.2,0c0,0.1,0,0.3-0.1,0.5c0,0.2-0.1,0.3-0.2,0.5c0,0-0.1,0-0.1,0
	c-0.1,0-0.1,0-0.2,0c-0.5,0-0.9,0.2-1.2,0.5c-0.3,0.4-0.5,0.9-0.7,1.6l-0.5,2.5c-0.2,0-0.3,0-0.5,0H155L154.6,93.2z"/>
<path id="XMLID_33_" class="st5" d="M159.7,88.4H159c0-0.1,0-0.3,0-0.4c0-0.1,0.1-0.3,0.1-0.4h1.8l-1,5.7c-0.1,0-0.2,0-0.3,0
	c-0.1,0-0.2,0-0.3,0c-0.1,0-0.2,0-0.3,0c-0.1,0-0.2,0-0.3,0L159.7,88.4z M159.7,86.4c0-0.2,0-0.4,0.1-0.6c0-0.2,0.1-0.4,0.1-0.6
	c0.1,0,0.2,0,0.3,0c0.1,0,0.2,0,0.3,0c0.1,0,0.2,0,0.3,0c0.1,0,0.2,0,0.3,0c0,0.2,0,0.4-0.1,0.6c0,0.2-0.1,0.4-0.1,0.6
	c-0.1,0-0.2,0-0.3,0c-0.1,0-0.2,0-0.3,0c-0.1,0-0.2,0-0.3,0C159.9,86.4,159.8,86.4,159.7,86.4"/>
<path id="XMLID_30_" class="st5" d="M165.3,91.9c-0.1,0.2-0.2,0.3-0.3,0.5c-0.1,0.2-0.3,0.3-0.5,0.5c-0.2,0.1-0.4,0.2-0.6,0.3
	c-0.2,0.1-0.5,0.1-0.7,0.1c-0.5,0-0.9-0.2-1.1-0.5c-0.2-0.3-0.4-0.8-0.4-1.3c0-0.5,0.1-1,0.2-1.5c0.2-0.5,0.4-0.9,0.7-1.3
	c0.3-0.4,0.7-0.7,1.2-0.9c0.5-0.2,1-0.4,1.6-0.4c0.3,0,0.5,0,0.8,0.1c0.3,0,0.5,0.1,0.7,0.2c-0.2,0.9-0.3,1.8-0.5,2.8
	c-0.2,0.9-0.3,1.8-0.5,2.8c-0.1,0.5-0.2,0.9-0.4,1.3c-0.2,0.3-0.5,0.6-0.8,0.8c-0.3,0.2-0.6,0.4-1,0.5c-0.4,0.1-0.8,0.1-1.2,0.1
	c-0.2,0-0.5,0-0.8-0.1c-0.2,0-0.5-0.1-0.6-0.2c0-0.3,0.1-0.6,0.2-0.9c0.1,0,0.3,0.1,0.5,0.1c0.2,0,0.4,0.1,0.7,0.1
	c0.3,0,0.6,0,0.9-0.1c0.3-0.1,0.5-0.2,0.7-0.3s0.4-0.4,0.5-0.6c0.1-0.2,0.2-0.6,0.3-0.9L165.3,91.9z M165.9,88.4
	c-0.2,0-0.4-0.1-0.6-0.1c-0.4,0-0.7,0.1-1,0.3c-0.3,0.2-0.5,0.4-0.7,0.7c-0.2,0.3-0.4,0.6-0.5,1c-0.1,0.4-0.2,0.7-0.2,1.1
	c0,0.4,0.1,0.6,0.2,0.8c0.1,0.2,0.3,0.3,0.6,0.3c0.2,0,0.5-0.1,0.7-0.2c0.2-0.1,0.4-0.3,0.6-0.6c0.2-0.3,0.3-0.6,0.5-0.9
	c0.1-0.3,0.2-0.7,0.3-1.1L165.9,88.4z"/>
<path id="XMLID_29_" class="st5" d="M168.8,87.4c0.1-0.4,0.1-0.8,0.2-1.1c0-0.3,0.1-0.6,0.1-0.8c0-0.1,0-0.2,0-0.2
	c0-0.1,0-0.1,0-0.2c0.1,0,0.2,0,0.3,0c0.1,0,0.2,0,0.3,0c0.1,0,0.2,0,0.2,0c0.1,0,0.2,0,0.2,0c0,0.1,0,0.3,0,0.4c0,0.1,0,0.2,0,0.3
	c0,0.1,0,0.2,0,0.4c0,0.1,0,0.3-0.1,0.4c0,0.1,0,0.3-0.1,0.4c-0.1,0.2-0.1,0.5-0.1,0.7s-0.1,0.5-0.1,0.7c0.2-0.3,0.5-0.5,0.8-0.7
	c0.3-0.2,0.7-0.3,1.1-0.3c0.4,0,0.8,0.1,1.1,0.4c0.3,0.2,0.4,0.6,0.4,1.1c0,0.1,0,0.2,0,0.4c0,0.1,0,0.3-0.1,0.4l-0.6,3.6
	c-0.1,0-0.2,0-0.3,0c-0.1,0-0.2,0-0.3,0c-0.1,0-0.2,0-0.3,0c-0.1,0-0.2,0-0.3,0c0.1-0.6,0.2-1.1,0.3-1.7c0.1-0.6,0.2-1.1,0.3-1.7
	l0-0.3c0-0.1,0-0.2,0-0.3c0-0.3-0.1-0.5-0.2-0.6c-0.1-0.1-0.3-0.2-0.6-0.2c-0.2,0-0.3,0-0.5,0.1c-0.2,0.1-0.3,0.2-0.5,0.4
	c-0.2,0.2-0.3,0.4-0.4,0.7c-0.1,0.3-0.2,0.7-0.3,1.2c-0.1,0.4-0.2,0.8-0.2,1.2c-0.1,0.4-0.1,0.8-0.2,1.2c-0.1,0-0.2,0-0.3,0
	c-0.1,0-0.2,0-0.3,0c0,0-0.1,0-0.2,0c-0.1,0-0.2,0-0.3,0L168.8,87.4z"/>
<path id="XMLID_28_" class="st5" d="M175.1,88.4h-0.9c0-0.1,0-0.3,0-0.4c0-0.1,0.1-0.3,0.1-0.4h0.9c0-0.2,0.1-0.4,0.1-0.6
	c0-0.2,0-0.4,0-0.6v-0.2c0.1-0.1,0.3-0.1,0.5-0.2c0.2,0,0.4-0.1,0.5-0.1c0,0.1,0,0.1,0,0.2c0,0.1,0,0.1,0,0.2c0,0.2,0,0.5-0.1,0.8
	l-0.1,0.3h1.4c0,0.2,0,0.3,0,0.4c0,0.1-0.1,0.3-0.1,0.4h-1.4l-0.4,2.4c0,0.2-0.1,0.3-0.1,0.5c0,0.2,0,0.3,0,0.5
	c0,0.2,0.1,0.4,0.2,0.5c0.1,0.1,0.3,0.1,0.5,0.1c0.1,0,0.2,0,0.3,0c0.1,0,0.2,0,0.3-0.1c0,0.1,0,0.2,0.1,0.2c0,0.1,0,0.2,0,0.3V93
	c0,0.1,0,0.1,0,0.2c-0.1,0-0.2,0.1-0.4,0.1c-0.2,0-0.3,0-0.5,0c-0.2,0-0.5,0-0.6-0.1c-0.2,0-0.4-0.1-0.5-0.2
	c-0.1-0.1-0.2-0.2-0.3-0.4c-0.1-0.2-0.1-0.4-0.1-0.6c0-0.1,0-0.3,0-0.4c0-0.2,0.1-0.3,0.1-0.5L175.1,88.4z"/>
<path id="XMLID_25_" class="st5" d="M185.2,90.8c-0.1,0.4-0.1,0.8-0.2,1.1c0,0.3-0.1,0.6-0.1,0.8c0,0.1,0,0.2,0,0.2
	c0,0.1,0,0.1,0,0.2c-0.1,0-0.2,0-0.3,0c-0.1,0-0.2,0-0.3,0c-0.1,0-0.2,0-0.2,0c-0.1,0-0.2,0-0.3,0c0-0.1,0-0.2,0-0.2
	c0-0.1,0-0.2,0-0.3c0-0.1,0-0.2,0-0.3c0-0.1,0-0.3,0.1-0.4c-0.1,0.2-0.2,0.3-0.3,0.5c-0.1,0.2-0.3,0.3-0.5,0.5
	c-0.2,0.1-0.4,0.2-0.6,0.3c-0.2,0.1-0.5,0.1-0.7,0.1c-0.5,0-0.9-0.2-1.1-0.5c-0.2-0.3-0.4-0.8-0.4-1.3c0-0.5,0.1-1,0.2-1.5
	c0.2-0.5,0.4-0.9,0.7-1.3c0.3-0.4,0.7-0.7,1.2-0.9c0.5-0.2,1-0.4,1.6-0.4c0.3,0,0.5,0,0.8,0.1c0.3,0,0.5,0.1,0.7,0.2L185.2,90.8z
	 M184.5,88.4c-0.1,0-0.2,0-0.3,0c-0.1,0-0.2,0-0.3,0c-0.4,0-0.7,0.1-1,0.3c-0.3,0.2-0.5,0.4-0.7,0.7c-0.2,0.3-0.4,0.6-0.5,1
	c-0.1,0.4-0.2,0.7-0.2,1.1c0,0.4,0.1,0.6,0.2,0.8c0.1,0.2,0.3,0.3,0.6,0.3c0.2,0,0.4-0.1,0.7-0.2c0.2-0.1,0.4-0.4,0.6-0.6
	c0.2-0.3,0.3-0.6,0.5-0.9c0.1-0.3,0.2-0.7,0.3-1.1L184.5,88.4z"/>
<path id="XMLID_24_" class="st5" d="M186.8,87.5c0.1,0,0.2,0,0.3,0c0.1,0,0.2,0,0.3,0c0.2,0,0.4,0,0.6,0l0.4,4.4l1.8-4.4
	c0.1,0,0.2,0,0.3,0c0.1,0,0.2,0,0.3,0c0.1,0,0.2,0,0.3,0c0.1,0,0.2,0,0.3,0l0.5,4.4l1.4-3.3c0.1-0.2,0.1-0.4,0.2-0.6
	c0-0.2,0-0.3,0-0.4v-0.1c0.1,0,0.2,0,0.3,0c0.1,0,0.2,0,0.3,0c0.2,0,0.4,0,0.6,0v0c0,0.2,0,0.3-0.1,0.5c-0.1,0.2-0.2,0.4-0.3,0.7
	l-2,4.4c-0.1,0-0.2,0-0.3,0c-0.1,0-0.2,0-0.3,0c-0.1,0-0.2,0-0.3,0c-0.1,0-0.2,0-0.3,0l-0.6-4.1l-1.7,4.1c-0.1,0-0.2,0-0.3,0
	c-0.1,0-0.2,0-0.3,0c-0.1,0-0.2,0-0.3,0c-0.1,0-0.2,0-0.3,0L186.8,87.5z"/>
<path id="XMLID_21_" class="st5" d="M199.6,90.8c-0.1,0.4-0.1,0.8-0.2,1.1c0,0.3-0.1,0.6-0.1,0.8c0,0.1,0,0.2,0,0.2
	c0,0.1,0,0.1,0,0.2c-0.1,0-0.2,0-0.3,0c-0.1,0-0.2,0-0.3,0c-0.1,0-0.2,0-0.2,0c-0.1,0-0.2,0-0.3,0c0-0.1,0-0.2,0-0.2
	c0-0.1,0-0.2,0-0.3c0-0.1,0-0.2,0-0.3c0-0.1,0-0.3,0.1-0.4c-0.1,0.2-0.2,0.3-0.3,0.5c-0.1,0.2-0.3,0.3-0.5,0.5
	c-0.2,0.1-0.4,0.2-0.6,0.3c-0.2,0.1-0.5,0.1-0.7,0.1c-0.5,0-0.9-0.2-1.1-0.5c-0.2-0.3-0.4-0.8-0.4-1.3c0-0.5,0.1-1,0.2-1.5
	c0.2-0.5,0.4-0.9,0.7-1.3c0.3-0.4,0.7-0.7,1.2-0.9c0.5-0.2,1-0.4,1.6-0.4c0.3,0,0.5,0,0.8,0.1c0.3,0,0.5,0.1,0.7,0.2L199.6,90.8z
	 M198.9,88.4c-0.1,0-0.2,0-0.3,0c-0.1,0-0.2,0-0.3,0c-0.4,0-0.7,0.1-1,0.3c-0.3,0.2-0.5,0.4-0.7,0.7c-0.2,0.3-0.4,0.6-0.5,1
	c-0.1,0.4-0.2,0.7-0.2,1.1c0,0.4,0.1,0.6,0.2,0.8c0.1,0.2,0.3,0.3,0.6,0.3c0.2,0,0.4-0.1,0.7-0.2c0.2-0.1,0.4-0.4,0.6-0.6
	c0.2-0.3,0.3-0.6,0.5-0.9c0.1-0.3,0.2-0.7,0.3-1.1L198.9,88.4z"/>
<path id="XMLID_20_" class="st5" d="M202.8,92.6c0.2-0.5,0.4-1,0.6-1.4c0.2-0.4,0.4-0.8,0.5-1.2c0.2-0.4,0.3-0.7,0.4-1
	c0.1-0.3,0.2-0.6,0.3-0.8c0-0.1,0.1-0.2,0.1-0.3c0-0.1,0-0.2,0-0.3c0,0,0-0.1,0-0.1c0,0,0,0,0-0.1c0.1,0,0.3,0,0.5,0h0.7
	c0,0,0,0.1,0,0.1v0.1c0,0.2,0,0.4-0.1,0.6c-0.1,0.2-0.2,0.4-0.2,0.6c-0.3,0.7-0.7,1.5-1.1,2.3c-0.4,0.8-0.8,1.7-1.3,2.7
	c-0.2,0.4-0.4,0.8-0.6,1c-0.2,0.3-0.4,0.5-0.6,0.6c-0.2,0.1-0.4,0.2-0.6,0.3c-0.2,0.1-0.4,0.1-0.6,0.1c-0.3,0-0.5,0-0.8-0.1
	c0-0.2,0-0.3,0.1-0.5c0-0.1,0.1-0.3,0.2-0.4c0.1,0,0.1,0,0.2,0.1c0.1,0,0.2,0,0.3,0c0.1,0,0.2,0,0.3,0c0.1,0,0.2-0.1,0.4-0.2
	c0.1-0.1,0.3-0.3,0.4-0.6c0.1-0.2,0.3-0.6,0.5-1c-0.1,0-0.1,0-0.2,0h-0.2H202c-0.1,0-0.1,0-0.2,0c-0.1-0.9-0.2-1.9-0.4-2.8
	c-0.1-0.9-0.2-1.9-0.4-2.8c0.1,0,0.2,0,0.3,0c0.1,0,0.2,0,0.3,0c0.1,0,0.2,0,0.3,0c0.1,0,0.2,0,0.3,0L202.8,92.6z"/>
<path id="XMLID_19_" class="st5" d="M205.7,93.2c0-0.2,0-0.4,0.1-0.6c0-0.2,0.1-0.4,0.1-0.6c0.1,0,0.2,0,0.3,0c0.1,0,0.2,0,0.3,0
	c0.1,0,0.2,0,0.3,0c0.1,0,0.2,0,0.3,0c0,0.2,0,0.4-0.1,0.6c0,0.2-0.1,0.4-0.1,0.6c-0.1,0-0.2,0-0.3,0c-0.1,0-0.2,0-0.3,0
	c-0.1,0-0.2,0-0.3,0C205.9,93.2,205.8,93.2,205.7,93.2"/>
<rect id="XMLID_10_" x="8.3" y="74.7" class="st6" width="211.9" height="0.2"/>
</svg>
