<?xml version="1.0" encoding="utf-8"?>
<!-- Generator: Adobe Illustrator 19.0.0, SVG Export Plug-In . SVG Version: 6.00 Build 0)  -->
<!DOCTYPE svg PUBLIC "-//W3C//DTD SVG 1.1//EN" "http://www.w3.org/Graphics/SVG/1.1/DTD/svg11.dtd">
<svg version="1.1" id="Layer_1" xmlns="http://www.w3.org/2000/svg" xmlns:xlink="http://www.w3.org/1999/xlink" x="0px" y="0px"
	 viewBox="0 0 475.3 65.7" style="enable-background:new 0 0 475.3 65.7;" xml:space="preserve">
<style type="text/css">
	.st0{fill:#F7931E;}
	.st1{fill:#3793D0;}
	.st2{clip-path:url(#XMLID_297_);fill:#DC7927;}
	.st3{fill:#DC7927;}
	.st4{fill:#606872;}
	.st5{fill:#87929F;}
</style>
<path id="XMLID_182_" class="st0" d="M20.1,41.9c4.5,0,7-1.7,7.5-5l0.5-3.2c0.1-0.6,0.1-1.1,0.1-1.6c0-0.4,0-0.8,0-1.1
	c-0.2-1.5-1.6-2.3-4-2.3H18c-2.8,0-4.8-0.6-5.8-1.7c-0.9-1-1.4-2.2-1.4-3.5c0-0.3,0.1-1.2,0.2-2.5l0.5-3.1c0.6-3.5,1.8-5.8,3.8-6.9
	c1.6-0.9,3.7-1.4,6.2-1.4c1.9,0,4.1,0.1,6.8,0.4c2.7,0.3,4.3,0.5,4.9,0.6l-0.3,2.1l-11.2-0.4h-0.7c-1.8,0-3.3,0.4-4.5,1.1
	c-1.1,0.7-1.9,2.3-2.2,4.6l-0.5,3.1c-0.2,1.3-0.2,2.2,0,2.7c0.2,0.5,0.3,0.8,0.4,1.1c0.1,0.3,0.3,0.5,0.6,0.6
	c0.3,0.2,0.5,0.3,0.8,0.4c0.2,0.1,0.5,0.1,0.9,0.2c0.6,0,1.3,0,2.2,0h6.1c1.4,0,2.6,0.2,3.6,0.7c1,0.5,1.6,1,2,1.8
	c0.6,1.1,0.8,2.1,0.8,3.1c0,0.9-0.1,1.7-0.2,2.3L30.2,37c-0.3,2.3-1.1,4-2.3,5.1c-1.3,1.1-2.4,1.8-3.5,2c-1.7,0.3-3.2,0.5-4.7,0.5
	s-3.5-0.1-6-0.4c-2.5-0.2-4.3-0.4-5.3-0.6l0.3-2.1C10.9,41.8,14.7,41.9,20.1,41.9"/>
<polygon id="XMLID_181_" class="st0" points="37.9,12.6 38.3,9.9 62.6,9.9 62.2,12.6 51.3,12.6 46.2,44.3 43.6,44.3 48.5,12.6 "/>
<path id="XMLID_178_" class="st0" d="M55.1,44.3L73.3,9.9h2.8l6.7,34.4h-2.7l-2-10.3H63.6l-5.5,10.3H55.1z M65,31.2h12.5l-3.3-17.7
	L65,31.2z"/>
<polygon id="XMLID_177_" class="st0" points="85.8,12.6 86.2,9.9 110.6,9.9 110.1,12.6 99.2,12.6 94.2,44.3 91.5,44.3 96.5,12.6 "/>
<polygon id="XMLID_176_" class="st1" points="127.8,45.2 135.9,9.9 141.8,9.9 146,37.8 158.7,9.9 164.8,9.9 162.1,45.2 157.7,45.2 
	160,17.7 147.4,45.2 142.6,45.2 138.5,17.8 132.2,45.2 "/>
<path id="XMLID_173_" class="st1" d="M186.1,9.9c3.5,0,6,1.1,7.5,3.2c1.5,2.1,2.4,4.5,2.6,7.2c0.1,0.8,0.1,1.6,0.1,2.2
	c0,1.8-0.2,3.6-0.5,5.4c-0.9,5.6-2.6,9.9-5,12.8c-2.4,3-5.8,4.4-10.1,4.4h-13.6l5.6-35.3C172.7,9.9,177.1,9.9,186.1,9.9 M181.1,40.8
	c1.8,0,3.5-0.6,5-1.9c2.7-2.3,4.5-6.1,5.4-11.3c0.3-2,0.5-3.9,0.5-5.7c0-5.2-2.2-7.8-6.7-7.8h-8.8l-4.2,26.8H181.1z"/>
<g id="XMLID_169_">
	<g id="XMLID_170_">
		<defs>
			<rect id="XMLID_171_" x="106.9" y="23.5" width="14.6" height="14.6"/>
		</defs>
		<clipPath id="XMLID_297_">
			<use xlink:href="#XMLID_171_"  style="overflow:visible;"/>
		</clipPath>
		<path id="XMLID_172_" class="st2" d="M110.6,30.8c-3.6,0-3.6-3.6-3.6-3.6v-3.6c12.7,0,14.6,14.6,14.6,14.6h-7.3v-7.3H110.6z"/>
	</g>
</g>
<polygon id="XMLID_168_" class="st3" points="114.2,38 114.2,38 114.2,30.8 "/>
<path id="XMLID_167_" class="st3" d="M121.5,38c0,0-1.8-14.6-14.6-14.6v3.6c0,0,0,1,0.5,2c0.5,0.9,1.4,1.7,3.1,1.7h3.6V38H121.5z"/>
<path id="XMLID_166_" class="st0" d="M129.4,23.5h-8v-7.3h-7.3v7.3h-7.3c12.7,0,14.6,14.6,14.6,14.6v-7.3h6.3L129.4,23.5z"/>
<path id="XMLID_165_" class="st4" d="M120.6,52.3c0,0.9-0.3,1.7-1,2.3c-0.6,0.6-1.4,1-2.3,1s-1.7-0.3-2.3-1c-0.6-0.6-1-1.4-1-2.3v-4
	c0-0.2,0.1-0.3,0.2-0.4c0.1-0.1,0.3-0.2,0.4-0.2c0.2,0,0.3,0.1,0.4,0.2c0.1,0.1,0.2,0.3,0.2,0.4v4c0,0.6,0.2,1,0.6,1.4
	c0.4,0.4,0.9,0.6,1.4,0.6s1-0.2,1.4-0.6c0.4-0.4,0.6-0.9,0.6-1.4v-4c0-0.2,0.1-0.3,0.2-0.4c0.1-0.1,0.3-0.2,0.4-0.2
	c0.2,0,0.3,0.1,0.4,0.2c0.1,0.1,0.2,0.3,0.2,0.4V52.3z"/>
<path id="XMLID_164_" class="st4" d="M124.3,50.6c0.2-0.2,0.4-0.4,0.7-0.5c0.3-0.1,0.6-0.2,0.8-0.2c0.3,0,0.4,0.1,0.6,0.2
	c0.1,0.1,0.2,0.3,0.2,0.4c0,0.2-0.1,0.3-0.2,0.4c-0.1,0.1-0.3,0.2-0.4,0.2c-0.7,0-1.3,0.6-1.7,1.7V55c0,0.2-0.1,0.3-0.2,0.4
	c-0.1,0.1-0.3,0.2-0.4,0.2c-0.2,0-0.3-0.1-0.4-0.2c-0.1-0.1-0.2-0.3-0.2-0.4v-4.5c0-0.2,0.1-0.3,0.2-0.4c0.1-0.1,0.3-0.2,0.4-0.2
	c0.2,0,0.3,0.1,0.4,0.2C124.3,50.2,124.3,50.4,124.3,50.6L124.3,50.6z"/>
<path id="XMLID_161_" class="st4" d="M128.5,54.8c-0.5-0.5-0.8-1.2-0.8-2c0-0.8,0.3-1.5,0.8-2c0.5-0.6,1.2-0.8,1.9-0.8
	c0.6,0,1.1,0.2,1.5,0.5c0-0.1,0.1-0.3,0.2-0.3c0.1-0.1,0.2-0.1,0.4-0.1c0.2,0,0.3,0.1,0.4,0.2c0.1,0.1,0.2,0.3,0.2,0.4v4.4
	c0,0.7-0.3,1.4-0.8,1.9c-0.5,0.5-1.2,0.8-1.9,0.8c-0.4,0-0.8-0.1-1.2-0.3c-0.2-0.1-0.3-0.2-0.3-0.3c-0.1-0.2,0-0.3,0-0.5
	c0.1-0.2,0.2-0.3,0.3-0.3c0.2-0.1,0.3,0,0.5,0c0.2,0.1,0.4,0.2,0.7,0.2c0.3,0,0.6-0.1,0.9-0.3c0.3-0.2,0.5-0.5,0.5-0.9
	c-0.4,0.3-0.9,0.5-1.5,0.5C129.7,55.7,129,55.4,128.5,54.8 M128.9,52.8c0,0.4,0.1,0.8,0.4,1.1c0.3,0.3,0.6,0.5,1.1,0.5
	c0.4,0,0.8-0.2,1.1-0.5c0.3-0.3,0.4-0.7,0.4-1.2c0-0.5-0.1-0.9-0.4-1.2c-0.3-0.3-0.6-0.5-1.1-0.5c-0.4,0-0.8,0.2-1.1,0.5
	C129.1,52,128.9,52.4,128.9,52.8"/>
<path id="XMLID_158_" class="st4" d="M140.7,52.6c0,0.2-0.1,0.3-0.2,0.4c-0.1,0.1-0.3,0.2-0.4,0.2h-3.6c0.1,0.3,0.2,0.6,0.4,0.7
	c0.2,0.3,0.6,0.4,1.1,0.5c0.5,0.1,0.9,0,1.2-0.3c0.1-0.1,0.3-0.2,0.5-0.2c0.2,0,0.3,0,0.4,0.1c0.2,0.2,0.2,0.5,0,0.7
	c-0.5,0.5-1.2,0.7-2,0.7c-0.8,0-1.5-0.3-2-0.8c-0.5-0.6-0.8-1.2-0.8-2c0-0.8,0.3-1.4,0.8-2c0.5-0.6,1.2-0.8,1.9-0.8
	c0.8,0,1.4,0.2,1.9,0.7C140.3,51.2,140.6,51.8,140.7,52.6L140.7,52.6z M137.9,51c-0.4,0-0.8,0.2-1.1,0.4c-0.3,0.3-0.4,0.5-0.5,0.8
	h3.2c-0.1-0.3-0.3-0.5-0.6-0.8C138.8,51.2,138.4,51.1,137.9,51"/>
<path id="XMLID_157_" class="st4" d="M143.7,55c0,0.2-0.1,0.3-0.2,0.4c-0.1,0.1-0.3,0.2-0.4,0.2c-0.2,0-0.3-0.1-0.4-0.2
	c-0.1-0.1-0.2-0.3-0.2-0.4v-4.5c0-0.2,0.1-0.3,0.2-0.4c0.1-0.1,0.3-0.2,0.4-0.2c0.3,0,0.4,0.1,0.6,0.4c0.4-0.2,0.8-0.4,1.2-0.4
	c0.7,0,1.2,0.2,1.7,0.7c0.5,0.5,0.7,1,0.7,1.7V55c0,0.2-0.1,0.3-0.2,0.4c-0.1,0.1-0.3,0.2-0.4,0.2c-0.2,0-0.3-0.1-0.4-0.2
	c-0.1-0.1-0.2-0.3-0.2-0.4v-2.7c0-0.3-0.1-0.6-0.3-0.8c-0.2-0.2-0.5-0.3-0.8-0.3c-0.3,0-0.6,0.1-0.8,0.3c-0.2,0.2-0.3,0.5-0.3,0.8
	V55z"/>
<path id="XMLID_156_" class="st4" d="M151.3,50c0.2,0,0.3,0.1,0.4,0.2c0.1,0.1,0.2,0.3,0.2,0.4c0,0.2-0.1,0.3-0.2,0.4
	c-0.1,0.1-0.3,0.2-0.4,0.2h-0.3v3.2c0.2,0,0.3,0.1,0.4,0.2c0.1,0.1,0.2,0.3,0.2,0.4c0,0.2-0.1,0.3-0.2,0.4c-0.1,0.1-0.3,0.2-0.4,0.2
	c-0.3,0-0.6-0.1-0.9-0.4c-0.2-0.2-0.4-0.5-0.4-0.9v-3.2h-0.3c-0.2,0-0.3-0.1-0.4-0.2c-0.1-0.1-0.2-0.3-0.2-0.4
	c0-0.2,0.1-0.3,0.2-0.4c0.1-0.1,0.3-0.2,0.4-0.2h0.3v-1.6c0-0.2,0.1-0.3,0.2-0.4c0.1-0.1,0.3-0.2,0.4-0.2c0.2,0,0.3,0.1,0.4,0.2
	c0.1,0.1,0.2,0.3,0.2,0.4V50H151.3z"/>
<path id="XMLID_155_" class="st4" d="M159.3,49.6c-0.6,0.6-0.8,1.2-0.8,2c0,0.8,0.3,1.4,0.8,2c0.6,0.5,1.2,0.8,2,0.8
	s1.4-0.2,1.9-0.6c0.1-0.1,0.3-0.1,0.5-0.1c0.2,0,0.3,0.1,0.4,0.2c0.1,0.1,0.1,0.3,0.1,0.5c0,0.2-0.1,0.3-0.2,0.4
	c-0.8,0.6-1.6,0.9-2.6,0.9c-1.1,0-2.1-0.4-2.9-1.2c-0.8-0.8-1.2-1.8-1.2-2.9c0-1.1,0.4-2.1,1.2-2.9c0.8-0.8,1.8-1.2,2.9-1.2
	c1,0,1.9,0.3,2.6,0.9c0.1,0.1,0.2,0.3,0.2,0.4c0,0.2,0,0.3-0.1,0.5c-0.1,0.1-0.3,0.2-0.4,0.2c-0.2,0-0.3,0-0.5-0.1
	c-0.5-0.4-1.1-0.6-1.9-0.6C160.5,48.7,159.8,49,159.3,49.6"/>
<path id="XMLID_152_" class="st4" d="M166.3,54.8c-0.5-0.6-0.8-1.2-0.8-2c0-0.8,0.3-1.5,0.8-2c0.5-0.6,1.2-0.8,1.9-0.8
	c0.5,0,1,0.2,1.5,0.5c0-0.1,0.1-0.3,0.2-0.4c0.1-0.1,0.2-0.1,0.4-0.1c0.2,0,0.3,0.1,0.4,0.2c0.1,0.1,0.2,0.3,0.2,0.4V55
	c0,0.2-0.1,0.3-0.2,0.4c-0.1,0.1-0.3,0.2-0.4,0.2c-0.2,0-0.3,0-0.4-0.1c-0.1-0.1-0.2-0.2-0.2-0.4c-0.5,0.3-1,0.5-1.5,0.5
	C167.5,55.6,166.8,55.3,166.3,54.8 M166.7,52.8c0,0.5,0.1,0.8,0.4,1.2c0.3,0.3,0.6,0.5,1.1,0.5c0.4,0,0.8-0.2,1.1-0.5
	c0.3-0.3,0.4-0.7,0.4-1.1c0-0.5-0.1-0.8-0.4-1.2c-0.3-0.3-0.6-0.5-1.1-0.5c-0.4,0-0.8,0.2-1.1,0.5C166.9,52,166.7,52.3,166.7,52.8"
	/>
<path id="XMLID_151_" class="st4" d="M174.4,50.6c0.2-0.2,0.4-0.4,0.7-0.5c0.3-0.1,0.6-0.2,0.8-0.2c0.3,0,0.4,0.1,0.6,0.2
	c0.1,0.1,0.2,0.3,0.2,0.4c0,0.2-0.1,0.3-0.2,0.4c-0.1,0.1-0.3,0.2-0.4,0.2c-0.7,0-1.3,0.6-1.7,1.7V55c0,0.2-0.1,0.3-0.2,0.4
	c-0.1,0.1-0.3,0.2-0.4,0.2c-0.2,0-0.3-0.1-0.4-0.2c-0.1-0.1-0.2-0.3-0.2-0.4v-4.5c0-0.2,0.1-0.3,0.2-0.4c0.1-0.1,0.3-0.2,0.4-0.2
	c0.2,0,0.3,0.1,0.4,0.2C174.3,50.2,174.4,50.4,174.4,50.6L174.4,50.6z"/>
<path id="XMLID_148_" class="st4" d="M183.2,52.6c0,0.2-0.1,0.3-0.2,0.4c-0.1,0.1-0.3,0.2-0.4,0.2H179c0.1,0.3,0.2,0.6,0.4,0.7
	c0.2,0.3,0.6,0.4,1.1,0.5c0.5,0.1,0.9,0,1.2-0.3c0.1-0.1,0.3-0.2,0.5-0.2c0.2,0,0.3,0,0.4,0.1c0.2,0.2,0.2,0.5,0,0.7
	c-0.5,0.5-1.2,0.7-2,0.7c-0.8,0-1.5-0.3-2-0.8c-0.5-0.6-0.8-1.2-0.8-2c0-0.8,0.3-1.4,0.8-2c0.5-0.6,1.2-0.8,1.9-0.8
	c0.8,0,1.4,0.2,1.9,0.7C182.9,51.2,183.2,51.8,183.2,52.6L183.2,52.6z M180.5,51c-0.4,0-0.8,0.2-1.1,0.4c-0.3,0.3-0.4,0.5-0.5,0.8
	h3.2c-0.1-0.3-0.3-0.5-0.6-0.8C181.3,51.2,180.9,51.1,180.5,51"/>
<path id="XMLID_147_" class="st5" d="M211.7,21.3c0.1,0,0.3,0,0.4,0c0.2,0,0.3,0,0.4,0c0.1,0,0.3,0,0.5,0c0.2,0,0.3,0,0.4,0l2.8,6.8
	l2.8-6.8c0.1,0,0.2,0,0.4,0c0.2,0,0.3,0,0.4,0c0.1,0,0.3,0,0.4,0c0.2,0,0.3,0,0.4,0l0.5,10.9c-0.1,0-0.2,0-0.4,0c-0.1,0-0.3,0-0.4,0
	c-0.1,0-0.3,0-0.4,0c-0.1,0-0.2,0-0.4,0l-0.4-8.5l-2.7,6.2c-0.2,0-0.4,0-0.6,0c-0.2,0-0.4,0-0.6,0l-2.6-6.3l-0.4,8.5
	c-0.1,0-0.2,0-0.3,0c-0.1,0-0.2,0-0.4,0c-0.1,0-0.3,0-0.4,0c-0.1,0-0.2,0-0.3,0L211.7,21.3z"/>
<path id="XMLID_144_" class="st5" d="M224.8,28.7c0,0.9,0.2,1.5,0.7,1.9c0.4,0.4,1,0.6,1.9,0.6c0.7,0,1.4-0.1,2.1-0.4
	c0.1,0.2,0.1,0.3,0.2,0.6c0,0.2,0.1,0.4,0.1,0.6c-0.3,0.1-0.7,0.2-1.1,0.3c-0.4,0.1-0.8,0.1-1.3,0.1c-0.7,0-1.3-0.1-1.8-0.3
	c-0.5-0.2-0.9-0.5-1.3-0.8c-0.3-0.4-0.6-0.8-0.7-1.3c-0.2-0.5-0.2-1-0.2-1.6c0-0.6,0.1-1.1,0.2-1.6c0.1-0.5,0.4-0.9,0.7-1.3
	c0.3-0.4,0.7-0.7,1.1-0.9c0.5-0.2,1-0.3,1.6-0.3c0.5,0,1,0.1,1.4,0.3c0.4,0.2,0.7,0.4,1,0.8c0.3,0.3,0.5,0.7,0.6,1.1
	c0.1,0.4,0.2,0.9,0.2,1.4c0,0.1,0,0.3,0,0.4c0,0.2,0,0.3,0,0.4H224.8z M228.7,27.5c0-0.3,0-0.6-0.1-0.8c-0.1-0.3-0.2-0.5-0.3-0.7
	c-0.1-0.2-0.3-0.3-0.6-0.5c-0.2-0.1-0.5-0.2-0.8-0.2c-0.6,0-1.1,0.2-1.4,0.6c-0.3,0.4-0.5,0.9-0.6,1.6H228.7z"/>
<path id="XMLID_141_" class="st5" d="M237.1,21.1c0.1,0,0.2,0,0.4,0c0.1,0,0.3,0,0.4,0c0.1,0,0.2,0,0.4,0c0.1,0,0.3,0,0.4,0V32
	c-0.4,0.1-0.8,0.2-1.3,0.3c-0.5,0.1-1,0.1-1.6,0.1c-0.5,0-1.1-0.1-1.6-0.2c-0.5-0.1-0.9-0.4-1.3-0.7c-0.4-0.3-0.7-0.7-0.9-1.2
	c-0.2-0.5-0.3-1.1-0.3-1.8c0-0.6,0.1-1.2,0.3-1.7c0.2-0.5,0.5-1,0.8-1.3c0.3-0.4,0.8-0.7,1.2-0.9c0.5-0.2,1-0.3,1.6-0.3
	c0.3,0,0.5,0,0.8,0.1c0.3,0,0.5,0.1,0.7,0.2V21.1z M237.1,25.7c-0.2-0.1-0.4-0.1-0.7-0.2c-0.2,0-0.5-0.1-0.8-0.1
	c-0.4,0-0.8,0.1-1.1,0.2c-0.3,0.2-0.6,0.4-0.8,0.6c-0.2,0.3-0.3,0.6-0.4,0.9c-0.1,0.4-0.1,0.8-0.1,1.2c0,1,0.2,1.6,0.7,2.1
	c0.4,0.4,1.1,0.6,1.8,0.6c0.3,0,0.5,0,0.7,0c0.2,0,0.4-0.1,0.6-0.1V25.7z"/>
<path id="XMLID_138_" class="st5" d="M241.5,25.6h-1c0-0.1,0-0.2,0-0.3c0-0.1,0-0.2,0-0.3c0-0.1,0-0.2,0-0.3c0-0.1,0-0.2,0-0.3h2.5
	v7.8c-0.1,0-0.2,0-0.4,0c-0.1,0-0.3,0-0.4,0c-0.1,0-0.2,0-0.4,0c-0.1,0-0.3,0-0.4,0V25.6z M241.1,22.7c0-0.1,0-0.3,0-0.4
	c0-0.1,0-0.3,0-0.4c0-0.1,0-0.2,0-0.4c0-0.1,0-0.3,0-0.4c0.1,0,0.3,0,0.4,0c0.2,0,0.3,0,0.4,0c0.1,0,0.2,0,0.4,0c0.2,0,0.3,0,0.4,0
	c0,0.1,0,0.2,0,0.4c0,0.1,0,0.3,0,0.4c0,0.1,0,0.2,0,0.4c0,0.1,0,0.3,0,0.4c-0.1,0-0.3,0-0.4,0c-0.1,0-0.3,0-0.4,0
	c-0.1,0-0.3,0-0.4,0C241.4,22.7,241.3,22.7,241.1,22.7"/>
<path id="XMLID_137_" class="st5" d="M250.6,30.8c0.1,0.1,0.2,0.3,0.2,0.5c0.1,0.2,0.1,0.4,0.1,0.7c-0.6,0.2-1.3,0.3-2.1,0.3
	c-1.3,0-2.3-0.4-2.9-1.1c-0.7-0.7-1-1.7-1-3c0-0.6,0.1-1.1,0.2-1.6c0.2-0.5,0.4-0.9,0.7-1.3c0.3-0.4,0.7-0.7,1.2-0.9
	c0.5-0.2,1-0.3,1.7-0.3c0.4,0,0.8,0,1.1,0.1c0.3,0,0.6,0.1,0.9,0.2c0,0.2,0,0.4-0.1,0.6c0,0.2-0.1,0.4-0.2,0.6
	c-0.5-0.2-1.1-0.3-1.7-0.3c-0.8,0-1.4,0.3-1.7,0.8c-0.4,0.5-0.6,1.2-0.6,2c0,1,0.2,1.7,0.7,2.1c0.4,0.5,1,0.7,1.8,0.7
	c0.3,0,0.6,0,0.8-0.1C250.1,31,250.3,30.9,250.6,30.8"/>
<path id="XMLID_134_" class="st5" d="M256.8,27.1c0-0.6-0.2-1-0.5-1.2c-0.3-0.2-0.7-0.4-1.3-0.4c-0.4,0-0.7,0-1,0.1
	c-0.3,0.1-0.6,0.1-0.9,0.2c-0.2-0.3-0.3-0.7-0.3-1.2c0.3-0.1,0.7-0.2,1.1-0.3c0.4-0.1,0.8-0.1,1.2-0.1c1,0,1.8,0.2,2.3,0.7
	c0.5,0.5,0.8,1.2,0.8,2.2V32c-0.4,0.1-0.8,0.2-1.3,0.2c-0.5,0.1-1,0.1-1.5,0.1c-0.5,0-0.9,0-1.3-0.1c-0.4-0.1-0.7-0.2-1-0.4
	s-0.5-0.5-0.6-0.8c-0.2-0.3-0.2-0.7-0.2-1.1c0-0.4,0.1-0.8,0.3-1.1c0.2-0.3,0.4-0.6,0.7-0.8c0.3-0.2,0.7-0.4,1-0.5
	c0.4-0.1,0.8-0.2,1.2-0.2c0.3,0,0.6,0,0.8,0c0.2,0,0.4,0,0.5,0.1V27.1z M256.8,28.5c-0.2,0-0.3,0-0.6-0.1c-0.2,0-0.4,0-0.6,0
	c-0.6,0-1.1,0.1-1.4,0.3c-0.3,0.2-0.5,0.6-0.5,1.1c0,0.3,0.1,0.5,0.2,0.7c0.1,0.2,0.3,0.3,0.4,0.4c0.2,0.1,0.4,0.1,0.6,0.2
	c0.2,0,0.4,0,0.6,0c0.2,0,0.5,0,0.7,0c0.2,0,0.5-0.1,0.7-0.1V28.5z"/>
<path id="XMLID_133_" class="st5" d="M260.5,21.1c0.1,0,0.2,0,0.4,0c0.1,0,0.3,0,0.4,0s0.2,0,0.4,0c0.1,0,0.3,0,0.4,0v8.8
	c0,0.3,0,0.5,0.1,0.7c0.1,0.2,0.1,0.3,0.2,0.4c0.1,0.1,0.2,0.1,0.3,0.2c0.1,0,0.2,0,0.4,0c0.1,0,0.2,0,0.3,0c0.1,0,0.2,0,0.3,0
	c0.1,0.4,0.1,0.7,0.1,1.2c-0.1,0.1-0.3,0.1-0.5,0.1c-0.2,0-0.4,0-0.6,0c-0.3,0-0.6,0-0.8-0.1c-0.3-0.1-0.5-0.2-0.7-0.4
	c-0.2-0.2-0.3-0.4-0.5-0.7c-0.1-0.3-0.2-0.6-0.2-1V21.1z"/>
<path id="XMLID_132_" class="st5" d="M273.8,30.8c0.1,0.1,0.2,0.3,0.2,0.5c0.1,0.2,0.1,0.4,0.1,0.7c-0.6,0.2-1.3,0.3-2.1,0.3
	c-1.3,0-2.3-0.4-2.9-1.1c-0.7-0.7-1-1.7-1-3c0-0.6,0.1-1.1,0.2-1.6c0.2-0.5,0.4-0.9,0.7-1.3c0.3-0.4,0.7-0.7,1.2-0.9
	c0.5-0.2,1-0.3,1.7-0.3c0.4,0,0.8,0,1.1,0.1c0.3,0,0.6,0.1,0.9,0.2c0,0.2,0,0.4-0.1,0.6c0,0.2-0.1,0.4-0.2,0.6
	c-0.5-0.2-1.1-0.3-1.7-0.3c-0.8,0-1.4,0.3-1.7,0.8c-0.4,0.5-0.6,1.2-0.6,2c0,1,0.2,1.7,0.7,2.1c0.4,0.5,1,0.7,1.8,0.7
	c0.3,0,0.6,0,0.8-0.1C273.3,31,273.6,30.9,273.8,30.8"/>
<path id="XMLID_129_" class="st5" d="M280,27.1c0-0.6-0.2-1-0.5-1.2c-0.3-0.2-0.7-0.4-1.3-0.4c-0.4,0-0.7,0-1,0.1
	c-0.3,0.1-0.6,0.1-0.9,0.2c-0.2-0.3-0.3-0.7-0.3-1.2c0.3-0.1,0.7-0.2,1.1-0.3c0.4-0.1,0.8-0.1,1.2-0.1c1,0,1.8,0.2,2.3,0.7
	c0.5,0.5,0.8,1.2,0.8,2.2V32c-0.4,0.1-0.8,0.2-1.3,0.2c-0.5,0.1-1,0.1-1.5,0.1c-0.5,0-0.9,0-1.3-0.1c-0.4-0.1-0.7-0.2-1-0.4
	s-0.5-0.5-0.6-0.8c-0.2-0.3-0.2-0.7-0.2-1.1c0-0.4,0.1-0.8,0.3-1.1c0.2-0.3,0.4-0.6,0.7-0.8c0.3-0.2,0.7-0.4,1-0.5
	c0.4-0.1,0.8-0.2,1.2-0.2c0.3,0,0.6,0,0.8,0c0.2,0,0.4,0,0.5,0.1V27.1z M280,28.5c-0.2,0-0.3,0-0.6-0.1c-0.2,0-0.4,0-0.6,0
	c-0.6,0-1.1,0.1-1.4,0.3c-0.3,0.2-0.5,0.6-0.5,1.1c0,0.3,0.1,0.5,0.2,0.7c0.1,0.2,0.3,0.3,0.4,0.4c0.2,0.1,0.4,0.1,0.6,0.2
	c0.2,0,0.4,0,0.6,0c0.2,0,0.5,0,0.7,0c0.2,0,0.5-0.1,0.7-0.1V28.5z"/>
<path id="XMLID_128_" class="st5" d="M283.7,24.4c0.1,0,0.2,0,0.3,0c0.1,0,0.2,0,0.3,0c0.1,0,0.2,0,0.3,0c0.1,0,0.2,0,0.3,0
	c0,0.2,0.1,0.4,0.1,0.6c0,0.2,0,0.5,0,0.6c0.2-0.3,0.5-0.6,0.8-0.9c0.4-0.3,0.8-0.4,1.3-0.4c0.1,0,0.2,0,0.3,0c0.1,0,0.2,0,0.2,0
	c0,0.1,0,0.2,0,0.3c0,0.1,0,0.2,0,0.3c0,0.1,0,0.2,0,0.4c0,0.1,0,0.3-0.1,0.4c-0.1,0-0.2,0-0.2,0h-0.2c-0.3,0-0.5,0-0.8,0.1
	c-0.2,0.1-0.5,0.2-0.7,0.4c-0.2,0.2-0.4,0.5-0.5,0.8c-0.1,0.3-0.2,0.8-0.2,1.3v3.9c-0.1,0-0.2,0-0.4,0c-0.1,0-0.3,0-0.4,0
	c-0.1,0-0.2,0-0.4,0c-0.1,0-0.3,0-0.4,0V24.4z"/>
<path id="XMLID_125_" class="st5" d="M290.3,28.7c0,0.9,0.2,1.5,0.7,1.9c0.4,0.4,1,0.6,1.9,0.6c0.7,0,1.4-0.1,2.1-0.4
	c0.1,0.2,0.1,0.3,0.2,0.6c0,0.2,0.1,0.4,0.1,0.6c-0.3,0.1-0.7,0.2-1.1,0.3c-0.4,0.1-0.8,0.1-1.3,0.1c-0.7,0-1.3-0.1-1.8-0.3
	c-0.5-0.2-0.9-0.5-1.3-0.8c-0.3-0.4-0.6-0.8-0.7-1.3c-0.2-0.5-0.2-1-0.2-1.6c0-0.6,0.1-1.1,0.2-1.6c0.1-0.5,0.4-0.9,0.7-1.3
	c0.3-0.4,0.7-0.7,1.1-0.9c0.5-0.2,1-0.3,1.6-0.3c0.5,0,1,0.1,1.4,0.3c0.4,0.2,0.7,0.4,1,0.8c0.3,0.3,0.5,0.7,0.6,1.1
	c0.1,0.4,0.2,0.9,0.2,1.4c0,0.1,0,0.3,0,0.4c0,0.2,0,0.3,0,0.4H290.3z M294.1,27.5c0-0.3,0-0.6-0.1-0.8c-0.1-0.3-0.2-0.5-0.3-0.7
	c-0.1-0.2-0.3-0.3-0.6-0.5c-0.2-0.1-0.5-0.2-0.8-0.2c-0.6,0-1.1,0.2-1.4,0.6c-0.3,0.4-0.5,0.9-0.6,1.6H294.1z"/>
<path id="XMLID_124_" class="st5" d="M301.5,25.6h-1.2l-0.1-0.2l2.6-2.9h0.1v1.9h2c0,0.2,0.1,0.4,0.1,0.6c0,0.1,0,0.2,0,0.3
	c0,0.1,0,0.2,0,0.3h-2v3.6c0,0.4,0,0.8,0.1,1c0,0.3,0.1,0.4,0.2,0.6c0.1,0.1,0.2,0.2,0.3,0.3c0.1,0,0.3,0.1,0.6,0.1
	c0.2,0,0.3,0,0.5,0c0.2,0,0.3-0.1,0.4-0.1c0.1,0.2,0.1,0.4,0.1,0.6c0,0.2,0,0.4,0,0.6c-0.2,0.1-0.4,0.1-0.6,0.1c-0.2,0-0.5,0-0.7,0
	c-0.7,0-1.3-0.2-1.7-0.5c-0.4-0.4-0.6-0.9-0.6-1.8V25.6z"/>
<path id="XMLID_123_" class="st5" d="M306.6,21.1c0.1,0,0.2,0,0.4,0c0.1,0,0.3,0,0.4,0c0.1,0,0.2,0,0.4,0c0.1,0,0.3,0,0.4,0v4.5
	c0.1-0.1,0.2-0.3,0.3-0.5c0.1-0.2,0.3-0.3,0.5-0.4c0.2-0.1,0.4-0.2,0.7-0.3c0.3-0.1,0.5-0.1,0.9-0.1c0.9,0,1.6,0.3,2,0.8
	c0.4,0.5,0.6,1.3,0.6,2.3v4.9c-0.1,0-0.2,0-0.4,0c-0.1,0-0.3,0-0.4,0c-0.1,0-0.2,0-0.4,0c-0.1,0-0.3,0-0.4,0v-4.5
	c0-0.7-0.1-1.2-0.4-1.6c-0.2-0.3-0.6-0.5-1.1-0.5c-0.3,0-0.5,0-0.8,0.1c-0.3,0.1-0.5,0.2-0.7,0.5c-0.2,0.2-0.3,0.5-0.5,0.8
	c-0.1,0.3-0.2,0.7-0.2,1.2v4c-0.1,0-0.2,0-0.4,0c-0.1,0-0.3,0-0.4,0c-0.1,0-0.2,0-0.4,0c-0.1,0-0.3,0-0.4,0V21.1z"/>
<path id="XMLID_120_" class="st5" d="M316.5,28.7c0,0.9,0.2,1.5,0.7,1.9c0.4,0.4,1,0.6,1.9,0.6c0.7,0,1.4-0.1,2.1-0.4
	c0.1,0.2,0.1,0.3,0.2,0.6c0,0.2,0.1,0.4,0.1,0.6c-0.3,0.1-0.7,0.2-1.1,0.3c-0.4,0.1-0.8,0.1-1.3,0.1c-0.7,0-1.3-0.1-1.8-0.3
	c-0.5-0.2-0.9-0.5-1.3-0.8c-0.3-0.4-0.6-0.8-0.7-1.3c-0.2-0.5-0.2-1-0.2-1.6c0-0.6,0.1-1.1,0.2-1.6c0.1-0.5,0.4-0.9,0.7-1.3
	c0.3-0.4,0.7-0.7,1.1-0.9c0.5-0.2,1-0.3,1.6-0.3c0.5,0,1,0.1,1.4,0.3c0.4,0.2,0.7,0.4,1,0.8c0.3,0.3,0.5,0.7,0.6,1.1
	c0.1,0.4,0.2,0.9,0.2,1.4c0,0.1,0,0.3,0,0.4c0,0.2,0,0.3,0,0.4H316.5z M320.4,27.5c0-0.3,0-0.6-0.1-0.8c-0.1-0.3-0.2-0.5-0.3-0.7
	c-0.1-0.2-0.3-0.3-0.6-0.5c-0.2-0.1-0.5-0.2-0.8-0.2c-0.6,0-1.1,0.2-1.4,0.6c-0.3,0.4-0.5,0.9-0.6,1.6H320.4z"/>
<path id="XMLID_119_" class="st5" d="M327.5,24.4c0.1,0,0.2,0,0.3,0c0.1,0,0.2,0,0.3,0c0.1,0,0.2,0,0.3,0c0.1,0,0.2,0,0.3,0
	c0,0.2,0.1,0.4,0.1,0.6c0,0.2,0,0.5,0,0.6c0.2-0.3,0.5-0.6,0.8-0.9c0.4-0.3,0.8-0.4,1.3-0.4c0.1,0,0.2,0,0.3,0c0.1,0,0.2,0,0.2,0
	c0,0.1,0,0.2,0,0.3c0,0.1,0,0.2,0,0.3c0,0.1,0,0.2,0,0.4c0,0.1,0,0.3-0.1,0.4c-0.1,0-0.2,0-0.2,0h-0.2c-0.3,0-0.5,0-0.8,0.1
	c-0.2,0.1-0.5,0.2-0.7,0.4c-0.2,0.2-0.4,0.5-0.5,0.8c-0.1,0.3-0.2,0.8-0.2,1.3v3.9c-0.1,0-0.2,0-0.4,0c-0.1,0-0.3,0-0.4,0
	c-0.1,0-0.2,0-0.4,0c-0.1,0-0.3,0-0.4,0V24.4z"/>
<path id="XMLID_116_" class="st5" d="M333.6,25.6h-1c0-0.1,0-0.2,0-0.3c0-0.1,0-0.2,0-0.3c0-0.1,0-0.2,0-0.3c0-0.1,0-0.2,0-0.3h2.5
	v7.8c-0.1,0-0.2,0-0.4,0c-0.1,0-0.3,0-0.4,0c-0.1,0-0.2,0-0.4,0c-0.1,0-0.3,0-0.4,0V25.6z M333.2,22.7c0-0.1,0-0.3,0-0.4
	c0-0.1,0-0.3,0-0.4c0-0.1,0-0.2,0-0.4c0-0.1,0-0.3,0-0.4c0.1,0,0.3,0,0.4,0c0.2,0,0.3,0,0.4,0c0.1,0,0.2,0,0.4,0c0.2,0,0.3,0,0.4,0
	c0,0.1,0,0.2,0,0.4c0,0.1,0,0.3,0,0.4c0,0.1,0,0.2,0,0.4c0,0.1,0,0.3,0,0.4c-0.1,0-0.3,0-0.4,0c-0.1,0-0.3,0-0.4,0
	c-0.1,0-0.3,0-0.4,0C333.5,22.7,333.4,22.7,333.2,22.7"/>
<path id="XMLID_112_" class="st5" d="M341.7,31.2c0.9,0,1.6,0.2,2,0.6c0.4,0.4,0.6,0.9,0.6,1.5c0,0.4-0.1,0.8-0.3,1.1
	c-0.2,0.3-0.5,0.6-0.9,0.9c-0.4,0.2-0.8,0.4-1.3,0.5c-0.5,0.1-1.1,0.2-1.7,0.2c-1,0-1.8-0.2-2.4-0.5c-0.5-0.3-0.8-0.8-0.8-1.5
	c0-0.4,0.1-0.8,0.3-1.1c0.2-0.3,0.5-0.6,0.9-0.8c-0.2-0.1-0.4-0.3-0.5-0.5c-0.1-0.2-0.2-0.4-0.2-0.7c0-0.4,0.1-0.7,0.3-1
	c0.2-0.3,0.4-0.5,0.7-0.7c-0.3-0.2-0.6-0.5-0.8-0.9c-0.2-0.4-0.3-0.8-0.3-1.3c0-0.4,0.1-0.7,0.2-1.1c0.1-0.3,0.3-0.6,0.6-0.9
	c0.3-0.2,0.6-0.4,1-0.6c0.4-0.1,0.8-0.2,1.4-0.2c0.5,0,0.9,0.1,1.2,0.2c0.4,0.1,0.7,0.3,0.9,0.5c0.2-0.2,0.5-0.3,0.8-0.4
	c0.3-0.1,0.7-0.2,1.1-0.2c0,0.2,0.1,0.4,0.1,0.6c0,0.1,0,0.2,0,0.3c0,0.1,0,0.2,0,0.4h-1.4c0.1,0.2,0.2,0.4,0.3,0.6
	c0.1,0.2,0.1,0.4,0.1,0.7c0,0.4-0.1,0.8-0.2,1.1c-0.2,0.3-0.4,0.6-0.6,0.9c-0.3,0.2-0.6,0.4-1,0.5c-0.4,0.1-0.8,0.2-1.3,0.2
	c-0.4,0-0.8,0-1.1-0.1c-0.1,0.1-0.3,0.2-0.4,0.4s-0.2,0.3-0.2,0.5c0,0.2,0.1,0.3,0.2,0.5c0.1,0.1,0.4,0.2,0.9,0.2L341.7,31.2z
	 M339.6,32.4c-0.5,0-0.8,0.1-1,0.4c-0.2,0.3-0.3,0.6-0.3,0.9c0,0.2,0,0.4,0.1,0.5s0.2,0.3,0.4,0.3c0.2,0.1,0.4,0.1,0.6,0.2
	c0.2,0,0.5,0.1,0.8,0.1c0.8,0,1.4-0.1,1.9-0.4c0.5-0.3,0.7-0.6,0.7-1c0-0.3-0.1-0.5-0.3-0.7c-0.2-0.2-0.5-0.2-1.1-0.3L339.6,32.4z
	 M340.3,28.6c0.5,0,1-0.2,1.2-0.5c0.3-0.3,0.4-0.7,0.4-1.2c0-0.5-0.1-0.9-0.4-1.2c-0.3-0.3-0.7-0.5-1.2-0.5c-0.5,0-0.9,0.2-1.2,0.5
	c-0.3,0.3-0.4,0.7-0.4,1.2c0,0.5,0.1,0.9,0.4,1.2C339.4,28.4,339.8,28.6,340.3,28.6"/>
<path id="XMLID_111_" class="st5" d="M345.9,21.1c0.1,0,0.2,0,0.4,0c0.1,0,0.3,0,0.4,0s0.2,0,0.4,0c0.1,0,0.3,0,0.4,0v4.5
	c0.1-0.1,0.2-0.3,0.3-0.5c0.1-0.2,0.3-0.3,0.5-0.4c0.2-0.1,0.4-0.2,0.7-0.3c0.3-0.1,0.5-0.1,0.9-0.1c0.9,0,1.6,0.3,2,0.8
	c0.4,0.5,0.6,1.3,0.6,2.3v4.9c-0.1,0-0.2,0-0.4,0c-0.1,0-0.3,0-0.4,0c-0.1,0-0.2,0-0.4,0c-0.1,0-0.3,0-0.4,0v-4.5
	c0-0.7-0.1-1.2-0.4-1.6c-0.2-0.3-0.6-0.5-1.1-0.5c-0.3,0-0.5,0-0.8,0.1c-0.3,0.1-0.5,0.2-0.7,0.5c-0.2,0.2-0.3,0.5-0.5,0.8
	c-0.1,0.3-0.2,0.7-0.2,1.2v4c-0.1,0-0.2,0-0.4,0c-0.1,0-0.3,0-0.4,0c-0.1,0-0.2,0-0.4,0c-0.1,0-0.3,0-0.4,0V21.1z"/>
<path id="XMLID_110_" class="st5" d="M354.9,25.6h-1.2l-0.1-0.2l2.6-2.9h0.1v1.9h2c0,0.2,0.1,0.4,0.1,0.6c0,0.1,0,0.2,0,0.3
	c0,0.1,0,0.2,0,0.3h-2v3.6c0,0.4,0,0.8,0.1,1c0,0.3,0.1,0.4,0.2,0.6c0.1,0.1,0.2,0.2,0.3,0.3c0.1,0,0.3,0.1,0.6,0.1
	c0.2,0,0.3,0,0.5,0c0.2,0,0.3-0.1,0.4-0.1c0.1,0.2,0.1,0.4,0.1,0.6c0,0.2,0,0.4,0,0.6c-0.2,0.1-0.4,0.1-0.6,0.1c-0.2,0-0.5,0-0.7,0
	c-0.7,0-1.3-0.2-1.7-0.5c-0.4-0.4-0.6-0.9-0.6-1.8V25.6z"/>
<path id="XMLID_109_" class="st5" d="M362.8,24.4c0.1,0,0.3,0,0.4,0c0.1,0,0.3,0,0.4,0c0.1,0,0.3,0,0.4,0c0.1,0,0.3,0,0.4,0l1.5,6.4
	l1.7-6.4c0.1,0,0.2,0,0.4,0c0.1,0,0.3,0,0.4,0c0.2,0,0.3,0,0.4,0c0.1,0,0.2,0,0.3,0l1.7,6.3l1.5-6.3c0.1,0,0.2,0,0.3,0
	c0.1,0,0.2,0,0.4,0c0.1,0,0.2,0,0.4,0c0.1,0,0.3,0,0.4,0l-2.3,7.8c-0.1,0-0.3,0-0.4,0c-0.1,0-0.3,0-0.4,0c-0.1,0-0.2,0-0.4,0
	c-0.1,0-0.3,0-0.4,0l-1.7-5.9l-1.7,5.9c-0.1,0-0.3,0-0.4,0c-0.1,0-0.3,0-0.4,0c-0.1,0-0.2,0-0.4,0c-0.1,0-0.3,0-0.4,0L362.8,24.4z"
	/>
<path id="XMLID_106_" class="st5" d="M379.6,27.1c0-0.6-0.2-1-0.5-1.2c-0.3-0.2-0.7-0.4-1.3-0.4c-0.4,0-0.7,0-1,0.1
	c-0.3,0.1-0.6,0.1-0.9,0.2c-0.2-0.3-0.3-0.7-0.3-1.2c0.3-0.1,0.7-0.2,1.1-0.3c0.4-0.1,0.8-0.1,1.2-0.1c1,0,1.8,0.2,2.3,0.7
	c0.5,0.5,0.8,1.2,0.8,2.2V32c-0.4,0.1-0.8,0.2-1.3,0.2c-0.5,0.1-1,0.1-1.5,0.1c-0.5,0-0.9,0-1.3-0.1c-0.4-0.1-0.7-0.2-1-0.4
	s-0.5-0.5-0.6-0.8c-0.2-0.3-0.2-0.7-0.2-1.1c0-0.4,0.1-0.8,0.3-1.1c0.2-0.3,0.4-0.6,0.7-0.8c0.3-0.2,0.7-0.4,1-0.5
	c0.4-0.1,0.8-0.2,1.2-0.2c0.3,0,0.6,0,0.8,0c0.2,0,0.4,0,0.5,0.1V27.1z M379.6,28.5c-0.2,0-0.3,0-0.6-0.1c-0.2,0-0.4,0-0.6,0
	c-0.6,0-1.1,0.1-1.4,0.3c-0.3,0.2-0.5,0.6-0.5,1.1c0,0.3,0.1,0.5,0.2,0.7c0.1,0.2,0.3,0.3,0.4,0.4c0.2,0.1,0.4,0.1,0.6,0.2
	c0.2,0,0.4,0,0.6,0c0.2,0,0.5,0,0.7,0c0.2,0,0.5-0.1,0.7-0.1V28.5z"/>
<path id="XMLID_105_" class="st5" d="M386,32.2c-0.1,0-0.2,0-0.3,0c-0.1,0-0.2,0-0.2,0c-0.1,0-0.2,0-0.3,0c-0.1,0-0.2,0-0.3,0
	l-2.6-7.8c0.1,0,0.3,0,0.4,0c0.1,0,0.3,0,0.4,0c0.1,0,0.3,0,0.4,0c0.2,0,0.3,0,0.4,0l2.2,7.2l2.2-7.2c0.2,0,0.5,0,0.7,0
	c0.1,0,0.2,0,0.4,0c0.1,0,0.3,0,0.4,0l-3,9.4c-0.1,0.4-0.3,0.8-0.4,1c-0.2,0.3-0.3,0.5-0.5,0.7c-0.2,0.2-0.4,0.3-0.6,0.4
	c-0.2,0.1-0.5,0.1-0.8,0.1c-0.2,0-0.5,0-0.7-0.1c-0.2,0-0.4-0.1-0.6-0.1c0-0.2,0-0.4,0.1-0.6c0-0.2,0.1-0.4,0.2-0.5
	c0.1,0,0.2,0.1,0.4,0.1c0.2,0,0.3,0.1,0.5,0.1c0.1,0,0.3,0,0.4,0c0.1,0,0.2-0.1,0.3-0.2c0.1-0.1,0.2-0.2,0.3-0.3
	c0.1-0.1,0.2-0.3,0.3-0.6L386,32.2z"/>
<path id="XMLID_104_" class="st5" d="M391.7,30.5c0.1,0,0.2,0,0.4-0.1c0.1,0,0.2,0,0.4,0c0.1,0,0.3,0,0.4,0c0.1,0,0.3,0,0.4,0.1
	l-1.5,3.4c-0.1,0-0.3,0-0.4,0c-0.1,0-0.2,0-0.4,0c-0.3,0-0.5,0-0.7-0.1L391.7,30.5z"/>
<path id="XMLID_36_" class="st5" d="M398.4,32.2c0.1-0.6,0.2-1.3,0.4-2c0.1-0.7,0.3-1.4,0.4-2.1c0.1-0.7,0.2-1.3,0.3-1.8
	c0.1-0.6,0.1-1,0.1-1.3c0-0.1,0-0.2,0-0.3s0-0.2,0-0.3c0.1,0,0.2,0,0.4,0c0.1,0,0.3,0,0.4,0c0.1,0,0.2,0,0.3,0c0.1,0,0.2,0,0.3,0
	c0,0.1,0,0.2,0,0.3c0,0.1,0,0.2,0,0.4c0,0.2,0,0.5,0,0.7c0.1-0.2,0.3-0.4,0.4-0.5c0.2-0.2,0.3-0.3,0.5-0.4c0.2-0.1,0.4-0.2,0.6-0.3
	c0.2-0.1,0.5-0.1,0.8-0.1c0.1,0,0.2,0,0.3,0c0.1,0,0.2,0,0.2,0c0,0.2,0,0.4-0.1,0.7c0,0.3-0.1,0.5-0.2,0.7c0,0-0.1,0-0.2,0
	c-0.1,0-0.2,0-0.3,0c-0.7,0-1.2,0.2-1.6,0.7c-0.4,0.5-0.7,1.2-0.9,2.2l-0.6,3.5c-0.2,0-0.4,0-0.6,0h-0.4L398.4,32.2z"/>
<path id="XMLID_33_" class="st5" d="M405.4,25.6h-0.9c0-0.2,0-0.4,0-0.6c0-0.2,0.1-0.4,0.2-0.6h2.4l-1.4,7.8c-0.1,0-0.2,0-0.4,0
	c-0.1,0-0.3,0-0.4,0c-0.1,0-0.2,0-0.4,0c-0.1,0-0.2,0-0.4,0L405.4,25.6z M405.4,22.8c0-0.3,0-0.6,0.1-0.8c0.1-0.3,0.1-0.5,0.2-0.8
	c0.1,0,0.3,0,0.5,0c0.2,0,0.3,0,0.4,0c0.1,0,0.3,0,0.4,0c0.2,0,0.3,0,0.4,0c0,0.3,0,0.6-0.1,0.8c-0.1,0.3-0.1,0.5-0.2,0.8
	c-0.1,0-0.3,0-0.5,0c-0.2,0-0.3,0-0.4,0c-0.1,0-0.2,0-0.4,0C405.6,22.8,405.5,22.8,405.4,22.8"/>
<path id="XMLID_30_" class="st5" d="M413.1,30.4c-0.1,0.2-0.3,0.4-0.4,0.7c-0.2,0.2-0.4,0.4-0.6,0.6c-0.2,0.2-0.5,0.3-0.8,0.5
	c-0.3,0.1-0.6,0.2-1,0.2c-0.7,0-1.2-0.2-1.5-0.7c-0.3-0.4-0.5-1-0.5-1.8c0-0.7,0.1-1.4,0.3-2.1c0.2-0.7,0.6-1.3,1-1.8
	c0.4-0.5,1-1,1.6-1.3c0.6-0.3,1.4-0.5,2.3-0.5c0.4,0,0.7,0,1.1,0.1c0.4,0.1,0.7,0.1,1,0.2c-0.2,1.3-0.5,2.5-0.7,3.8
	c-0.2,1.3-0.4,2.5-0.7,3.8c-0.1,0.7-0.3,1.3-0.6,1.7c-0.3,0.5-0.6,0.9-1,1.2c-0.4,0.3-0.9,0.5-1.4,0.7c-0.5,0.1-1.1,0.2-1.7,0.2
	c-0.3,0-0.7,0-1-0.1c-0.3-0.1-0.6-0.1-0.9-0.2c0-0.4,0.1-0.8,0.3-1.2c0.2,0,0.4,0.1,0.7,0.2c0.3,0.1,0.6,0.1,0.9,0.1
	c0.5,0,0.9,0,1.2-0.1c0.4-0.1,0.7-0.2,0.9-0.5c0.3-0.2,0.5-0.5,0.7-0.8c0.2-0.3,0.3-0.8,0.4-1.3L413.1,30.4z M413.9,25.6
	c-0.2-0.1-0.5-0.1-0.8-0.1c-0.5,0-1,0.1-1.4,0.3c-0.4,0.2-0.7,0.5-1,0.9c-0.3,0.4-0.5,0.8-0.7,1.3c-0.2,0.5-0.2,1-0.2,1.5
	c0,0.5,0.1,0.9,0.3,1.1c0.2,0.3,0.4,0.4,0.8,0.4c0.3,0,0.6-0.1,0.9-0.3c0.3-0.2,0.6-0.5,0.8-0.8c0.2-0.4,0.4-0.8,0.6-1.3
	c0.2-0.5,0.3-1,0.4-1.6L413.9,25.6z"/>
<path id="XMLID_29_" class="st5" d="M418,24.2c0.1-0.6,0.2-1.1,0.2-1.5c0.1-0.4,0.1-0.8,0.1-1.1c0-0.1,0-0.2,0-0.3
	c0-0.1,0-0.2,0-0.3c0.1,0,0.2,0,0.4,0c0.2,0,0.3,0,0.4,0c0.1,0,0.2,0,0.3,0c0.1,0,0.2,0,0.3,0c0,0.2,0,0.4,0,0.6c0,0.1,0,0.2,0,0.4
	c0,0.2,0,0.3-0.1,0.5c0,0.2,0,0.4-0.1,0.5c0,0.2-0.1,0.4-0.1,0.5c-0.1,0.3-0.1,0.7-0.2,1c-0.1,0.3-0.1,0.7-0.2,1
	c0.3-0.4,0.6-0.7,1.1-1c0.4-0.3,1-0.4,1.5-0.4c0.6,0,1.1,0.2,1.5,0.5c0.3,0.3,0.5,0.8,0.5,1.5c0,0.2,0,0.3,0,0.5
	c0,0.2,0,0.4-0.1,0.5l-0.9,4.9c-0.1,0-0.2,0-0.4,0c-0.1,0-0.3,0-0.4,0c-0.1,0-0.2,0-0.4,0c-0.1,0-0.3,0-0.4,0
	c0.1-0.8,0.3-1.6,0.4-2.3c0.1-0.8,0.3-1.5,0.4-2.3l0.1-0.5c0-0.2,0-0.3,0-0.4c0-0.4-0.1-0.7-0.3-0.9c-0.2-0.2-0.5-0.3-0.8-0.3
	c-0.2,0-0.5,0.1-0.7,0.2c-0.2,0.1-0.5,0.3-0.7,0.5c-0.2,0.2-0.4,0.6-0.6,1c-0.2,0.4-0.3,0.9-0.4,1.6c-0.1,0.6-0.2,1.1-0.3,1.7
	c-0.1,0.6-0.2,1.1-0.3,1.7c-0.1,0-0.3,0-0.4,0c-0.2,0-0.3,0-0.4,0c-0.1,0-0.1,0-0.3,0c-0.1,0-0.2,0-0.3,0L418,24.2z"/>
<path id="XMLID_28_" class="st5" d="M426.6,25.6h-1.2c0-0.2,0-0.4,0-0.6c0-0.2,0.1-0.4,0.2-0.6h1.2c0.1-0.3,0.1-0.5,0.1-0.8
	c0-0.3,0.1-0.6,0.1-0.8v-0.2c0.2-0.1,0.4-0.2,0.7-0.2c0.3-0.1,0.5-0.1,0.7-0.1c0,0.1,0,0.2,0,0.3c0,0.1,0,0.2,0,0.3
	c0,0.3,0,0.7-0.1,1.2l-0.1,0.5h2c0,0.2,0,0.4,0,0.6c0,0.2-0.1,0.4-0.2,0.6H428l-0.6,3.3c0,0.2-0.1,0.5-0.1,0.7
	c0,0.2-0.1,0.5-0.1,0.7c0,0.3,0.1,0.5,0.2,0.6c0.2,0.1,0.4,0.2,0.6,0.2c0.2,0,0.3,0,0.5,0c0.1,0,0.3-0.1,0.4-0.1
	c0,0.1,0.1,0.2,0.1,0.3c0,0.1,0,0.3,0,0.4v0.2c0,0.1,0,0.2,0,0.2c-0.1,0-0.3,0.1-0.5,0.1c-0.2,0-0.4,0.1-0.7,0.1
	c-0.3,0-0.6,0-0.9-0.1c-0.3,0-0.5-0.1-0.7-0.3c-0.2-0.1-0.3-0.3-0.4-0.5c-0.1-0.2-0.2-0.5-0.2-0.9c0-0.2,0-0.4,0.1-0.6
	c0-0.2,0.1-0.4,0.1-0.7L426.6,25.6z"/>
<path id="XMLID_25_" class="st5" d="M440.5,28.9c-0.1,0.6-0.2,1.1-0.3,1.6c-0.1,0.4-0.1,0.8-0.1,1.1c0,0.1,0,0.2,0,0.3
	c0,0.1,0,0.2,0,0.3c-0.1,0-0.2,0-0.4,0c-0.1,0-0.3,0-0.4,0c-0.1,0-0.2,0-0.3,0c-0.1,0-0.2,0-0.3,0c0-0.1,0-0.2,0-0.3
	c0-0.1,0-0.3,0-0.4c0-0.1,0-0.3,0-0.5c0-0.2,0.1-0.4,0.1-0.5c-0.1,0.2-0.3,0.4-0.4,0.7c-0.2,0.2-0.4,0.4-0.6,0.6
	c-0.2,0.2-0.5,0.3-0.8,0.5c-0.3,0.1-0.6,0.2-1,0.2c-0.7,0-1.2-0.2-1.5-0.7c-0.3-0.4-0.5-1-0.5-1.8c0-0.7,0.1-1.4,0.3-2.1
	c0.2-0.7,0.6-1.3,1-1.8c0.4-0.5,1-1,1.6-1.3c0.6-0.3,1.4-0.5,2.3-0.5c0.4,0,0.7,0,1.1,0.1c0.4,0.1,0.7,0.1,1,0.2L440.5,28.9z
	 M439.6,25.5c-0.1,0-0.2-0.1-0.4-0.1c-0.1,0-0.3,0-0.4,0c-0.5,0-1,0.1-1.4,0.3c-0.4,0.2-0.7,0.5-1,0.9c-0.3,0.4-0.5,0.8-0.7,1.3
	c-0.2,0.5-0.2,1-0.2,1.5c0,0.5,0.1,0.9,0.3,1.1c0.2,0.3,0.4,0.4,0.8,0.4c0.3,0,0.6-0.1,0.9-0.3c0.3-0.2,0.6-0.5,0.8-0.8
	c0.2-0.4,0.5-0.8,0.6-1.3c0.2-0.5,0.3-1,0.4-1.5L439.6,25.5z"/>
<path id="XMLID_24_" class="st5" d="M442.7,24.4c0.1,0,0.3,0,0.4,0c0.1,0,0.3,0,0.4,0c0.3,0,0.6,0,0.8,0.1l0.6,6l2.4-6
	c0.1,0,0.2,0,0.4,0c0.1,0,0.3,0,0.4,0c0.1,0,0.3,0,0.4,0c0.1,0,0.2,0,0.4,0l0.7,6.1l1.9-4.6c0.1-0.3,0.2-0.6,0.2-0.8
	c0-0.2,0.1-0.4,0.1-0.5v-0.1c0.1,0,0.2,0,0.4,0c0.1,0,0.3,0,0.4,0c0.3,0,0.6,0,0.8,0.1v0.1c0,0.2,0,0.5-0.1,0.7
	c-0.1,0.2-0.2,0.6-0.4,0.9l-2.8,6.1c-0.1,0-0.3,0-0.4,0c-0.1,0-0.3,0-0.4,0c-0.1,0-0.2,0-0.4,0c-0.1,0-0.3,0-0.4,0l-0.8-5.6
	l-2.3,5.6c-0.1,0-0.3,0-0.4,0c-0.1,0-0.3,0-0.4,0c-0.1,0-0.3,0-0.4,0c-0.1,0-0.3,0-0.4,0L442.7,24.4z"/>
<path id="XMLID_21_" class="st5" d="M460.3,28.9c-0.1,0.6-0.2,1.1-0.3,1.6c-0.1,0.4-0.1,0.8-0.1,1.1c0,0.1,0,0.2,0,0.3
	c0,0.1,0,0.2,0,0.3c-0.1,0-0.2,0-0.4,0c-0.1,0-0.3,0-0.4,0c-0.1,0-0.2,0-0.3,0c-0.1,0-0.2,0-0.3,0c0-0.1,0-0.2,0-0.3
	c0-0.1,0-0.3,0-0.4c0-0.1,0-0.3,0-0.5c0-0.2,0.1-0.4,0.1-0.5c-0.1,0.2-0.3,0.4-0.4,0.7c-0.2,0.2-0.4,0.4-0.6,0.6
	c-0.2,0.2-0.5,0.3-0.8,0.5c-0.3,0.1-0.6,0.2-1,0.2c-0.7,0-1.2-0.2-1.5-0.7c-0.3-0.4-0.5-1-0.5-1.8c0-0.7,0.1-1.4,0.3-2.1
	c0.2-0.7,0.6-1.3,1-1.8c0.4-0.5,1-1,1.6-1.3c0.6-0.3,1.4-0.5,2.3-0.5c0.4,0,0.7,0,1.1,0.1c0.4,0.1,0.7,0.1,1,0.2L460.3,28.9z
	 M459.5,25.5c-0.1,0-0.2-0.1-0.4-0.1c-0.1,0-0.3,0-0.4,0c-0.5,0-1,0.1-1.4,0.3c-0.4,0.2-0.7,0.5-1,0.9c-0.3,0.4-0.5,0.8-0.7,1.3
	c-0.2,0.5-0.2,1-0.2,1.5c0,0.5,0.1,0.9,0.3,1.1c0.2,0.3,0.4,0.4,0.8,0.4c0.3,0,0.6-0.1,0.9-0.3c0.3-0.2,0.6-0.5,0.8-0.8
	c0.2-0.4,0.5-0.8,0.6-1.3c0.2-0.5,0.3-1,0.4-1.5L459.5,25.5z"/>
<path id="XMLID_20_" class="st5" d="M464.9,31.4c0.3-0.7,0.6-1.3,0.9-1.9c0.3-0.6,0.5-1.1,0.7-1.6c0.2-0.5,0.4-0.9,0.6-1.3
	c0.2-0.4,0.3-0.8,0.5-1.2c0.1-0.2,0.1-0.3,0.1-0.5c0-0.2,0-0.3,0-0.4c0,0,0-0.1,0-0.1c0,0,0-0.1,0-0.1c0.2,0,0.4,0,0.6,0h1
	c0,0,0,0.1,0,0.1v0.1c0,0.2-0.1,0.5-0.2,0.8c-0.1,0.3-0.2,0.6-0.3,0.9c-0.5,1-0.9,2-1.5,3.2c-0.5,1.1-1.1,2.4-1.8,3.7
	c-0.3,0.6-0.6,1.1-0.8,1.4c-0.3,0.4-0.5,0.6-0.8,0.9c-0.3,0.2-0.5,0.3-0.8,0.4c-0.3,0.1-0.5,0.1-0.8,0.1c-0.4,0-0.7,0-1-0.2
	c0-0.2,0-0.4,0.1-0.6c0-0.2,0.1-0.4,0.2-0.5c0.1,0,0.2,0.1,0.3,0.1c0.1,0,0.3,0,0.4,0c0.2,0,0.3,0,0.5-0.1c0.2,0,0.3-0.2,0.5-0.3
	c0.2-0.2,0.4-0.4,0.6-0.8c0.2-0.3,0.4-0.8,0.7-1.4c-0.1,0-0.2,0-0.3,0H464h-0.2c-0.1,0-0.2,0-0.2,0c-0.2-1.3-0.3-2.6-0.5-3.9
	c-0.2-1.3-0.3-2.6-0.5-3.9c0.1,0,0.3,0,0.4,0c0.1,0,0.2,0,0.4,0c0.1,0,0.3,0,0.4,0c0.1,0,0.3,0,0.4,0L464.9,31.4z"/>
<path id="XMLID_19_" class="st5" d="M442.8,32.4c0-0.2,0-0.4,0.1-0.7c0-0.2,0.1-0.4,0.2-0.7c0.1,0,0.2,0,0.3,0c0.1,0,0.2,0,0.3,0
	c0.1,0,0.2,0,0.3,0c0.1,0,0.2,0,0.3,0c0,0.2,0,0.5-0.1,0.7c0,0.2-0.1,0.4-0.2,0.7c-0.1,0-0.2,0-0.4,0c-0.1,0-0.2,0-0.3,0
	c-0.1,0-0.2,0-0.3,0C443,32.4,442.9,32.4,442.8,32.4"/>
</svg>
